<?xml version="1.0" encoding="UTF-8"?>
<svg id="Layer_2" data-name="Layer 2" xmlns="http://www.w3.org/2000/svg" viewBox="0 0 553.81 55.71">
  <defs>
    <style>
      .cls-1 {
        fill: #fff;
        stroke: #000;
        stroke-miterlimit: 10;
      }
    </style>
  </defs>
  <g id="Layer_1-2" data-name="Layer 1">
    <g>
      <path class="cls-1" d="M.5,9.95h37.09v9.31h9.23v9.23h-9.23v4.66h9.23v13.89H.5V9.95ZM37.59,19.27H9.73v4.57h27.86v-4.57ZM37.59,33.15H9.73v4.66h27.86v-4.66Z"/>
      <polygon class="cls-1" points="100.8 47.04 54.49 47.04 54.49 9.95 63.72 9.95 63.72 37.81 100.8 37.81 100.8 47.04"/>
      <path class="cls-1" d="M115.03,19.27v-9.31h27.86v9.31h9.23v27.77h-9.23v-13.89h-27.86v13.89h-9.23v-27.77h9.23ZM142.89,19.27h-27.86v4.57h27.86v-4.57Z"/>
      <polygon class="cls-1" points="159.28 19.27 168.51 19.27 168.51 9.95 205.59 9.95 205.59 19.27 168.51 19.27 168.51 37.81 205.59 37.81 205.59 47.04 159.28 47.04 159.28 19.27"/>
      <polygon class="cls-1" points="221.89 9.95 221.89 23.84 249.75 23.84 249.75 9.95 258.98 9.95 258.98 23.84 249.75 23.84 249.75 33.15 258.98 33.15 258.98 47.04 249.75 47.04 249.75 33.15 221.89 33.15 221.89 47.04 212.66 47.04 212.66 9.95 221.89 9.95"/>
      <polygon class="cls-1" points="264.91 9.95 264.91 37.78 273.95 37.78 274.22 37.78 274.22 9.95 264.91 9.95"/>
      <polygon class="cls-1" points="301.8 9.95 301.8 37.78 292.46 37.78 292.46 9.95 288.11 9.95 287.83 9.95 283.48 9.95 283.48 37.78 274.22 37.78 274.22 47.04 283.26 47.04 301.99 47.04 311.03 47.04 311.03 9.95 301.8 9.95"/>
      <polygon class="cls-1" points="319.16 47.04 319.16 19.27 328.39 19.27 328.39 9.95 365.48 9.95 365.48 19.27 328.39 19.27 328.39 23.84 365.48 23.84 365.48 33.15 328.39 33.15 328.39 37.81 365.48 37.81 365.48 47.04 319.16 47.04"/>
      <polygon class="cls-1" points="373.07 47.04 373.07 19.27 382.3 19.27 382.3 9.95 419.38 9.95 419.38 19.27 382.3 19.27 382.3 23.84 419.38 23.84 419.38 33.15 382.3 33.15 382.3 37.81 419.38 37.81 419.38 47.04 373.07 47.04"/>
      <polygon class="cls-1" points="436.89 9.95 436.89 23.84 464.75 23.84 464.75 9.95 473.98 9.95 473.98 23.84 464.75 23.84 464.75 33.15 473.98 33.15 473.98 47.04 464.75 47.04 464.75 33.15 436.89 33.15 436.89 47.04 427.66 47.04 427.66 9.95 436.89 9.95"/>
    </g>
    <g>
      <g>
        <path class="cls-1" d="M483.96,53.05c-2.86,0-5.25-1.69-7.26-3.11-1.02-.72-1.98-1.4-2.89-1.8l-.44-.76c.04-.39.18-.68.28-.91.11-.25.16-.36.14-.56l.15-.53c6.66-8.68,14.46-16.44,22.01-23.95,2.36-2.34,4.77-4.74,7.14-7.17-4.85,2.49-10.3,6.4-16.53,11.85-.69.42-1.21.04-1.38-.08h0s.21.07.43-.02c.22-.08.32-.26.34-.31l-1.28.35c-.18-.2-.4-.37-.63-.55-.48-.38-1.06-.84-1.47-1.59l-.53.07c-.42-.52-1.05-1.2-1.65-1.84-.74-.8-1.37-1.49-1.63-1.87v-.84c1.65-2.34,4.47-4.27,7.2-6.14,1.33-.91,2.59-1.77,3.72-2.68l.46-.16.23.12c.18-.15.36-.3.54-.47l.17-.15c.12-.32.38-.49.67-.54l.93-.49c2.58-1.35,6.11-3.2,9.06-4.92l.42-.1c.78.05,1.17-.26,1.7-.68l.2-.16.44-.16c1.32-.03,2.34-.46,3.32-.88,1.13-.48,2.3-.98,3.73-.72,1.96.37,3.29,1.97,4.57,3.52.91,1.1,1.85,2.24,2.96,2.82l.39.53c.48,2.86-1.03,4.5-2.36,5.96-.62.68-1.21,1.32-1.58,2.04l-.6.37c-.05.18-.17.38-.38.59l-.35.15c-.06.12-.15.23-.27.33l-.72.11c-.1-.04-.32.09-.59.36l.18.14v.21l-.27.27c.08-.12.13-.28.1-.46,0-.05-.02-.1-.03-.15-.14.14-.29.31-.44.5l.09.34s.06-.02.09-.04l-.28.28c-.1,0-.2-.02-.29-.04-.31.46-.61,1.02-.85,1.62l-1.16.03s.04.08.06.12c.05,0,.12,0,.16-.03-.03.02-.07.06-.12.13.16.5-.17,1-.37,1.2l-.53.22-.27-.14c-.1.07-.21.15-.31.22l.26.35c-.34.68-.92,1.21-1.65,1.5l-1.73,1.85c-3.64,3.9-7.41,7.93-11.58,11.48-.05.15-.14.3-.31.43-.02.01-.03.02-.06.04-.05.06-.1.11-.17.15-.04.06-.09.12-.15.16-.06.16-.16.3-.28.41-.15.54-.63.77-.85.87-.05.02-.13.06-.16.08l-.18-.07-.04.08c-.24.44-.51.91-.83,1.38,2.34-.56,4.56-1.18,6.57-2.5l.41-.12c.13,0,.49,0,.78.22,3.45-1.32,7.45-2.18,12.52-2.68l.82.74c0,.09-.01.18-.03.26l.22.34c-.15.62-.66.99-1.35.99l-.09-.09-.03.02.71.71s-.01.06-.02.08c.17-.1.4-.16.71-.16l.74.74c0,.25-.11.7-.82.88l-.48-.29-.15.15.18.7c-.14.07-.27.13-.4.18l.81.56c0,.22-.08.95-1.16.95l-.71-.97c.02-.07.05-.13.08-.19-.06.02-.11.03-.16.05-.16.05-.31.09-.45.14l.19.19c-.05.22-.18.46-.44.62l.02.02c-.17.68-.81.78-1.2.78-.25.18-.56.21-.81.21h0c-.29.18-.65.18-.8.18h0c-.07,0-.14,0-.21.01l-.29-.29s-.09.02-.13.03c-.08.27-.34.63-1.13.63h-.01c-.26.19-.56.41-.9.55l.37.52c-.28.56-.84.68-1.18.75-.03,0-.08.02-.11.03-.08.14-.2.29-.42.37l-.69-.04-.09-.14-.43.43h-.27c.11-.02.3-.15.35-.35l-1.22.36c.11.06.36.08.55-.03-.18.11-.39.21-.72.22l-.09.1c-.09.02-.19.01-.28,0-.04.04-.1.11-.16.19-.04.05-.08.1-.12.15-.18.39-.54.6-1.15.56-.11.3-.25.6-.57.76l-.8-.08c-.12-.02-.43.19-.57.35-.22.47-.55.6-.79.63-.26.03-.47-.06-.64-.19-.17.13-.37.25-.61.33-.05.03-.16.05-.24.06l-.1.15c-.35.12-.7.25-1.05.38-.78.29-1.58.58-2.44.83,0,.03-.02.07-.03.1-.15.4-.51.52-.85.55-.1.07-.21.11-.34.13-.14.02-.29,0-.43-.05-.42.12-.74.24-1.04.35-.32.12-.62.23-.98.32-.88.31-1.72.44-2.52.44ZM475,47.07c.84.45,1.68,1.04,2.55,1.65,2.53,1.79,5.14,3.65,8.48,2.47.36-.1.62-.2.91-.3.36-.13.75-.27,1.28-.42.15-.14.36-.23.58-.23l.05.03.09-.3c1.11-.25,2.09-.61,3.14-1,.26-.1.53-.2.8-.29.12-.14.31-.26.61-.3.19-.07.29-.16.47-.46l.6-.22-.2-.13c-.07-.25,0-.56.24-.79l-.74-.51c0-.06,0-.18.05-.3-.19.02-.39.02-.63-.02l-.5-1.14c.28-.43.81-.68,1.39-.68l.74.74c0,.19-.04.37-.13.53h.02c.49-.49,1.26-.63,1.96-.7l.03.06c.09-.14.25-.27.5-.35l-.48-1.24c.47-.27.98-.5,1.59-.69l-.18-.08c-.12-.29-.06-.68.25-.94.07-.09.15-.17.25-.23,0-.02,0-.03.01-.05l-.25-.17c0-.13.03-.49.37-.72-.18.07-.36.14-.54.21l-.46-.38c-2.44,1.56-5.05,2.17-7.81,2.81-.57.13-1.15.27-1.73.41-.09.16-.21.27-.36.35-.12.12-.28.2-.45.23l-.27-.16c-.06.25-.21.4-.35.5l-.98-.06s-.01-.01-.02-.01c-.07.11-.16.19-.24.25l-.97-.05c-.33-.25-.47-.68-.35-1.05.06-.17.18-.35.38-.46.1-.14.22-.25.33-.32.07-.13.16-.23.27-.31.03-.04.06-.08.09-.11.06-.22.16-.38.27-.54l.8-.31c.06.02.12.04.18.06-.07-.22-.04-.52.19-.76.06-.13.14-.23.25-.32.04-.07.09-.13.15-.18.16-.54.59-.91,1.19-.99-.01-.42.34-.72.52-.88.05-.04.11-.09.15-.13,0,0-.1.12-.1.33l.23-.23c.03-.18.11-.41.34-.58.05-.08.12-.16.22-.23.02-.03.04-.05.06-.08.13-.43.45-.73.88-.84.05-.04.1-.07.16-.1.07-.53.56-.91.93-1.19.05-.03.09-.07.13-.1.11-.2.26-.34.4-.44.07-.13.16-.21.24-.27.01-.01.03-.02.04-.03.11-.16.26-.27.39-.35.07-.12.17-.23.29-.33.18-.43.57-.63.94-.6.13.01.25.05.35.1-.06-.11-.09-.23-.1-.35-.03-.37.16-.75.59-.94.14-.19.3-.35.49-.48.09-.17.23-.3.4-.38l.04-.09s.01-.01.02-.02c.05-.07.11-.14.2-.2h.01c.05-.08.11-.15.2-.21.02-.01.04-.03.06-.04.1-.1.21-.18.34-.22l.11.05c.02-.14.07-.28.17-.41.07-.25.21-.41.33-.5.07-.05.15-.11.26-.15.04-.05.09-.09.14-.13,0,0,0,0,.01,0,.05-.07.11-.14.19-.2.05-.09.13-.17.23-.24.1-.11.22-.19.36-.24.04-.08.09-.15.15-.22.15-.32.41-.48.55-.57.06-.04-.01.05-.02.12l.23-.2c.04-.18.14-.39.37-.54h0c.09-.11.18-.19.28-.26.07-.12.16-.22.27-.3.06-.08.12-.15.2-.2.15-.22.4-.37.71-.39l.1-.11c.08-.01.17,0,.25.02,0,0,0,0,0-.01-.09-.45.1-.97.48-1.28.11-.09.22-.15.35-.2,0,0,.01-.01.01-.02h-.02s-.09.06-.09.06c-.13,0-.25-.02-.35-.06h-.03c-.18-.08-.3-.18-.37-.25l-.07-.04h0s-.01.01-.02.02c-.05.07-.11.14-.2.2,0,0,0,0-.01.01-.05.07-.11.14-.2.2-.02.01-.04.02-.06.04-.1.11-.22.18-.35.23l-.26-.12s-.05-.01-.08-.02c.09.33-.03.75-.51.99h0c.08-.07.15-.15.21-.25.13-.12.21-.27.21-.41l-.13.17s0-.01,0-.02l-.35.39-.1-.19.02.23s.03,0,.05,0l-.26.29-.84-.65c-.04-.23.03-.5.24-.7.12-.21.33-.36.58-.4l.18.11c-.05-.25.02-.55.26-.77.07-.12.15-.21.24-.28.06-.08.13-.16.22-.22.04-.06.09-.1.15-.15.2-.39.56-.56.89-.54.21.01.4.09.56.22l.85.19c.05.05.12.12.17.22.26.05.48.24.57.49,0,0,.01,0,.02-.01.07-.1.16-.18.26-.25.06-.07.13-.13.2-.19.1-.13.21-.23.32-.3.05-.1.13-.2.25-.29.06-.04.14-.09.24-.12.6-.68,1.27-1.37,1.96-2.07-.04,0-.07,0-.11,0l-.33-.16c-.18-.04-.34-.13-.46-.26-.04.1-.1.19-.15.27.11.17.17.38.18.6l.11.1-.65.84c-.08.02-.17.01-.26,0-.09.04-.21.08-.34.1-.04.12-.1.24-.2.34-.08.22-.21.36-.32.45-.06.05-.15.1-.26.14-.12.11-.27.18-.44.2l-.87-.58c-.04-.17-.03-.36.06-.54-.1-.2-.12-.4-.12-.55.02-.68.59-1.14,1.14-1.6.26-.22.66-.54.73-.72l.2-.14c.08-.17.19-.3.32-.39.13-.15.32-.25.53-.28l.64.42c.07-.14.18-.27.34-.36l.02-.07.17-.02s.08-.02.12-.03v.02s.62-.06.62-.06l.4.78-.04.04c.03.09.05.18.05.28l-.32.31s0,.02,0,.03l.04.02c.14-.14.28-.28.42-.41-.04-.06-.06-.12-.08-.17-.13-.39.05-.71.13-.84,0-.01-.02-.04-.02.16l.98-.71c.16.05.28.12.37.19.64-.65,1.24-1.26,1.73-1.81h.02c0-.32.16-.6.44-.75.13-.07.35-.14.61-.07h.05c.05-.24.21-.47.52-.62h0c-.08.07-.15.15-.21.25-.13.12-.21.27-.21.41l.13-.17s0,.01,0,.02l.35-.39.1.19-.02-.23s-.03,0-.05,0l.26-.29c.41-.02.78.25.84.65.02.12.01.25-.03.38.09,0,.19,0,.3.03.05-.01.1-.02.15-.02.43-.67.97-1.26,1.5-1.83,1.2-1.3,2.24-2.44,2.04-4.36-1.21-.74-2.16-1.89-3.08-3-1.16-1.41-2.27-2.74-3.69-3-.98-.18-1.82.18-2.88.63-1.01.43-2.14.91-3.62.99-.56.45-1.26,1-2.47,1h0c-2.94,1.71-6.4,3.52-8.93,4.85l-.69.36c-.1.35-.42.6-.79.62-.36.32-.74.66-1.21.95l-.29-.23c-1.12.88-2.37,1.74-3.59,2.57-2.44,1.67-4.95,3.39-6.49,5.32.3.35.74.82,1.17,1.29.42.45.85.92,1.22,1.34.11-.03.22-.05.33-.05l.69.47c.26.67.74,1.05,1.24,1.45.1.08.2.16.3.24.27-.04.48.06.64.15,7.72-6.75,14.36-11.18,20.17-13.45l.81,1.21c-3.24,3.39-6.62,6.75-9.89,10-7.45,7.41-15.16,15.07-21.72,23.59-.02.43-.16.74-.27.99ZM488.53,50.56h0s0,0,0,0c0,0,0,0,0,0ZM494.13,49.28l-.39.55c.18-.06.39-.29.39-.55ZM497.33,47.74c.06.03.13.06.23.07l-.21-.09-.02.03ZM494.59,47.06c0,.07,0,.15.01.23l.17-.39-.06-.04.07-.11s-.08.05-.11.08h0s0,.01-.01.02c-.11.11-.17.26-.17.39l.11-.18ZM502.12,46.01v.36h0v-.36ZM502.12,46.01v.36c.13,0,.27-.08.38-.2l-.38-.15ZM494.31,45.83c-.02.07-.04.14-.04.21h.21l-.12-.24s-.03.02-.05.03ZM497.83,45.2v.12s.07,0,.1-.01c.04-.04.08-.08.13-.11h-.24ZM497.4,44.51c-.15.09-.32.28-.32.55h.32v-.55ZM493.48,44.66c-.03.06-.06.12-.06.19h.03l.03-.19ZM498.15,44.64h.21l-.12-.25s-.07,0-.11.01c-.02.05-.04.11-.05.16l.07.07ZM504.94,43.95v.19c.12-.07.26-.21.3-.41v-.02c-.09.06-.2.15-.3.24ZM486.72,43.68l-.23.29c.06,0,.19-.04.3-.14l-.03-.06s.09-.03.12-.06c.02-.04.05-.08.06-.12,0-.01,0-.03.01-.04l-.1-.06-.13.17.03.11-.04-.09ZM484.66,43.3c-.12.15-.15.32-.14.39l.3-.35-.17-.04ZM487.99,43.4l-.02.03.03-.02h0ZM501.04,43.05v.02s.02-.02.03-.02h0,0s0,0,0-.01c0,0-.01-.01-.02-.02h0l-.03-.03v.04s-.02.02-.02.02c0,0,.01,0,.02,0ZM511.2,42.38l.04.09s.02-.04.03-.06l-.07-.02ZM508.86,42.17l.04.15s.02-.1.02-.15h-.06ZM498.85,41.87c0,.16.04.3.11.4l.04-.22-.09.04-.06-.22ZM500.96,42.17h.03s-.01,0-.02-.01c0,0,0,0-.01,0h0ZM485.74,42.09s-.03.04-.04.07l.1-.04-.04-.04s-.02,0-.03,0ZM498.42,41.66c-.11.15-.15.33-.11.48l.35-.36-.23-.12ZM486.87,41.45c.13.12.23.27.28.46,0,.03.01.05.02.08.06-.09.12-.17.19-.24l-.49-.3ZM510.36,41.62c-.06.09-.11.21-.11.34h.32v-.41c-.07.03-.14.05-.21.07ZM503.57,41.01s.05,0,.07,0c-.01-.01-.02-.02-.03-.04l-.06-.56s-.06.05-.08.07c.09.16.13.34.1.52h0ZM486.95,40.76s0,.03,0,.04l.05-.04h-.04ZM498.99,40.48c-.04.08-.07.17-.07.28h.04s.07-.07.12-.1l-.09-.18ZM490.42,40.52l-.12.19c.05-.01.11-.04.17-.09l-.05-.09c.09-.03.17-.08.23-.13.04-.07.07-.15.08-.24l-.31.36h0s0,0,0,0ZM500.17,40.28l.59.41c.12-.14.29-.23.48-.27l-.29-.29c0-.18.05-.54.44-.74-.71.21-1.4.44-2.06.68.02,0,.04,0,.06,0l.45.31c.09-.04.2-.08.33-.1ZM487.16,40.55s0,.03,0,.04l.02-.04h-.02ZM487.27,40.55h0s0,0,0,0h0ZM511.84,39.99v.51c.14-.07.32-.25.32-.51h-.32ZM487.2,40.42l.03.06.05-.08v-.03s-.04,0-.06.01c0,.01-.01.02-.02.04ZM503.14,40.15s.03.02.05.03c0,0,0-.01,0-.02h-.05ZM504.57,39.99l-.02.12.16-.11s0,0,0,0h-.14ZM497.31,39.63s0,.16.1.29c.1.13.22.17.26.18v-.18s-.36-.28-.36-.28ZM501.7,39.41c-.08.04-.18.11-.24.24l.24.12v-.36ZM503.22,39.27l.14.17-.11-.22s-.02.03-.03.04ZM502.33,39.13c-.16.04-.32.09-.47.13.08,0,.17-.01.27-.01.06-.04.13-.08.21-.11ZM490.08,39.15l.05.06s.02-.04.03-.06h-.08s0,0,0,0ZM504.62,39.14h.21l-.14-.28c-.04.08-.07.17-.07.27h0ZM502.91,39.03s.08,0,.12,0l.05.06c.16-.15.41-.27.8-.27l.25.25s.07-.01.11-.02c.05-.16.16-.34.38-.47-.68.14-1.34.29-1.98.46.08-.01.17-.02.27-.02ZM505.13,38.48l.73.49-.04-.04c0-.12.02-.4.24-.62-.31.06-.62.11-.92.17ZM506.53,38.23c-.13.08-.29.25-.29.49h.32v-.5h-.03ZM506.91,38.17l.41.28c.09-.04.19-.07.3-.08.1-.08.2-.13.31-.17,0,0,0,.01,0,.02l.02-.02s.1-.03.15-.03c0-.04,0-.08,0-.12l.03-.03s-.02.01-.03.02c0-.02,0-.03,0-.05-.41.06-.81.12-1.21.18ZM508.24,38.16c.07,0,.14,0,.21.02v-.02s-.09-.21-.09-.21c-.04,0-.07,0-.11.01-.03,0-.05.02-.08.03-.02.05-.04.11-.06.17.04,0,.08,0,.12,0ZM493.52,35.8h.05c.34-.28.67-.58,1.01-.89,0,0,0,0,0,0-.02-.04-.03-.08-.04-.13-.06.11-.14.2-.24.27-.04.03-.09.06-.15.1-.15.26-.34.39-.52.46-.03.06-.06.13-.1.19ZM492.24,35.06s-.01.04-.01.05l.07-.05h-.06ZM494.65,34.69s0,.03.01.04l.06-.08s-.04.03-.07.04ZM495.01,34.34s0,0,0,0h.03s-.02-.02-.02-.02c0,0,0,0,0,.01ZM495.02,34.33h.03s-.03,0-.03,0ZM494.83,34.29s0,.02,0,.03l.02-.03h-.02ZM495.12,33.84s0,.02,0,.03l.03-.05-.03.02ZM495.02,33.52s.04.08.05.12c.02-.02.05-.05.07-.07-.04-.01-.09-.03-.13-.05ZM495.8,33.53l.16.1c.18-.17.36-.35.55-.52l-.09-.04s0-.02-.01-.03c-.06.03-.13.06-.2.09-.1.19-.25.32-.39.39ZM493.72,33.6v.02s.29-.28.29-.28c-.06.01-.2.1-.29.27ZM497.82,32.85l-.19.31s.09-.06.13-.1c.03-.06.05-.13.06-.21ZM496.79,32.67s0,.01-.01.02l.08-.02h-.07ZM495.11,32.22c-.17.1-.26.26-.27.36l.32-.33-.05-.03ZM497.34,31.86l.27.18c.65-.64,1.28-1.28,1.91-1.93-.1-.03-.19-.07-.28-.13-.02.01-.03.03-.05.04-.06.07-.11.14-.18.19-.06.09-.14.16-.23.23-.11.16-.25.26-.38.33-.12.17-.3.29-.51.33-.03.16-.12.32-.26.45-.08.14-.18.25-.29.32ZM495.57,31.82s-.02.02-.03.04l.04-.04h-.01ZM497.32,31.58h.01s.03-.08.03-.11h0s0,.07,0,.11c.03-.01.05-.02.08-.04.07-.08.11-.17.13-.23l.09.04c.07-.09.11-.2.12-.3l-.13-.08-.26.25.12.06-.22.17.03.02-.02.02.02.09ZM497.24,31.53l.07.05-.04-.08-.04.03ZM497.26,31.47h0,0s0,0,0,0ZM499.85,29.62l-.14.11s.1-.02.2-.08l-.05-.02h0ZM501.27,29.4l-.19.31s.09-.06.13-.1c.03-.06.05-.13.06-.21ZM499.15,29.64h.04s0-.03,0-.04l-.05.04ZM501.98,28.79l-.1.17s.1-.03.15-.07l-.05-.1ZM502.04,28.69l-.05.08c.11-.04.2-.1.27-.18.03-.07.05-.14.05-.21l-.28.31ZM498.54,28.53s-.05.03-.07.04l.07-.04ZM500.92,28.5l.05.03-.05-.04s0,0,0,0ZM501.12,28.38s0,0,0,0l.04-.02h-.04ZM499.17,28.03l.03.06.06-.06v-.02s-.06.01-.09.02ZM500.87,26.54s0,.01,0,.02l.03-.02h-.04ZM500.75,26.49s0,.04,0,.06l.06-.07s-.03,0-.05.01ZM500.89,26.31s0,.05-.01.07l.08-.1s-.04.02-.06.03ZM500.92,26.19s-.01.03-.01.04c.03,0,.06,0,.09,0l.04-.05-.02-.05s-.06.04-.09.07ZM501.31,25.82c-.1.02-.22.1-.3.22.05-.01.1-.02.15-.03l.15-.2ZM503.19,25.36l-.38.25c.12.05.25.03.33-.02.02-.03.04-.06.06-.09,0-.02,0-.06,0-.11,0-.01,0-.03,0-.04ZM499.05,24.78s.01.06.02.09l.28-.09h-.3ZM500.03,24.78h.24s0-.02,0-.04l-.23.04ZM499.13,24.33c-.04.07-.07.15-.08.25l.21-.34s-.09.06-.13.09ZM499.5,24.16l.02.09v-.1s-.02,0-.02,0ZM483.04,23.84v.06c.14,0,.24-.07.27-.1l-.27.04ZM500.03,23.43c-.11.15-.15.33-.11.48l.38-.35-.14-.04.02-.02-.06-.03s0,.03,0,.04h0s0-.03,0-.05l-.08-.04ZM503.24,23.52h.14s.01,0,.01-.01h.01s.05-.05.07-.08l-.24.08s0,0,0,.01ZM500.33,23.31s0,.03,0,.04l.05-.04h-.04ZM504.09,23.22v.03l.03-.03s-.02,0-.03,0ZM500.37,23.18h0s0,0,0,0c0,0,0,0,0,0ZM502.47,23.02v.08l.1-.13s-.07.03-.1.05ZM502.62,22.96v.02s.03-.03.03-.03h-.03ZM502.57,22.86l.04.07.08-.11s-.02-.01-.03-.02c-.03.01-.06.03-.09.05ZM502.69,22.8s0,0,.01.01l.02-.02s-.02,0-.03,0ZM501.07,22.61v.02l.05-.05s-.02,0-.03,0c0,0-.01.02-.02.02ZM501.28,22.42s-.08.04-.13.1h.04s.09-.1.09-.1ZM504.09,21.69h.09v-.03s-.09.03-.09.03ZM509.41,21.53h.04s.05-.07.07-.12c0,0,0,0,0,0l-.1.12ZM505.73,20.04l.34.27c-.03-.12-.13-.25-.28-.34-.02.02-.04.05-.06.07ZM506.12,19.45s.02.03.04.05l-.02-.06s-.01,0-.02.01ZM507.7,19.12h.01s0,0,0-.01h-.01ZM505.14,18.69l.09.05-.09-.05ZM504.98,18.61h.01s-.01,0-.01,0ZM504.84,18.53l.13.07-.13-.07ZM508.45,18.28s.04.09.06.12c.03-.03.05-.05.08-.08l-.14-.05ZM505.71,18.16v.02h.02s-.02-.02-.02-.02ZM512.11,17.71l.45.35c-.09-.19-.26-.33-.45-.35ZM512.59,15.86s.03.07.04.11c.04-.05.08-.11.11-.17l-.15.06ZM512.78,15.78l.13.05s0-.02.01-.02c.03-.05.07-.09.1-.13l-.25.1ZM512.57,15.7l.18.07c.04-.1.05-.21.03-.29-.01-.05-.04-.1-.07-.15l-.18.18h.03s.01.19.01.19ZM513.38,15.32v.02s0,0,0,0v-.02ZM513.86,15h0s0,0,0,0ZM512.63,14.79s0,.02,0,.04l.23-.04h-.24ZM513.55,14.79h.3s-.01-.06-.02-.09l-.28.09ZM489.59,11.32c-.02.07-.02.23.09.38l.2-.15-.29-.23ZM491.47,9.87l.17.08.09-.09-.02-.1c-.09.02-.17.06-.23.11ZM482.88,43.29l-1.01-.7c0-.19.07-.81.9-.91l1.01.7c0,.19-.07.81-.9.91ZM483.15,42.59l.14.29c.04-.08.08-.18.08-.29h-.22ZM482.38,42.1c-.04.08-.08.18-.08.29h.22l-.14-.29ZM496.63,42.92l-.74-.74c0-.19.06-.81.88-.91l.99.94c-.09.27-.36.72-1.13.72ZM497.12,42.17l.12.36c.08-.1.13-.22.13-.36h-.25ZM496.63,41.82h.03s.03-.39.03-.39c-.02,0-.03,0-.06.01v.38ZM496.63,41.44c-.1.03-.23.13-.28.28l.28.09v-.38ZM486.99,38.61c-.3,0-.59-.17-.72-.46-.12-.27-.09-.62.18-.89.03-.07.08-.15.14-.22.17-.55.65-.89,1.31-.89l.69,1.02c-.17.42-.42.67-.69.85-.12.24-.33.37-.57.43l-.05.11c-.1.04-.2.06-.3.06ZM487.59,38.2l-.2.2c.07-.03.14-.1.2-.2ZM487.52,38.03l-.08.17s.09-.04.13-.07l-.05-.1ZM486.43,37.43c-.11.16-.14.36-.08.55l.31-.43-.12-.02.02-.03h-.03s0,.02,0,.03h0v-.05l-.09-.05ZM486.63,37.53l.03.02-.03-.02ZM487.94,37.53h.05s.02-.03.02-.05l-.07.05ZM486.53,37.48h.03s-.03,0-.03,0ZM486.43,37.43l.09.05-.09-.05ZM492.58,32.93l-.87-.53c-.08-.26-.03-.58.21-.83.1-.18.27-.32.47-.38.04-.08.1-.15.17-.22.12-.21.33-.36.58-.4l.14.09c-.11-.44.11-.86.26-1.08l.31-.17c.15-.22.32-.39.53-.52.21-.48.67-.62.9-.59.49.03.88.45.87.94,0,.24-.13.59-.51.78-.09.2-.21.34-.32.43-.08.07-.18.14-.31.19-.07.19-.18.35-.31.49l-.64.18c0,.29-.15.61-.54.81h0c.08-.07.16-.15.21-.25.13-.12.21-.27.21-.41l-.13.17s0-.02,0-.02l-.35.39-.03-.06s0,.06,0,.09c0,0,.01,0,.02,0l-.02.02s-.02.08-.03.12h-.01s0,.01,0,.01c-.03.1-.09.19-.18.28-.12.24-.34.42-.61.46ZM492.72,32.38l.03.25s.06-.01.09-.02l-.12-.23ZM493.13,32.29l-.16.27s.08-.05.12-.09c.03-.05.05-.11.06-.17h-.02ZM491.94,32.03s.01.08.03.11l.35-.11h-.38ZM491.99,31.64c-.02.05-.04.11-.05.18l.17-.27s-.08.06-.11.09ZM492.27,31.48l.04.09s0-.07,0-.1c-.02,0-.03,0-.05.01ZM493.55,31.47h.24s0-.03,0-.04l-.24.04ZM492.58,31.2h.02s.18-.28.18-.28c-.04.02-.09.06-.13.09-.03.06-.06.12-.07.19ZM493.02,30.84l.02.1v-.1s-.02,0-.02,0ZM495.75,29.46h0s0,0,0,0h0ZM494.85,28.78v.06s.16-.15.16-.15c-.04,0-.1.04-.16.1ZM493.47,32.05v-.03s.02-.01.03-.01l-.03.04ZM499.95,25.36v-.02s.02,0,.03-.01l-.03.04ZM507.64,17.57l-.78-1.03c.17-.41.48-.65.72-.84.18-.14.29-.23.32-.33l1.22-.26c.3.3.4.73.26,1.15-.23.68-1.09,1.23-1.75,1.31ZM512.92,14.25l.03-.04v.02s-.02,0-.03.01ZM505.5,11.21l-1.06-.89c.32-.95,1.24-1.08,1.59-1.13l.84.65c.06.52-.1,1.17-1.19,1.33-.06.01-.13.01-.18.03ZM507.51,10.3l-.86-1.01c.31-.72.86-1.1,1.57-1.12.06-.04.12-.07.18-.09l.27.12s.04,0,.07.01v.02s.65.3.65.3c.13.31.06.72-.3.98-.43.47-1.01.64-1.58.79ZM508.91,9.19l.2.16c.18-.16.26-.4.21-.59l-.41.43ZM503.58,8.02l-1.01-.7c0-.19.06-.81.88-.91l.99.93c-.13.38-.42.61-.86.68ZM503.81,7.32l.12.36c.08-.1.13-.22.13-.36h-.25ZM503.06,6.82s-.02.04-.03.06l.07.02-.04-.09Z"/>
        <path class="cls-1" d="M483.96,53.79c-3.1,0-5.64-1.8-7.69-3.25-.99-.7-1.92-1.36-2.76-1.73l-.35-.31-.44-.76-.1-.45c.06-.51.23-.88.34-1.13.04-.08.07-.14.08-.19l.02-.26.28-.77c6.69-8.72,14.51-16.5,22.08-24.02,1.04-1.04,2.1-2.09,3.16-3.15-3.51,2.29-7.33,5.24-11.53,8.92-.48.31-1.25.61-2.13.08h-.05s-.75-.21-.75-.21c-.14-.16-.31-.29-.49-.43-.44-.35-.98-.78-1.43-1.41h-.05s-.68-.26-.68-.26c-.41-.51-1.03-1.18-1.62-1.81-.79-.86-1.41-1.53-1.7-1.96l-.12-.42v-.84s.15-.42.15-.42c1.71-2.44,4.59-4.41,7.37-6.31,1.33-.91,2.58-1.76,3.69-2.65l.22-.12.46-.16.28.02c.07-.06.15-.13.22-.19l.08-.07c.21-.4.57-.68,1.02-.79l.84-.44c2.57-1.35,6.08-3.19,9.03-4.91l.84-.2c.51.03.68-.11,1.19-.51l.41-.27.67-.2c1.18-.03,2.09-.41,3.05-.83,1.17-.5,2.5-1.07,4.15-.77,2.23.41,3.7,2.2,5.01,3.77.87,1.05,1.76,2.13,2.74,2.64l.26.22.39.53.13.31c.55,3.21-1.17,5.08-2.55,6.58-.59.64-1.14,1.24-1.47,1.88l-.27.29-.39.24c-.11.21-.26.42-.45.61l-.38.22c-.09.12-.19.22-.31.31l-.35.15-.5.09-.22.53-.27.27-.27-.22s-.03.03-.04.05l-.24-.19h0s.36.55.36.55l-.28.28-.4.17c-.23.38-.42.77-.58,1.16l-.67.47h-.31c-.07.49-.32.93-.61,1.23l-.24.16-.47.2v.1c-.39.79-1.05,1.42-1.87,1.79l-1.63,1.74c-3.61,3.87-7.35,7.87-11.51,11.43-.11.23-.28.43-.49.58,0,0-.05.06-.13.12-.02.02-.04.05-.06.07-.07.14-.15.26-.25.37-.09.22-.21.4-.34.54,1.32-.41,2.59-.93,3.78-1.72l.82-.24c.13,0,.47,0,.84.15,3.44-1.28,7.39-2.11,12.39-2.61l.57.19.82.74.25.55s0,.06,0,.09l.07.12.09.58c-.08.3-.21.57-.39.79l.1.04.74.74.22.53c0,.73-.44,1.3-1.2,1.55l.03.02.32.61c0,.84-.59,1.7-1.91,1.7l-.6-.31-.16-.22s-.03.03-.05.05c-.17.42-.58,1.02-1.63,1.11-.3.16-.6.2-.85.22-.41.18-.82.18-.99.18l-.36-.1c-.24.23-.61.43-1.17.47-.05.04-.1.07-.15.11l.04.56c-.39.77-1.1,1-1.52,1.1-.16.18-.36.31-.58.4l-.31.05-.57-.03-.06.06-.55.22-.27-.07c-.19.11-.45.22-.8.26l-.16.11s-.06.01-.09.01c-.18.33-.55.76-1.28.87-.15.25-.37.53-.73.7l-.41.07-.63-.07s-.04.03-.06.04c-.39.72-.99.88-1.32.91-.22.02-.45,0-.67-.08-.11.06-.23.11-.36.16-.05.02-.11.04-.18.06l-.21.16-1.04.38c-.69.25-1.4.51-2.15.74-.19.33-.54.65-1.18.76-.14.07-.3.12-.46.15-.17.03-.36.03-.55,0-.3.09-.55.19-.79.27-.34.13-.66.24-1.04.35-.86.31-1.79.47-2.71.47ZM487.32,51.54s-.08.03-.12.04c-.05.02-.09.03-.14.05.05-.02.09-.03.14-.05.04-.01.08-.03.12-.04ZM488.54,51.23v.07-.07h.22s.1-.02.1-.02l-.1-.21-.21.11v-.2.2l-.13.07s-.09.02-.13.03h.26ZM488.76,51l.1.21.33-.1c.17-.02.22-.05.22-.05l.53-.58c-.27.08-.55.15-.84.21v-.02s-.09.04-.09.04l.14.27-.35-.07-.04.09ZM475.92,46.73c.7.41,1.39.91,2.06,1.38,2.49,1.76,4.83,3.42,7.81,2.37.38-.11.63-.2.89-.29.35-.13.72-.26,1.2-.4.18-.13.38-.22.6-.26l.3-.29c1.06-.24,2.03-.6,3.05-.97.21-.08.43-.16.66-.24.21-.18.46-.3.75-.36.02-.03.05-.07.09-.14l.27-.22c0-.1.02-.2.04-.3l-.2-.14-.09-.18c-.06,0-.12-.01-.18-.02l-.56-.44-.5-1.14.06-.71c.42-.64,1.17-1.02,2.01-1.02l.53.22.63.63c.33-.12.68-.19,1.02-.24l-.24-.53-.74-.74-.19-.46c-1.6.6-3.25.98-4.95,1.38-.48.11-.97.23-1.46.35-.11.12-.23.22-.37.3-.22.19-.48.31-.77.35h-.05c-.08.08-.18.15-.28.22l-.46.12-.66-.04s-.08.07-.13.09l-.45.12-.97-.05-.41-.15c-.35-.27-.58-.65-.66-1.06-.17.08-.37.13-.59.16l-.51-.13-1.01-.7-.32-.61c0-.72.48-1.51,1.55-1.65l.51.13,1.01.7.16.31s.07-.06.1-.09c.08-.11.17-.22.28-.31.09-.23.2-.41.3-.56l.35-.28.54-.21c.06-.19.15-.37.28-.53.08-.15.19-.28.31-.39.02-.03.04-.06.07-.08.04-.11.09-.21.15-.31-.5-.08-.94-.41-1.15-.88-.24-.55-.14-1.17.25-1.62.03-.05.06-.1.09-.15.31-.79,1.05-1.28,1.97-1.28l.62.33.69,1.06c.21-.46.57-.82,1.04-1.01.24-.6.77-1,1.11-1.25h0c.11-.16.25-.31.41-.45.09-.13.2-.24.32-.34.05-.06.1-.12.16-.17h-.07s-.87-.54-.87-.54l-.32-.41c-.17-.52-.04-1.09.33-1.5.15-.22.34-.4.57-.52.03-.03.05-.06.08-.09.15-.22.35-.4.58-.52.08-.35.24-.64.36-.82l.42-.32c.13-.17.28-.32.45-.45.38-.64,1.07-.89,1.59-.82.69.04,1.3.59,1.45,1.3.04-.05.09-.09.14-.13.09-.08.19-.14.3-.2.02-.02.04-.03.06-.05.05-.07.11-.13.18-.18.08-.11.18-.2.29-.29.1-.1.22-.19.35-.26.01-.02.03-.04.05-.06.25-.45.62-.67.78-.78h.01c.11-.22.27-.41.48-.55.06-.07.13-.13.2-.19,0,0,0,0,0-.01l-.49.05-.84-.65-.28-.47c-.08-.47.07-.94.39-1.29.18-.26.42-.46.71-.57.07-.17.18-.34.31-.48.09-.13.18-.24.29-.34.07-.09.15-.17.24-.24.03-.03.05-.06.08-.08.33-.54.93-.86,1.53-.81.17.01.34.05.5.11-.04-.17-.06-.35-.06-.52.03-1.02.79-1.64,1.41-2.15.15-.12.47-.39.55-.49l.29-.31c.11-.17.24-.32.39-.44.25-.25.58-.41.93-.46l.63.2s.05-.03.07-.04l.05.09.07-.07-.18-.24-.09-.74c.25-.59.67-.92.95-1.13.07-.05.12-.09.16-.13l.04.03.43-.37,1.22-.26.68.2c.3.3.48.68.53,1.08.15-.16.29-.31.42-.46.1-.45.38-.83.79-1.05.17-.09.36-.15.55-.17.16-.21.37-.39.64-.52l.08.03.04-.04.52-.25c.52-.03.97.19,1.27.54.31-.39.64-.75.97-1.1,1.08-1.18,1.88-2.05,1.87-3.44-1.15-.79-2.06-1.88-2.93-2.94-1.08-1.3-2.09-2.53-3.26-2.75-.75-.14-1.46.16-2.44.58-.97.41-2.14.91-3.64,1.04-.31.24-.7.52-1.19.72l.09.03.99.93.2.77c-.21.65-.73,1.07-1.46,1.18l-.53-.12-1.01-.7-.32-.61c0-.33.1-.68.31-.97-2.87,1.65-6.19,3.38-8.42,4.55l-.46.24c-.22.39-.59.68-1.03.78-.33.29-.7.6-1.15.88l-.54-.03c-1.08.82-2.26,1.63-3.31,2.36-2.18,1.49-4.43,3.03-5.93,4.7.2.22.41.45.63.68l.1.11c.32.35.66.71.96,1.05h.05l.42.13.69.47.27.34c.19.48.55.77,1.01,1.14.03.02.06.05.09.07.08,0,.15.02.23.04,7.03-6.1,13.12-10.26,18.57-12.67l-.36-.31-.23-.8c.31-.92,1.04-1.47,2.18-1.63l.29.08c.42-.64,1.05-1.03,1.81-1.1.05-.02.11-.04.16-.06l.53.03.27.12-.05.11.05.06.06-.14.65.3.38.39c.27.66.05,1.43-.55,1.87-.46.52-1.19.75-1.84.91l-.29-.09c-.09.17-.21.32-.36.46l.46.69-.08.93c-3.23,3.38-6.6,6.73-9.85,9.96-7.43,7.39-15.07,14.98-21.58,23.4-.02.13-.04.26-.07.37ZM475.54,48.24c.51.33,1.04.7,1.58,1.08.2.14.4.29.61.43-.2-.14-.4-.28-.59-.42-.55-.39-1.08-.76-1.59-1.09ZM493.19,49.33l-.07.05c-.22.08-.43.16-.65.24l.72-.28ZM493.47,49.15s-.07.06-.08.11l.14-.09v-.04s-.05.01-.07.02ZM494.44,48.53c-.13.18-.28.34-.5.46.07-.04.13-.08.18-.12h.92c.13.03.2.02.29-.17l.13-.19c.06-.07.65-.67,1.24-.58l.18.02-.14-.66.02-.03.9-.22.21.09-.07.25.21-.14c.36.03.4-.07.43-.13l.21-.29c.09-.11.16-.19.21-.24l.68-.21h0s.17-.1.17-.1l.02-.18,1.22-.36.12.12.48.06.08-.14h.12s.66-.44.66-.44l.24.1h.01c.14-.03.26-.06.36-.1h0s.31-1.12.31-1.12c.22-.09.46-.25.73-.46h.25s.17-.35.17-.35c.12-.1.24-.21.34-.27l.46.08.25-.23.86.24c.11,0,.25-.02.33-.07l.39-.11c.19,0,.32-.02.38-.07l.42-.14c.44,0,.47-.14.49-.22l.23.06.03-.15h-.47s-.04-.15-.04-.15l.14-.18-.1-.03h.12s.62-.72.62-.72l.1.1.07-.29c.12-.04.24-.08.38-.12l.25-.08.09.11.5-.3.18.13-.07-.28.19-.71.15-.15.59-.11-.46-.36-.28.28-.71-.71.19-1.19.46.06v-.07c.27,0,.43-.09.51-.18h0s-.05-.3-.05-.3l-.37-.33c-4.23.44-7.67,1.13-10.68,2.13.39-.13.79-.26,1.2-.38l.06.14s.08-.05.13-.07l.37.23-.08-.43.48-.13.37,1.13.11-.11-.03-.43-.14-.67c.65-.17,1.32-.32,2.01-.47l.21.54h.16v.12s.16-.76.16-.76c.31-.06.62-.12.93-.18l.07.12c.06-.04.11-.08.17-.12l.3-.1.27.24.07-.29c.4-.07.81-.13,1.22-.19h.01s.44.18.44.18c.04,0,.09.01.13.02v.03s.45.18.45.18l.09.21.06.34-.88.7-.06-.05-.03.04v-.02s0,.02,0,.02l-.06-.06.02.07-.47.2-.73-.05-.4.4h-.32l-.37-.37s-.04,0-.07.01l-.37.48-.3-.2-.02.03.12.05.15.2-.11.43h.03s-.02.13-.02.13h-.05s-.1.38-.1.38l-.16.11-.27-.17v.18l-.04-.2-.26-.16-.11.13.04.41h-.03c0,.07,0,.13-.01.2l-.36-.05-.05.04v-.02s-.35.68-.35.68l-.56-.29-.16-.56.02-.08v-.09s-.12.02-.12.02l.09-.2v-.06s.03,0,.03,0l.14-.37-.51-.13.52.12v-.03s.03.01.03.01h-.02s.04-.22.04-.22l.07.02.1-.23-.09.02-.12.08h0s-.22.14-.22.14l-.19-.35h0s-.08,0-.08,0l.09.26s-.04.02-.05.02h-.03s0,0,0,0h0s-.41.13-.41.13h-.01s0,0,0,0c-.04,0-.08,0-.11,0l.02.05-.35.22-.28.9-1.04.15-.39-.27-.38-.03-.13.29v.04s-.23.38-.23.38l.35-.04.06.22h-.04s0-.01-.02-.03l-.07.05h.05s-.14.06-.14.06l.32.23-.04.22-.5.11.09.22-.39-.16-.06.06-.11-.03h-.06s-.03.55-.03.55c-.32.1-.62.21-.89.34l.11.3.2-.14.83.4.12.25-.24.39h.02s-.02,0-.02,0l-.31.49h.1v.12l-.24.06.13.45-.47.23-.46-.37-.12.12h-.32l-.38-.38c-.5.06-1.07.17-1.37.48l-.33.03-.12.1.05.02-.02.03.1.07v.1s.12-.02.12-.02l-.1.13v.03s.11-.16.11-.16l.32.96-.17.39h-.13s-.04.04-.04.04l-.21-.06-.1.82-.36.13ZM474.33,47.56c.11.05.22.11.32.16l-.33-.96c.03-.07.06-.14.09-.22-.03.08-.07.15-.1.23-.07.14-.13.29-.18.46l.19.32ZM497.62,47.07v.15s.06-.13.06-.13c-.02-.01-.04-.01-.06-.02ZM495.3,47.13h.03s0,0,0,0h-.03ZM500.73,46.04c-.25.02-.29.17-.3.22l.14.03-.03-.03.19-.22ZM474.53,45.99s0,.07,0,.1c0-.01,0-.03,0-.04l.15-.42c.42-.54.84-1.08,1.26-1.61-.45.57-.9,1.14-1.34,1.71l-.08.27ZM502.07,45.78l.03-.02v-.15c-.09,0-.14.03-.16.05l.13.12ZM493.98,45.16l.26.52h0s-.24-.54-.24-.54l.17.05-.1-.14-.24.2.02.03.11-.13ZM494.1,45.04h.01s0,0,.01-.01h0s0-.01,0-.01l-.03.03ZM493.85,44.89l.12.07-.08-.08s-.02,0-.04,0ZM485.32,43.63l.35.02v.03s.26-.1.26-.1l-.03-.07.04-.1h.03s.15-.19.15-.19h.01s0-.02,0-.02l.13-.17.97-.18.14.32v-.03s.03-.03.03-.03l-.09-.09.32-.07-.1-.16.11.15.47-.37c.59-.15,1.16-.28,1.74-.42.31-.07.62-.15.93-.22l-.76-1.11-.24.12.07-.19-.14.04.15-.06.03-.09-.02-.03-.2.03.06-.22-.08-.11.12-.19h.04s.03-.09.03-.09l.28-.33v-.09s-.57.07-.57.07l.26-.67-.27-.17-.04.04-.18-.08c-.15.14-.17.19-.17.22l-.64.75c-.3.04-.49.19-.57.46l.07.05-.11.51h-.17s.08.14.08.14l-.08-.02.07.16h-.14s.08.04.08.04l.05.38c.03.07.06.14.08.22l-.04.02.07.53s-.07.08-.1.12l-.75-.13-.08.13-.53-.24.08-.13-.35.2.26.08-.26-.05-.04.21-.08-.07.08.07-.06.35-.21-.15-.02.02.02.13-.02-.13-.41.45c-.05.03-.1.08-.13.13l-.08.07.1.3ZM485.07,43.62h.19s0-.02,0-.02l-.19.02ZM486.36,43.25h.11s.01-.02.01-.02c-.03,0-.08,0-.12.02ZM486.64,41.69l.03.08.05-.08-.05-.03-.03.03ZM496.61,39.96c-1.39.75-2.85,1.23-4.29,1.62,1.49-.4,2.92-.88,4.29-1.62h0ZM497.65,41.08l.08.08s.04-.06.07-.08l-.03-.06s-.08.04-.11.07ZM487.49,40.87l.19.04-.19-.04ZM499.62,40.83h.02s.02-.04.02-.07l-.04.07ZM487.72,40.67l.17.03-.17-.03ZM487.67,40.65h.01s-.01,0-.01,0ZM504.2,40.31l.09.03.02.15.1-.13-.19-.12.32-.16-.32.16-.07-.04s.02.04.03.06l-.04.02.04-.02s.01.03.02.04ZM503.81,40.16l.14.05.12-.07-.24-.15.27-.27-.45-.11-.1.13.26.43ZM498.92,40.14h.38s-.23-.76-.23-.76c-.14.05-.27.1-.41.15l-.48-.07.02.04h.12s.12.11.12.11l.13-.05.2.34-.02.02.14.22v-.12.12ZM490.17,39.68l.44.19c.07-.13.15-.26.21-.38l.46-.2-.03-.04c.06-.05.14-.09.28-.16.19-.09.4-.2.45-.4l1.19-1.56c.43-.36.85-.73,1.26-1.1-.13.11-.25.22-.38.34l-.67.16-.49-1.14.03-.07.43-.41s.08-.04.13-.13l.31-.29h.13s.1-.08.15-.12l.06.07.02-.06-.11-.08.12.06v-.02s-.08-.02-.08-.02l.16-.18-.39-.06-.08.1c-.05.04-.1.09-.13.14l-.27.26c-.07.04-.12.08-.15.13l-.44.45.17.03-.18-.02h-.01s-.04.04-.05.05l-.16-.06.16.06s-.08.07-.11.11l.1.33-.26-.14-.16.15v.12-.11s-.04.02-.04.02c-.25.18-.62.46-.64.69l-.42.57-.29.15c-.19.05-.31.16-.36.34l-.98,1.38.28.14.22-.58h.08s.26.46.26.46l.23-.2.05.06-.24.21.35.61-.63.15h0ZM497.73,39.48l.28.02s0,0,0,0c-.06-.08-.17-.11-.26-.12v.11ZM489.5,38.37l.16.15s-.01.01-.02.02c.05-.05.09-.11.09-.17h-.23ZM487.13,37.62l.04.1.07-.07v-.03s-.1,0-.1,0ZM487.24,37.62h0s.24-.23.24-.23t0,0l-.22-.05.23.04s.05-.04.08-.06l-.26-.13.27.13s.04-.03.06-.05l-.11-.31c-.18.09-.22.24-.24.3l-.08.15.04.07-.15.11h0s.09.03.09.03l-.04-.1.09.11h-.02ZM495.12,35.26l-.04.21c.8-.73,1.59-1.48,2.37-2.23l-.09-.09h0s-.37-.29-.37-.29h0s.07.53.07.53l-.16-.22.13.49-.55.53-.72.06v.11s-.26,0-.26,0l.06.1-.11-.1h-.15l.07.14.34.15-.33-.15.11.21-.11-.03.19.19-.28-.21.06.27-.09.07.09.1h-.17s-.01.06-.01.06l.03.02s-.03.06-.05.08h0s0,.02,0,.02h-.01ZM495.29,34.13v.14s.1-.03.1-.03l-.1-.11ZM495.35,34.14l.06.1.08-.02-.14-.08ZM494.11,33.82l.05.25c.09-.02.15-.05.19-.07l-.13-.09.13.08s.02-.01.02-.02l-.26-.15ZM494.41,33.62l.08.14.1-.22-.06-.04-.11.12ZM494.52,33.49l.06.03.09-.2-.15.17ZM495.05,33.46h0s.22-.4.22-.4h-.02s-.21.4-.21.4ZM494.81,33.17l.11.14.27-.29-.18-.08-.21.23ZM495.41,33.05l.03.15v-.09s0,0,0,0v-.09s-.03.04-.03.04ZM495.34,32.62l.14.24s.04-.03.05-.06h0s.04-.11.04-.16l-.24-.02ZM496.97,32.78l.05.02-.02-.02.11-.17-.17-.12.04.29ZM497.63,32.62l.33.12c.22-.22.44-.44.66-.65-.16.16-.33.33-.49.49l-.5.05ZM495.62,32.32l.06.36.27-.24.54.18-.29-.39.4-.2v-.05s0,.05,0,.05l.14-.07-.03-.05-.05.02.05-.02h0s-.04,0-.04,0l.04-.03-.11-.19h-.03s.03,0,.03,0v-.04s.05-.16.05-.16h0s0,0,0,0l.06-.17-.05-.02.09-.11-.23.24-.02-.02-.49.53s-.04.03-.06.04l.06.13.18.12-.04.06-.08-.06.05.11-.3-.23s-.08.09-.11.13l-.08.06ZM496.89,32.15l.04.32v-.26s-.01-.02-.01-.02h-.01s-.02-.04-.02-.04ZM492.97,31.67l.06.05h0s-.05-.05-.05-.05h-.01ZM493.22,31.06v.07s.02,0,.02,0h.01s.09-.11.09-.11l.12.04v-.16s-.02,0-.02,0l-.21.16ZM499.99,30.43l.06.2c-.08.08-.16.17-.25.25.36-.37.72-.74,1.07-1.11l-.42-.44-.26.13.12.74-.02.02v.06s-.17.1-.31.15ZM493.76,30.73h0l.09-.12.41-.11s.03-.06.05-.1l.42-.43c.16-.11.19-.16.22-.23l.24-.25-.18-.03.05-.2h-.04s-.24.27-.24.27c-.11.07-.22.17-.3.3l-.39.31c-.07.13-.09.26-.07.35l-.27.19v.05ZM498.29,29.6l.02.03-.31.23c-.1.07-.13.11-.15.18l-.12.25-.19.11.22-.03.28-.25c.06-.03.11-.08.14-.12l.46-.46-.17-.03.18.03.19-.11-.09-.24-.47.42ZM495.12,29.28l.03.14c.09-.02.15-.05.19-.08h.01s-.01,0-.01,0c0,0,0,0,0,0l-.23-.06h0s-.03,0-.03,0h.03ZM499.55,29.08l.14.22v-.19s.35.08.35.08l.1-.25.04.27.3.07.08-.13-.02-.03h-.01s0,0,0,0l-.36-.62.22-.53.46-.03.03-.1-.06-.14.06.13.09-.18.09.27.27-.04.03.02h0s.02.02.02.02l-.21.32.02.07.45-.45.06.09.06-.07.35.15-.33-.32h0s.52.51.52.51l-.07-.14.17.07c.77-.82,1.53-1.64,2.29-2.45l2-2.04c.45-.18.83-.48,1.09-.85l.12-.89c.11-.09.23-.17.35-.25l.61-.04-.09-.22h.19l-.13-.28.05.02-.03-.11.1-.12.22.08.08-.45c.11-.14.22-.25.33-.31l.03.04h0s.2.31.2.31v-.44s-.09.01-.16.04l.08-.16.69-.02c.21-.45.45-.89.73-1.3l.32-.11.1-.47c.1-.13.21-.25.3-.36l.34-.82c.16.02.31.07.45.15.16-.08.32-.19.52-.13l.4-.06.33-.32.2-.08c.06-.08.09-.14.1-.18l.32-.42.43-.26c.16-.28.35-.56.55-.82-.13.17-.26.35-.38.54l-.58.34h-.37l-.1-.13-.11.08-.06.2-.38-.16c-.01.11-.04.22-.08.32l.11.17-.24.08s-.02.03-.03.05l.02.04-.07.03s-.03.03-.04.05h-.06s-.09.02-.09.02l-.07-.06.03.08-.15.06-.04-.1-.21.07v-.12s-.15.06-.15.06l-.18-.07-.1-.13-.27-.05.08-.21-.16-.22-.16.15.15.13c-.5.56-1.1,1.19-1.76,1.84l-.67.04-.43.31.14.61h-.35s-.03.06-.03.06l-.04.36-.42.41-.85.14-.05-.07-.05.02-.02-.12-.19-.28-.1.2.45.89c-.68.69-1.34,1.37-1.94,2.04l-.34.22-.31.32s-.09.07-.12.11l-.06.06.1.03h-.12l-.24.22.15.3-.34-.14-.15.13v.19-.18s-.06.05-.06.05l-.21-.08.13.22-.09.04.02.02-.15.12-.39.11-.35-.29.15.68-.18.13h0s-.04.03-.04.03l.93.36h.01s0,0,0,0h0l.03.45-.16.35-.24.24c-.3.19-.69.22-1.02.08l-.05-.57-.5.39.08.07-.55.51.03.04-.07-.02-.06.04h0s0,0,0,0l-.1.06.08.12-.17-.05.08.29-.35-.14.04.16-.08-.17v.27-.26s-.23.25-.23.25c-.06.04-.11.09-.15.14l-.23.11.03.06-.43.6-.13.38-.34-.04-.09.13v.09s0-.09,0-.09l-.46.41h0s.27.14.27.14l.04-.31v.34l.09.04-.05-.12.14-.11.17.04ZM500.65,29.02l.71.25.07-.07-.07.03.1-.07s.07-.08.11-.11l-.03-.04-.09.05h0s-.02,0-.02,0l-.13.06.13-.07-.11-.02v.06s0-.06,0-.06l-.62-.1-.06.09ZM495.04,29.25h.02s-.02,0-.02,0ZM498.8,29.14l.03.07-.03-.07ZM495.1,29.13l.1.02-.06-.07s-.03.02-.04.04ZM501.45,29.02v.02s.1-.05.1-.05l-.21-.29.11.32ZM501.27,28.5v.02s.02-.02.02-.02h-.02ZM501.26,28.5h.02l.07-.09h0s.08-.13.08-.13l-.21.07.05.15ZM502.47,25.37c-.02.09,0,.15,0,.18l.4-.11-.4-.07ZM486.08,25.32l.13.13c.06-.05.12-.1.18-.16l-.31.03ZM502.96,24.89c-.06,0-.13.01-.21.06l.2.32.15-.36s-.09-.03-.15-.03ZM484.79,25.15s.06.05.09.08l.09-.02-.18-.05ZM483.83,24.34c.22.22.46.41.68.58,0,0,0,0,0,0h0c-.22-.18-.46-.37-.68-.59h0ZM499.71,24.44h0s0,0,0,0h.01s.06-.08.06-.08l-.09.07v.02ZM499.82,24.33l.11.04-.06-.08-.06.04ZM500.75,23.55l.11.11.32-.32.13.15.69-.22h-.06s.02-.09.02-.09l-.23-.08.09-.18-.03-.02.02.03-.18.13.02.03-.05-.02s0,0,.01,0h-.01s-.17-.06-.17-.06l.03.11s.04-.01.06-.02l-.3.13-.06-.11-.04.04v.14-.13s-.16.14-.16.14h.11s-.29.06-.29.06l.1.02-.06.06.03.05h-.08s-.03.03-.03.03ZM502.33,23.47l.17.1-.02.04h.11s-.09-.09-.09-.09v-.13s-.12-.01-.12-.01l-.05.1ZM502.16,23.35l.16.12.05-.1h-.06s-.04.05-.04.05v-.06s-.12-.01-.12-.01ZM482.77,23.32l.27.14v-.14l-.16-.11s-.02.01-.04.02l.03-.03-.17-.11-.55-.12c.07.08.13.15.2.23l.12-.02.28.14-.02.02h.01s.02-.01.02-.01ZM501.58,22.99l.04.09s.03-.02.04-.03l-.08-.06ZM501.57,22.98l.09.07s.01-.01.01-.01l-.14-.14.04.08ZM481.06,21.76c.24.26.49.53.72.79-.23-.26-.48-.53-.72-.79ZM503.59,21.59l.23.15.18-.15-.14-.62.08-.03.16.08v-.1h.09v.14l.16.09.53-.46.28-.05.12-.15-.09-.96.12.11v-.08s-.08-.08-.08-.08h.08s0-.11,0-.11c.03-.05.07-.11.09-.17l.26-.04v-.2s-.04-.06-.04-.06h.06s0-.06,0-.06l.06.09.6.14.27-.04.05.02.06-.04-.06.04h.01s.05-.03.05-.03l-.05.04.35.16-.06-.09.06-.14h-.05s.05,0,.05,0l.15-.36v-.03s0-.01,0-.01h0s.04-.04.04-.04l-.03-.06h-.12s0,0,0,0l-.97.3v.02s-.02-.01-.02-.01l-.13.04-.29-.19-.06.04-.39.44c-.17.24-.44.47-.79.76-.46.37-.87.72-.88,1.05,0,.07.01.14.04.2v.45ZM480.27,20.91c.2.22.42.46.64.7l-.08-.09c-.19-.21-.38-.41-.56-.61ZM479.51,20.03c.07.09.15.19.25.3l-.02-.94c-.08.1-.15.19-.22.29v.36ZM505.79,12.19c-3.4,1.4-7.08,3.53-11.11,6.44,2.85-2.06,5.53-3.73,8.07-5.03l.87,1.18c-1.26,1.29-2.54,2.58-3.81,3.85,2.06-2.06,4.12-4.14,6.12-6.23l-.14-.21ZM507.77,16.51l.15.2c.33-.15.67-.43.76-.7,0-.02.01-.04.01-.06l-.37.08c-.09.09-.19.17-.28.24s-.19.15-.27.23ZM512.04,15.57s0,.05,0,.08c0,.03.02.07.04.1l.07-.18-.06-.05h0-.01s0,0,0,0l-.04-.02s0,.02,0,.02h.04s-.04.04-.04.04ZM514.29,15.43l.09.09-.09-.09ZM512.1,15.51h.02s.07-.05.07-.05h-.04s-.05.05-.05.05ZM513.35,14.95c.06.09.1.18.13.28h.03s-.09-.36-.09-.36l-.07.08ZM488.22,12.64c-.59.42-1.21.84-1.83,1.27-.63.43-1.26.86-1.88,1.3.62-.44,1.25-.87,1.88-1.3.58-.4,1.21-.83,1.83-1.27ZM490.28,11.26l-.15.11h.19s-.01-.08-.04-.11ZM490.34,11.2v.16s.23,0,.23,0c.1-.07.19-.14.28-.21l-.51.05ZM491.52,10.57l-.1.09s-.09.08-.13.11c.04-.03.08-.07.12-.1l.45-.18-.34.09ZM505.42,10.17l.29.25c.24-.06.35-.13.4-.22l-.27-.21c-.16.04-.31.1-.42.19ZM497.7,7.12c-1.67.9-3.31,1.76-4.67,2.47l-.59.31.59-.31c1.3-.68,2.95-1.55,4.67-2.47ZM507.56,9.21l.21.25c.24-.08.46-.18.64-.32l-.05-.27-.12.04c-.2,0-.46.04-.68.3ZM515.22,4.91c.11.13.22.26.32.39.88,1.06,1.79,2.16,2.89,2.84l.35.56c.02.2.03.39.03.58,0-.26-.02-.52-.06-.8l-.18-.25c-1.17-.67-2.12-1.81-3.03-2.92-.11-.13-.22-.26-.33-.39ZM502.03,4.7s-.06.03-.09.05l.37-.1h-.07l-.21.05ZM504.42,3.74l-.1.08.42-.16c1.11-.06,2-.37,2.83-.71-.84.34-1.79.67-2.94.72l-.21.08ZM511.4,2.04s0,0,.01,0c.04,0,.07.01.11.02l-.1-.02s0,0-.01,0ZM501.04,43.79l-.06-.41-.18-.07-.24.24.21-.26-.22-.08-.18.06.03-.12-.1-.04.12-.02h-.12s.13-.05.13-.05l.13-.54h0s0,0,0,0l-.34-.33.33-.62.19-.09h.22s.03-.03.03-.03v.03h.26s.19.11.19.11l-.2.59h.46-.46s-.08.25-.08.25l.17.16.22-.11-.03.29.1.1.15-.05-.08.11h0s.07,0,.07,0l-.02.05.03.05h-.05s-.19.49-.19.49l.06.06-.06-.06-.02.06.03.04-.04-.02v.02s-.08-.05-.08-.05l-.02.14-.13-.2-.13.19.02.09-.03-.07-.05.08-.04-.27v.28ZM500.64,42.65l-.09.12.09-.12ZM500.87,42.33l-.05.06.05-.06ZM500.94,42.24l-.06.08.06-.08Z"/>
      </g>
      <g>
        <path class="cls-1" d="M515.34,54.55l-1.14-.63-.66-.66c-.3-.02-.5-.13-.62-.2l-.67-.39c-.29-.51-.73-.9-1.27-1.39-.68-.61-1.52-1.37-2.3-2.6l.06-.88c.92-1.09,2.52-2.18,4.12-2.81.11-.11.24-.19.39-.25.03-.03.07-.06.1-.09.03-.02.06-.04.1-.06.04-.04.08-.08.12-.12.11-.09.24-.15.38-.18.02-.02.05-.04.07-.06.06-.04.16-.1.28-.14.43-.5,1.12-.6,1.38-.64l.1.09c.04-.09.1-.18.18-.26.16-.27.45-.47.81-.47l.02.02c.07-.07.15-.14.24-.2.06-.09.14-.18.23-.24.09-.06.23-.14.43-.17.21-.21.5-.5,1.02-.59.22-.36.64-.73,1.48-.79,2.99-1.96,6.18-3.74,9.27-5.45,3.1-1.72,6.27-3.49,9.3-5.47l-.35-.58c-.12-.01-.24-.03-.38-.08h0c-.08.04-.17.08-.26.12l.23.32c-.72.72-1.42.75-1.97.78-.36.02-.67.03-1.05.21l-.23-.2-.9.3c-.06-.03-.2.05-.31.09-.33.12-.84.3-1.46.12-.99.64-2.23.9-3.44,1.14-.82.17-1.67.34-2.38.63-.12.15-.3.26-.5.29-.09.01-.18.01-.28,0-.3.15-.64.26-1.04.21-.59.47-1.83.63-2.45.41-.04-.01-.08-.03-.11-.04-3.25.69-5.95-1.37-8.34-3.2-1.03-.78-1.99-1.52-2.94-2.02l-.4-.73c.24-2.29,1.35-3.68,2.42-5.02.29-.36.58-.72.85-1.1.08-.29.29-.51.57-.61l-.03-.03c.18-.83.75-1.23,1.17-1.53.22-.16.38-.27.46-.39.05-.19.15-.36.3-.48.44-.63,1.03-1.37,1.66-2.14.56-.69,1.13-1.39,1.62-2.06-.19-.32-.23-.75-.14-1.32l.6-.62c1.82-.32,3.17-1.21,4.5-2.95.06-.21.18-.4.35-.52.01-.02.03-.03.04-.05.07-.26.24-.48.51-.67-.02.02-.1.14-.1.27l.34-.34-.02-.04c1.31-2.18,3.39-1.45,5.23-.81,1.2.41,2.43.84,3.61.67,1.35-.21,2.35-.64,3.51-1.14.67-.29,1.38-.59,2.2-.87,2.78-.39,4.99-1.08,7.34-1.81l1.42-.41c.17,0,.5.04.74.35l.11-.14c.44,0,.95.23.95,1.31l-.9.73s-.05,0-.05,0h0c-.09.05-.19.11-.31.16h0c.06,0,.13-.02.16-.03-.02.01-.06.04-.09.09-.03-.02-.05-.03-.07-.04l.02.14s-.03.11-.03.17l.07-.05.02.06s.06-.02.09-.04l.1-.04s-.04-.07-.07-.09l.6-.44c.17-.17.37-.25.47-.28-.06.02-.14.1-.2.2.07.03.14.05.2.09l.02-.02v-.13s.1,0,.15.01l.43-.35c.37.08.62.26.74.53l.82.55c0,.24-.08.45-.22.62h.01c0,.26-.1.84-1,.92l-.21-.14-.06.04.05.05-.32.23.07.17c.17-.1.25-.26.26-.38l.42.45c.05.43-.1.88-.36,1.24l.14.12c.07.4,0,.69-.13.88l.14.1c0,.19-.06.81-.88.91l-1.03-.7c0-.08.01-.24.09-.4-.05-.08-.08-.17-.11-.26-.07.02-.15.05-.27.09-.1.04-.21.08-.33.12.02.05.04.09.06.15l.13-.08c.4.3.54.58.59.85l.76.52c0,.19-.07.81-.9.91l-.21-.15-.26.4c-.06,0-.11,0-.17-.01-.06.04-.11.06-.16.08-.07.03-.16.05-.26.06-.11.17-.32.33-.68.42l-1.1-.66s0-.03,0-.05c-.04.03-.09.07-.14.1v.31l-.74.74h-.42l-.09-.09c-.18.19-.38.29-.54.34-.55.18-1.08-.04-1.53-.3-.12.06-.24.11-.38.15l.17.34c-.42.85-1.19.92-1.6.95q-.35.03-.41.18l-.94.44c-.13-.04-.2-.02-.53.18-.34.2-.86.52-1.54.36-2.07,1.16-4.53,1.91-6.91,2.64-1.6.49-3.24.99-4.71,1.61-1.85,1.87-3.14,3.57-4.05,5.38.77-.18,1.64-.5,2.55-.83,1.86-.67,3.95-1.44,5.86-1.25.93-.87,2.46-.94,3.95-1h.14c.7-.38,1.43-.4,2.13-.41.23,0,.46,0,.71-.02h.16c3.18-.22,5.93-.41,7.9,1.71,1.21,1.21,2.45,2.37,3.63,3.47.7.65,1.39,1.29,2.04,1.92l.22.67c-.74,4.13-4.26,5.96-7.36,7.57-1.06.55-2.06,1.07-2.86,1.64-3.13,2.21-6.62,4.1-9.99,5.93-2.36,1.28-4.8,2.61-7.09,4.02-1.3.8-2.67,1.49-4.12,2.21-1.6.81-3.26,1.64-4.81,2.64ZM515.28,52.63v.1s.02,0,.02,0l-.02-.1ZM515.76,52.31l-.21.33s.09-.06.13-.09c.04-.07.07-.15.08-.24ZM515.23,51.24c.39,0,.71.27.78.65.03.2-.01.43-.17.62,1.21-.7,2.45-1.32,3.65-1.92,1.42-.71,2.75-1.38,4-2.15,2.32-1.44,4.78-2.77,7.16-4.06,1.9-1.03,3.85-2.09,5.73-3.2l-.68-.64c.13-.38.42-.61.87-.67l.82.57-.45-.53c-.02-.14-.02-.27,0-.38-.16.1-.37.16-.67.16l-.31-.31c0,.2-.07.8-.88.9l-.99-.94c.11-.34.36-.56.73-.64-.2-.06-.39-.18-.53-.36l-.06-.98c.1-.16.28-.32.58-.37.14-.12.29-.17.36-.19.37-.1.78.06,1.02.4l.02.88s.1-.02.16-.03l.83.57c.06-.13.15-.26.27-.36l.17-.02-.18-.07c-.11-.25-.09-.59.15-.85.13-.25.36-.42.64-.46l.85.57.05-.08c.13-.04.28-.05.42-.02.03-.01.06-.03.1-.04.04-.06.08-.13.15-.18l-.66-.57c.09-.27.35-.72,1.13-.72l.05.05c.15-.23.34-.34.48-.39.4-.13.74.06.88.15l.25.34s.01,0,.02,0c.25-.23.59-.36,1-.36l.19.35c.1,0,.19.03.28.06l.22-.33c.09-.02.44-.09.74.2.15.07.26.17.34.3,2.41-1.3,4.66-2.79,5.31-5.5-.56-.53-1.14-1.07-1.73-1.62-1.2-1.11-2.44-2.28-3.69-3.53-1.51-1.63-3.81-1.47-6.73-1.27h-.16c-.27.03-.53.03-.78.04-.66.01-1.14.02-1.54.28l-.37.12h-.33c-1.31.07-2.67.12-3.11.75l-.73.3c-.36-.06-.74-.08-1.13-.05-.15.22-.45.42-.99.42l-.24-.24c-1.03.22-2.1.62-3.16,1-1.56.57-3,1.14-4.3,1.07l-.67-1.02c1.02-2.49,2.57-4.69,5.02-7.14l.23-.16c1.57-.67,3.31-1.2,4.99-1.72,2.02-.62,4.1-1.26,5.89-2.13l-.04-.67c-.11-.09-.2-.22-.27-.37-.12-.12-.2-.28-.23-.45l.52-.86c.2-.07.45-.05.68.1.09.01.18.04.26.07.12-.11.3-.21.55-.25l.4.27c.11-.39.41-.59.53-.67l.02.02v-.02s-.17-.1-.17-.1c0-.09,0-.18.02-.25-.04.03-.09.05-.14.06l-.26-.12s-.07-.02-.11-.03v-.02s-.61-.28-.61-.28c-.12-.28-.07-.65.22-.92-.04-.08-.07-.16-.08-.25l.52-.86c.2-.07.48-.05.72.13.05.02.1.04.15.07.23-.35.6-.54,1.1-.54l.33.42s.08-.02.12-.02l.03-.42c.21-.27.64-.5,1.08-.35.15.05.3.15.42.31.09.05.15.1.2.14l.33,1c-.05.1-.13.23-.25.35l.04.03.5-.86c-.1-.09-.18-.21-.23-.34-.07.01-.14.02-.2.03l-.59-.89c-.21.09-.44.1-.7.05h-.01s-.42.01-.42.01l-.74-.74v-.42l.43-.43c.01-.11.04-.22.09-.32-.17.03-.35.05-.52.08-.65.24-1.32.53-1.96.8-1.2.51-2.33,1-3.87,1.24-1.54.23-3.02-.28-4.32-.74-1.44-.5-2.27-.73-2.86-.44-.01.13-.06.29-.17.43-.06.3-.23.56-.48.74l-.03.05.06.05c.04.23-.03.52-.25.73-.07.11-.17.21-.28.28h-.02c-.13.15-.31.24-.51.27-.11.02-.24,0-.36-.04-.04.01-.08.02-.13.02-.98,1.2-2.37,2.45-4.55,2.98l.38.85s-.03.04-.04.06l.37.37c-.08.84-.62,1.25-.97,1.53-.02.02-.05.03-.07.05-.08.27-.26.49-.5.6-.07.14-.16.27-.31.38-.05.04-.12.08-.2.11-.03.23-.12.46-.32.64-.04.04-.09.07-.13.1,0,.07-.02.14-.04.2-.17.66-.83,1.36-1.43,1.53l-.35-.29c-.24.33-.55.55-.81.73-.09.06-.17.12-.24.17.05.22,0,.48-.17.69-.04.11-.1.21-.18.29-.03.1-.08.18-.12.23-.05.07-.1.12-.16.17-.06.12-.15.24-.3.33h0c-.11.11-.25.2-.41.24-.22.29-.45.58-.68.86-.9,1.12-1.75,2.18-2.04,3.77.9.53,1.78,1.19,2.7,1.9,2.32,1.77,4.71,3.61,7.42,2.86l.93.59c-.04-.27-.24-.41-.32-.43.17.05.64-.01.9-.1l.37-.6c.26-.08.58-.03.83.22.11.02.18-.01.41-.15.13-.15.31-.26.51-.3.1-.01.2-.01.3,0,.81-.32,1.7-.5,2.56-.67.92-.19,1.8-.37,2.5-.69l.34-.34-.54-.51s0,0,0,0l-.6-.6c0-.25.09-.55.45-.75l-.66-.66c0-.19.07-.81.9-.91l.32.22c.05-.04.11-.07.17-.11.02-.03.05-.07.08-.1.1-.28.38-.63,1.1-.63l.74.74c0,.19-.06.49-.39.7v.28s-.07.09-.11.13c-.02.06-.04.12-.07.16.19-.04.38-.05.56-.02l.28-.36-.34-.34c0-.19.07-.81.9-.91l1.01.7s0,.29-.17.52h.29s.03-.04.04-.06c-.02-.03-.04-.05-.06-.08v-.94c.14-.22.36-.34.65-.36.26-.2.61-.25.89-.17.4.12.68.45.7.82.1-.03.22-.05.36-.05.5,0,1,.04,1.42.25.7-.39,1.48-.41,2.18-.43.19,0,.38-.01.57-.02l.3.33c.09-.03.2-.06.33-.08l.96.67c.26.11.48.31.58.67l-.61.94c-.13.02-.34.02-.58.01l-.07.2c-3.98,2.97-8.36,5.4-12.58,7.75-2.98,1.66-6.05,3.37-8.93,5.24-.07.19-.21.35-.41.44-.12.05-.26.08-.38.06-.04.16-.14.34-.36.49-.29.35-.8.65-1.27.5,0,0,0,0,0,0,.04.05.08.1.12.16.26.41.27.87.02,1.21-.08.1-.25.29-.56.35-.17.2-.39.32-.66.38-.14.09-.3.15-.48.15l-.15-.16c-.05.2-.14.39-.26.54-.09.11-.2.19-.31.24v.19s.76.52.76.52c0,.22-.08.95-1.16.95l-.61-.84v.09c-.14.24-.45.51-1.13.4h0s-.32.02-.32.02l-.4-.78.12-.12c.01-.09.04-.17.06-.24-.06.02-.13.04-.19.04-.05,0-.11,0-.16,0-.03.06-.07.11-.12.16-.13.22-.36.38-.64.42l-.21-.14c-.06.21-.22.42-.5.57h0c.08-.07.16-.15.21-.25.12-.11.19-.25.21-.38h-.02s-.11.13-.11.13c0,0,0-.01,0-.02l-.35.39-.1-.19.02.23s.03,0,.05-.01l-.26.29-.33-.25c-.43.3-.81.6-1.1.89.57.78,1.15,1.31,1.72,1.81.51.46.99.89,1.38,1.45.04.01.08.03.11.04.12-.06.25-.09.38-.1l.09-.11c.2-.04.43.01.62.15.07-.07.16-.13.27-.19h0c-.08.07-.15.14-.2.24,0,0,0,0,0,0-.03.05-.05.11-.07.18.01,0,.03,0,.04,0l.1-.13s.01.01.02.02l.18-.2.1.19-.02-.23s-.03,0-.05,0l.26-.29s.04,0,.07,0ZM515.46,52.1h.3s-.01-.06-.02-.09l-.28.09ZM516.77,47.45l.05.09s.02-.04.03-.07l-.08-.02ZM514.21,47.05c.05.11.12.21.23.27l.06-.32-.29.06ZM515.09,47.16l-.02.1c.11-.09.18-.21.19-.29l-.17.19ZM515.87,47.03l.27-.05c-.08.03-.17.04-.26.05t0,0ZM514.49,46.97h.01s0,0,0,0h-.01ZM513.07,46.88l-.03.07s.03-.02.05-.03l-.02-.04ZM513.02,46.79h0s0,0,0,0h0ZM513.25,46.51l-.13.25c.06-.03.11-.07.16-.11.02-.04.03-.08.04-.12-.02,0-.05-.01-.07-.02ZM516.14,46.54l-.06.1s.04-.03.06-.05v-.05ZM515.34,45.8l.02.04.02-.02v-.07s-.03.03-.04.04ZM515.99,45.31c.07.02.13.02.18.02l.08-.13-.13-.06c-.04.05-.08.1-.13.15v.02ZM516.38,43.13l.15.11c.03-.06.06-.11.1-.17-.07,0-.16.02-.25.06ZM520.48,42.34s.12,0,.19-.03l-.24-.48.03.25s.03.13.02.26ZM520.61,40.98l.48.3c-.06-.12-.25-.27-.48-.3ZM536.22,40.19c-.08.1-.13.23-.13.36h.25l-.12-.36ZM535.42,39.78l.04.09s.02-.04.03-.06l-.07-.02ZM539.04,39.23c.01.1,0,.2-.01.3l.24-.16-.23-.14ZM537.56,39.33s.05.04.07.06l-.07-.1s0,.03,0,.04ZM534.6,39c-.08.1-.13.23-.13.36h.25l-.12-.36ZM535.04,38.72l.89.62-.41-.41c0-.06,0-.24.1-.42-.09.07-.18.12-.27.16-.1.04-.21.05-.31.05ZM536.73,38.93l.17.34c.07-.1.12-.21.12-.34h-.29ZM536.27,38.72h.01l.04-.53s-.03,0-.05.01v.52ZM536.27,38.2c-.17.05-.39.25-.39.52h.39v-.52ZM538.1,38.41l.08.15.02-.11-.1-.04ZM535.35,38.24s.03,0,.06,0c.02-.02.04-.05.07-.09l-.12.08ZM534.87,37.77c.02.16.1.31.24.4l.06-.25-.3-.15ZM537.51,37.74c0,.08,0,.16.03.24l.11-.24h-.14ZM539.09,37.94h.01s0,0,0,0c0,0,0,0-.01,0ZM538.86,37.69l-.1.23s.07-.08.09-.11l.03-.04s0-.05-.01-.08ZM537.67,37.74s0,.04.01.06l.22-.06h-.24ZM534.86,37.7s0,.03,0,.04l.06-.04h-.06ZM534.48,37.66s-.01.06-.01.08l.09-.07h-.08ZM537.73,37.3c-.06.11-.09.25-.07.41l.24-.52c-.06.03-.12.07-.17.11ZM535.32,37.3l-.05.19.16-.1s-.07-.07-.11-.09ZM535.03,37.24s-.07.09-.1.14l.18-.14s-.05,0-.08,0ZM537.91,37.08l.02.04.03-.07s-.03.02-.05.03ZM539.66,36.16c-.07.1-.12.23-.12.38h.25l-.13-.38ZM540.3,36.34s0,.07,0,.15c.02-.01.03-.03.05-.04l-.06-.11ZM544.13,35.91l.35.22c-.03-.05-.06-.1-.1-.14-.07-.04-.16-.07-.26-.08ZM543.8,35.96s0,0,0,0l.02.05v-.05ZM524.09,31.71l.25.19.04-.1c-.09-.06-.19-.1-.29-.1ZM525.16,31.82l.06.07.15-.21c-.08.03-.15.08-.21.14ZM532.09,29.98h0s.01-.01.01-.01c0,0-.01,0-.02.01ZM531.98,29.64l.04.08s.02-.04.02-.06l-.07-.02ZM532.5,29.63c.1.03.2.01.36-.03,0-.02,0-.04,0-.06l.15-.15c-.12,0-.25,0-.37-.01-.05.03-.11.06-.16.09,0,.04-.02.07-.04.11.02.02.04.03.06.05ZM530.69,27.92c-.12.09-.24.25-.24.46h.32v-.46s-.06,0-.09,0ZM531.84,28.12s-.05.04-.06.05l.14-.06s-.06,0-.08,0ZM531.21,27.4l.03.06c.04-.08.07-.17.07-.28h-.11c-.01.08,0,.16,0,.22ZM531.62,27.4s.02.01.03.02l.11-.45h-.04s0,0,0,0c0,.04,0,.23-.11.43ZM534.41,27.13s.07.02.11.03c.02-.06.03-.12.03-.19h-.22l.08.16ZM531.41,26.92c0,.08.01.15.04.22l.11-.21-.15-.02ZM531.76,26.93v.03s.03-.02.03-.02l-.03-.02ZM530.57,26.46c-.14.06-.32.25-.32.51h.32v-.51ZM531.44,26.76l.16.11v-.03s-.15-.1-.15-.1h-.02ZM533.81,26.25c-.14.07-.32.25-.32.51h.32v-.51ZM535.84,26.54c0,.07.01.15.03.21.06-.02.11-.03.17-.05l.02-.09.26.03s.06,0,.09-.01c0-.18-.08-.37-.24-.47l-.11.45-.22-.07ZM531.68,26.65v.06s.05-.06.05-.06c-.01,0-.03,0-.05,0ZM535.37,26.38s-.04.09-.05.14l.15-.1-.1-.03ZM531.66,26.4h.2s-.04-.1-.04-.1c-.05.02-.11.06-.16.1ZM513.78,21.69h.04-.04ZM513.82,21.56l.09.03.04-.04s-.03-.08-.04-.12c-.03.04-.06.09-.08.13ZM513.76,21.54h.01s.13-.12.13-.12c-.05.03-.1.08-.14.12ZM514.03,21.35s-.02.09-.02.13l.12-.13-.04-.02s-.04.01-.06.02ZM516.54,19.77v.09s.03,0,.04,0l-.04-.09ZM515.78,19.34s0,0,0,0h.02s-.02,0-.02,0ZM517.74,16.81c-.06.04-.12.1-.18.17-.05.08-.08.16-.1.23l.2-.2c.02-.07.04-.14.07-.2ZM538.41,14.85l.02.34c.07-.03.16-.08.31-.17.09-.05.18-.11.29-.17l-.02-.03h0s0-.04-.01-.06c-.09-.02-.18-.05-.26-.09l-.02-.03c-.08.08-.18.15-.32.21ZM537.63,15.1l.18.09c-.01-.07-.03-.13-.07-.19-.03.04-.07.07-.11.1ZM538.35,14.22l.17.34s.05-.07.07-.11l-.24-.22ZM536.83,14.46v.08s.01,0,.02-.01l-.02-.07ZM536.81,13.87c-.14.07-.25.21-.28.38l.23-.02-.04-.13h.11s-.02-.23-.02-.23ZM537.36,13.96l.07.06h0s-.01-.06-.02-.09c0,0,0,0,0,0l-.05.03ZM539.09,13.94s.02.01.03.01h0s-.08-.07-.08-.07c.01.02.03.04.04.06ZM537.22,13.83h0s0,0,0,0ZM547.82,13.27v.26c.1-.04.21-.15.28-.29-.03,0-.06-.02-.09-.03-.06.02-.12.04-.19.06ZM549.72,12.18l.12.36c.08-.1.13-.22.13-.36h-.25ZM537.79,11.54c-.07.13-.09.28-.06.4l.32-.32-.26-.09ZM541.29,11.87l.09.05s0-.06.01-.1c-.03.02-.07.03-.1.05ZM541.8,11.65s-.01.07-.01.11h.03l.08-.11s.05,0,.08-.01c0-.02,0-.03.01-.05-.06.02-.12.04-.18.06ZM541.13,11.56l-.15.11s.1-.03.15-.06v-.06ZM550.78,11.06l.1.2c.04-.08.07-.17.07-.28h-.02s-.03.02-.05.03c-.03.02-.07.03-.1.05ZM538.85,10.36l.25.16s.01-.03.02-.04c-.01-.01-.02-.03-.04-.04-.07-.04-.15-.06-.24-.07ZM538.52,10.4s0,0,0,0l.02.04v-.04ZM539.72,10.24s-.14.09-.17.16l.17.03v-.2ZM550.8,10.09l.07.03s.02-.06.02-.1c-.03.02-.06.05-.09.07ZM541.45,9.65s-.01,0-.02,0l.26.16v-.09c-.09-.05-.18-.07-.24-.07ZM545.36,7.99l.19.14.12-.23c-.12-.08-.28-.13-.43-.11-.02.02-.04.05-.06.07l.03.02c.05.03.1.07.15.11ZM545.88,7.89c.06.01.12.03.17.06.01,0,.03-.01.04-.02-.02-.02-.03-.03-.05-.05-.01-.01-.02-.02-.03-.03-.03,0-.06,0-.09-.01-.01.02-.03.04-.04.06ZM545.32,7.67c.16.01.31.07.45.2.01-.02.02-.04.03-.06-.16-.04-.31-.1-.44-.21-.01.02-.03.05-.05.07ZM525.95,7.67l.05.1.13-.19c-.05.01-.12.04-.18.09ZM544.79,7.75s.04,0,.07,0c0-.01.02-.03.02-.04l-.09-.02v.06ZM551.72,7.43l.04.11s.02-.08.03-.12c-.02,0-.04,0-.07.01ZM551.95,6.84l.04.02c.02-.05.02-.11.02-.17h-.11l.05.15ZM544.83,6.43l.24.38v-.15s.01-.02.02-.03c-.03-.1-.05-.19-.05-.26-.07.02-.14.04-.2.06ZM549.01,4.33s-.12.06-.22.2c-.03.05-.06.1-.07.15.07-.03.14-.06.22-.09l.2-.25s-.09-.02-.13-.02ZM514.83,51.56l.03-.04v.03s-.02.01-.03.01ZM511.99,47.47v-.03s.02,0,.03-.01l-.03.04ZM530.99,38.48l-.72-.92c.12-.47.4-.79.81-.92.13-.14.29-.22.43-.25.38-.09.8.07,1.02.41v.94c-.13.19-.31.31-.56.35-.23.26-.57.4-.99.4ZM532.21,37.48h.06s.02-.04.02-.07l-.08.07ZM531.55,36.66v.04l.18-.11s-.1.02-.18.07Z"/>
        <path class="cls-1" d="M514.99,55.21l-1.31-.75-.48-.48c-.32-.07-.54-.2-.65-.27l-.66-.38-.27-.27c-.23-.4-.6-.74-1.12-1.2-.68-.61-1.6-1.43-2.44-2.76l-.11-.45.06-.88.17-.43c.98-1.15,2.61-2.28,4.29-2.97.12-.1.26-.18.4-.25l.06-.05s.03-.02.05-.04c.04-.04.09-.08.13-.12.15-.11.31-.2.49-.26.08-.06.18-.11.27-.16.52-.5,1.19-.66,1.55-.72.27-.36.66-.59,1.09-.65.09-.11.2-.21.31-.29.15-.11.32-.19.49-.24.21-.19.51-.43.95-.57.31-.38.83-.75,1.67-.85,2.96-1.93,6.1-3.68,9.14-5.37,2-1.11,4.01-2.23,5.99-3.41l-.35-.05-.64.21h-.12s0,.01,0,.01v-.02s-.19,0-.19,0l.02.09c-.33.12-.89.31-1.58.21-1.05.6-2.26.84-3.43,1.08-.73.15-1.48.3-2.11.53-.22.2-.5.34-.8.39-.08.02-.17.03-.27.02-.25.11-.57.2-.96.21-.82.48-2.08.61-2.83.38-3.48.63-6.26-1.5-8.73-3.38-1.01-.77-1.95-1.48-2.84-1.95l-.31-.31-.4-.73-.08-.43c.26-2.51,1.49-4.05,2.58-5.41.26-.32.51-.64.76-.98.11-.3.31-.56.56-.75.3-.93.97-1.4,1.39-1.69.06-.04.17-.11.23-.17.09-.22.22-.42.39-.59.45-.64,1.02-1.35,1.63-2.09.48-.59.94-1.16,1.36-1.71-.1-.38-.11-.82-.03-1.33l.2-.41.6-.62.4-.21c1.59-.28,2.78-1.05,3.96-2.57.09-.24.23-.46.42-.63.14-.34.39-.63.73-.87l.04.05c1.63-2.62,4.3-1.68,6.07-1.06,1.11.38,2.25.77,3.26.64,1.25-.2,2.21-.61,3.32-1.08.69-.29,1.41-.6,2.26-.89,2.86-.41,5.04-1.1,7.35-1.82l1.65-.44c.3,0,.59.08.84.21h0c.7,0,1.45.39,1.65,1.46l.09-.02c.61.13.95.44,1.14.73l.68.46.33.62c0,.3-.08.6-.23.86-.06.42-.28.87-.76,1.15.02.39-.07.8-.24,1.17h0c.07.41.04.73-.04.99l.06.12c0,.59-.32,1.23-1.02,1.52-.12.62-.6,1.21-1.52,1.33h-.06s-.3.15-.3.15c-.06.03-.11.07-.18.09l-.04.02h0s-.04.01-.05.02c-.04.02-.09.03-.13.05-.19.18-.48.36-.89.46l-.56-.09-.46-.28-.6.6-.53.22h-.38c-.14.09-.3.16-.46.21-.5.16-.97.11-1.38-.02-.63,1.06-1.7,1.16-2.11,1.19h-.07s-.09.11-.09.11l-.94.44-.55.03c.1.03.23.02.29,0-.05.02-.11.06-.2.11-.36.22-.97.59-1.79.5-2.08,1.12-4.48,1.86-6.8,2.57-1.58.48-3.14.96-4.53,1.53-1.19,1.21-2.13,2.34-2.88,3.47.22-.08.45-.16.68-.25,1.86-.68,3.94-1.44,5.88-1.32,1.12-.85,2.65-.91,4.15-.97.8-.38,1.59-.4,2.29-.41.23,0,.45,0,.68-.02h.16c3.23-.23,6.28-.44,8.49,1.95,1.19,1.19,2.42,2.33,3.59,3.43.71.66,1.39,1.3,2.05,1.92l.19.31.22.67.02.36c-.8,4.49-4.65,6.49-7.75,8.09-1.06.55-2.03,1.05-2.78,1.58-3.18,2.24-6.68,4.14-10.06,5.98-2.37,1.28-4.79,2.6-7.05,4-1.35.83-2.79,1.55-4.17,2.25-1.61.81-3.24,1.63-4.75,2.6l-.76.03ZM514.65,53.33l.67.36c1.18-.74,2.41-1.38,3.62-1.99-.91.46-1.82.94-2.72,1.46l-.04-.05h0c-.07.07-.15.13-.24.18l-.27-.27-.36.46-.62-.59-.1.03.09-.04-.14-.13.71-.14-.22-.22-.63.22-.2-.3h-.03s.02-.02.02-.02l-.04-.06h-.05s0-.02,0-.02l-.2.12-.72.05.11.07c.09.06.16.1.28.1l.49.22.58.58ZM512.79,52.13l.34.2-.39-.27s.03.05.05.08ZM515.23,50.5c.56,0,1.06.3,1.33.76.87-.47,1.74-.91,2.6-1.34,1.33-.67,2.71-1.36,3.95-2.12,2.33-1.44,4.79-2.78,7.17-4.07,1.63-.89,3.29-1.78,4.91-2.72h0s-.01-.01-.01-.01l-.6-.2-.99-.94-.19-.78c.06-.18.15-.34.25-.49l-.09-.23-.06-.98.12-.45c.21-.32.52-.55.88-.65.18-.12.36-.19.49-.22.67-.17,1.41.1,1.81.69l.09.26c.03-.05.07-.1.1-.15.25-.42.68-.71,1.16-.77l.34.08c.25-.64.81-1.04,1.54-1.11.16-.14.34-.24.55-.31.72-.24,1.3.1,1.49.21l.03.03c.26-.1.55-.15.85-.15l.35.21.16-.11c.48-.12.97,0,1.34.31,0,0,.01,0,.01,0,2.18-1.22,3.76-2.48,4.37-4.36-.41-.39-.84-.79-1.27-1.19l-.12-.12c-1.2-1.12-2.46-2.29-3.71-3.54-1.29-1.39-3.32-1.25-6.15-1.06h-.16c-.26.03-.52.03-.76.04.33.14.61.38.79.67.4,0,.83.04,1.26.18.76-.32,1.54-.35,2.19-.36.23,0,.38-.01.53-.02l1.12.39.9.63c.46.22.78.6.93,1.12l-.09.6-.61.94-.51.33c-.07.01-.17.02-.28.02l-.04.05c-3.29,2.45-6.83,4.53-10.33,6.5.1.09.19.19.27.31l.13.41v.94s-.12.44-.12.44c-.2.29-.48.49-.8.59-.36.31-.82.47-1.36.47l-.58-.28-.75-1.07c-2.62,1.46-5.3,2.98-7.82,4.6-.16.27-.39.48-.68.61-.07.03-.13.05-.2.07-.09.13-.21.25-.35.36-.2.22-.45.41-.73.54.05.43-.06.87-.31,1.22-.12.16-.36.42-.76.57-.22.2-.48.34-.78.42-.11.06-.23.1-.34.14l.04.03.32.61c0,.84-.59,1.7-1.91,1.7l-.6-.31-.12-.16c-.28.11-.63.18-1.08.11l-.19.02-.73-.4-.13-.24c-.13.06-.28.1-.43.12-.14.14-.3.26-.5.36l-.08-.03-.04.04-.75.07c-.07.06-.15.11-.21.17.38.44.77.79,1.17,1.15.43.38.84.76,1.21,1.2l.13-.09c.26-.05.53-.03.78.06l.04-.04.62-.25ZM510.97,50.28c.17.16.33.3.48.44-.16-.14-.32-.29-.48-.44ZM509.44,48.5c.07.11.15.21.22.31l.09-.97c.34-.32.75-.66,1.19-.96h.51s.31-.34.31-.34h.01s.07-.08.07-.08l.69-.15-.03-.03.93-.49.05.03h.01s.57.51.57.51h0s.29-.06.29-.06l.13.12.08-.16h.01s.34.35.34.35l.12-.11h.01s-.12.12-.12.12l.72.32.06-.03-.33-.28h.04s-.09-.09-.09-.09l.25-.11-.05-.04-.84-.17.02-.29h-.08s.08,0,.08,0l.04-.56.54.44-.54-.44.25.06-.11-.14.12.14.35.09-.13-.19.23-.54.95-.28.32.8.51-.14v-.17l.33-.13c.15-.03.21-.09.25-.14l.41-.25c.19-.17.14-.33.07-.44l.02-.02h-.03s1.05-1.06,1.05-1.06l-.53.53v-.74s.23.04.23.04c.09.03.3-.07.46-.26l.23-.2h-.02s0-.03,0-.04l-.04-.33.64-.23-.11-.07c-.44.03-.73.17-.88.43l-.52.35c-.27.04-.42.18-.61.38l-.43.22-.37.3-.25.02.09.15-.6.2v.15s-.05-.13-.05-.13h-.01s0,0,0,.01l-.11.15-.72.18.03.2c-.2.03-.67.1-.92.39l-1.34.84c-.06.02-.1.05-.13.08l-.25.17c-1.4.56-2.81,1.49-3.67,2.43l-.03.38ZM515.97,46.06l-.02.04.03-.04s0,0,0,0ZM536.86,40.96l-.09.85c-.5.3-1.01.59-1.51.88,1.43-.81,2.83-1.65,4.19-2.54l-.46-.31-.1.16-.23-.14.1-.17-.46-.31.43-.3-.11-.17.24-.16.11.17.46-.32.23.14v.43s.12-.01.12-.01c.02.17.01.35-.02.52l-.08-.02v.33s-.17.12-.17.12c.48-.31.95-.63,1.41-.96.83-.59,1.84-1.12,2.91-1.67.41-.22.83-.43,1.24-.65l-.82-.21-.17.15-.35-.22v-.04s-.57.19-.57.19l-.53-.32c-.06.02-.12.06-.17.11l-.53.2-.08-.04-.08.02v-.06s-.44-.23-.44-.23l-.15-.2c-.05-.02-.1-.03-.14-.02h-.05s-.04.18-.04.18h.08v.04s-.09.01-.09.01l-.15.65-.5-.18v.77s-.4.34-.4.34l-.37.06-.12.27-.15-.08-.15.11v.34-.34s-.21.14-.21.14l.04.07-.87.25h0s-.05.1-.05.1l.14-.04-.36.44h.5l-.53.03-.17.2h0s.35.42.35.42l-.99,1.09-.11-.08ZM525.61,38.44c-1.01.58-2.01,1.17-2.99,1.77.98-.61,1.98-1.2,2.99-1.77ZM537.72,38.9l.04.04s0,.03,0,.05l.26-.19-.29.11ZM537.97,38.89l-.02.02.03-.04-.02.02ZM537.99,38.86l-.02.03.02-.03ZM538.76,38.25l.05.09.07-.3-.08-.04-.12.03h0s-.05,0-.05,0l.04.08.09-.04.08.15-.08.04ZM538.59,37.96l.04.07h.05s-.09-.07-.09-.07ZM538.79,37.99h-.01s.02,0,.02,0h0ZM538.17,37.79h.08s0-.03,0-.04l-.07.04h0ZM531.13,37.45l.18.22c.07-.03.1-.07.12-.09l.37-.27-.22-.09.22.06v-.03s-.18-.1-.18-.1l-.31.2c-.06.02-.12.05-.18.1ZM550.54,30.13l.21.71c-.5,2.07-1.82,3.48-3.34,4.56,1.64-1.17,2.95-2.63,3.39-4.81l-.1-.31c-.06-.05-.11-.1-.16-.16ZM538.25,28.59c.08.03.16.04.24.05l.56.35.35.58-.23,1.01c-2.55,1.67-5.21,3.19-7.83,4.66,3.73-2.08,7.51-4.26,10.99-6.86h.01s.53-.35.53-.35c.05,0,.09,0,.13,0l.14-.21-.12-.07-.78-.54-.7-.23c-.05,0-.11,0-.16,0-.71.02-1.37.04-1.91.34l-.69.02c-.31-.15-.72-.17-1.09-.17l-.68-.39-.51.59-.28.05-.24-.08v-.02s-.09-.04-.09-.04l-.05.03-.1-.03.02.36-.65.37h-.29l-.18-.33-.35.17-.3-.23v.13s-.27.36-.27.36l-.71.27c-.08-.01-.18-.01-.26,0l-.58-.73-.25.09.16.55.33.27-.31-.21.1.36-.24-.41.25.45.51-.14c.08,0,.17.02.25,0l.45.97.19.03-.11.14.06.12-.15.15-.07-.07-.25.32c.08-.02.15-.05.22-.08.12-.05.26-.11.43-.13l.78-.26.48.09c.38-.12.7-.13,1-.15.45-.02.85-.04,1.29-.39l.17-.64.23-.11.52.13.06-.18ZM514.5,30.3c2.22,1.68,4.51,3.24,7.21,2.66h.01s0,0,0,0c-2.7.57-5.09-1.05-7.22-2.66ZM523.48,32.96c-.12.03-.27.07-.44.09.15-.02.3-.05.44-.09ZM522.18,33.01h0s.05.02.08.02l.06-.2-.26.04c.01.06.07.1.13.13ZM524.11,32.42l-.12.2-.39.31c.14-.05.27-.11.36-.19l.53-.15s-.07-.01-.1-.02l-.28-.15h0ZM525.33,32.34c-.06.03-.12.07-.18.1l.48-.08-.02-.02h-.28ZM525.63,32.33v.02s.04-.02.04-.02h-.04ZM525.97,32.11h0s-.02.03-.02.03h.02c.37-.16.77-.28,1.18-.39-.38.1-.75.21-1.1.34h-.08ZM521.66,31.45l.6.09.36.23.04-.16h0s.12-.01.23-.03l.21-.34.41-.32c.37-.11.77-.09,1.12.08.21-.17.46-.28.73-.33.11-.01.22-.02.32-.02.82-.3,1.66-.47,2.49-.64.67-.14,1.29-.26,1.81-.43l-.47-.47-.22-.53c0-.26.06-.5.17-.72l-.16-.16-.22-.53c0-.12.01-.25.04-.37-.12.02-.25.03-.39.03l-.42-.17c-.87.22-1.8.56-2.7.88l-.36.13c-1.49.55-2.88,1.08-4.25.99l-.58-.34-.67-1.02-.07-.69c1.06-2.58,2.66-4.86,5.18-7.39l.34-.25c1.75-.76,3.5-1.29,5.19-1.81,1.81-.55,3.66-1.12,5.28-1.86-.04-.06-.08-.12-.11-.19-.18-.22-.29-.48-.34-.75l.1-.5.52-.86.4-.32c.3-.1.63-.1.93,0l-.22-.22c-.18-.45-.14-.95.1-1.36l.1-.47.52-.86.39-.32c.31-.11.65-.1.96,0,.2-.15.44-.26.7-.32l-.09-.09-.22-.53c-.31.13-.62.26-.92.39-1.19.51-2.42,1.04-4.06,1.3-1.72.26-3.28-.28-4.66-.76-.82-.29-1.58-.53-2.03-.53h-.01s-.04.08-.07.12c-.08.26-.21.5-.38.71-.01.37-.16.73-.42,1.01-.13.18-.29.33-.47.44h0c-.24.2-.53.34-.83.37-.08.01-.16.01-.25.01-1.12,1.29-2.39,2.17-3.85,2.68l.03.07v.03s.18.18.18.18l.21.6c-.11,1.07-.75,1.64-1.16,1.97-.13.28-.33.51-.57.68-.11.17-.25.31-.42.44-.09.26-.23.48-.43.67-.24.9-1.09,1.79-1.94,2.04l-.39-.08c-.16.14-.32.26-.46.36-.03.24-.12.48-.27.68-.05.11-.11.21-.18.3-.04.1-.1.19-.16.27-.06.08-.12.15-.18.21-.12.19-.27.34-.45.47-.12.1-.25.19-.39.26-.18.24-.37.47-.56.71-.77.96-1.45,1.81-1.77,2.95.77.49,1.52,1.06,2.3,1.66,2.29,1.75,4.43,3.39,6.78,2.73ZM529.45,31.26c-.31.07-.63.13-.95.2-.25.05-.49.1-.73.15.24-.05.48-.1.71-.15.32-.07.65-.13.97-.21ZM533.62,30.9l.07.3.04-.09-.11-.21ZM531.62,30.3l-.47.41c.18-.09.36-.18.52-.28l.61-.09s.02,0,.03,0c0,0,0,0,0,0l-.04-.03h-.44s-.02.05-.02.05v-.06s-.18,0-.18,0ZM549.07,28.74c.33.31.65.61.97.91-.32-.3-.64-.6-.97-.91ZM511.87,28.37c.58.38,1.16.81,1.75,1.26-.6-.46-1.18-.89-1.75-1.26ZM531.71,29.35l.09.15h0s-.09-.15-.09-.15l.08.07-.03-.13.39-.46-.07.03-.03-.04v.03s-.16.02-.16.02v-.25s-.36-.42-.36-.42v.18l-.32.32.49.46v.24s.02-.06.02-.06ZM532.62,29.02l.03.03.04-.14c-.07-.02-.11,0-.11,0l.05.12ZM531.03,28.37l.1.14c.07-.05.07-.12.07-.14h-.17ZM511.13,27.92c.08.04.15.08.23.13l-.36-.77c.28-1.53,1.03-2.63,1.82-3.64-.87,1.11-1.64,2.24-1.87,3.95l.18.33ZM531.83,27.89h0s0-.07,0-.07v.07ZM521.21,26.82l.23.36c.97-.05,2.1-.46,3.3-.9l.14-.05c-.88.32-1.69.6-2.43.78l-.83-1.06c.94-1.87,2.28-3.64,4.19-5.56l.24-.16c1.45-.61,3.06-1.11,4.62-1.58-1.61.49-3.26,1-4.76,1.64l-.11.09c-2.16,2.17-3.62,4.21-4.6,6.45ZM540.44,23.38c1.88,0,3.5.31,4.72,1.63.7.7,1.4,1.37,2.09,2.03-.7-.66-1.4-1.33-2.09-2.03-1.3-1.4-2.99-1.65-5.05-1.63.11,0,.22,0,.33,0ZM532.24,26.56l.03.06v-.02s-.03-.04-.03-.04h0ZM534.39,25.45l.21.14c.05-.06.11-.11.17-.16h-.04c-.1,0-.22.01-.34.02ZM528.35,25.13l.64.19c.06-.02.11-.04.13-.07l.56-.31c-.44.03-.88.1-1.34.2ZM530.62,24.94s.1.01.15.02l.38-.15c.08-.08.17-.16.27-.22-.07.05-.14.11-.21.17l-.58.2ZM530.08,24.92c.15,0,.3,0,.45.02-.19-.02-.39-.02-.58-.01.04,0,.09,0,.13,0ZM535.14,23.86l-.32.09.28-.06s.03-.02.04-.02ZM537,23.54c-.11,0-.21,0-.32,0,.11,0,.21,0,.32,0ZM538.15,23.48c-.1,0-.2.01-.31.02h-.17c-.09.02-.18.02-.27.03.09,0,.18,0,.27-.01h.16c.1-.02.21-.02.31-.03ZM513.82,22.37c-.09.13-.19.25-.29.37.1-.12.19-.25.29-.37h0ZM513.82,22.37h0s.02-.03.03-.04l.23-.15-.15.05s-.07.1-.11.15ZM514.58,21.5l.05.2.41-.66.28-.8c.08-.06.17-.12.27-.2l.03-.02h0s-.02.01-.03.02c-.37.26-.75.53-.87,1.07l-.25-.06.03.13.11.02-.03.23.17.03h-.17s0,.02,0,.02h0s0,0,0,0ZM515.63,20.02h0s.03-.02.04-.03c-.01,0-.03.02-.04.03ZM516.3,19.35l-.06.11c-.03.05-.07.1-.11.15.03-.04.07-.08.1-.12l.26-.03-.02-.11h-.17ZM516.48,19.35l.02.11.75-.1c.27-.19.56-.54.65-.86l.37-.65c.06-.05.09-.09.11-.21l.46-.59.48-.47s.07-.03.11-.15l.22-.34c.36-.28.59-.48.71-.78l-.09-.09-.03-.32-.08.03-.32-.73-.03.6c-.49.67-1.06,1.38-1.62,2.07-.01.01-.02.02-.03.04l.26.22s0,.01-.01.03l-.2.36-.2.2-.35-.19c-.43.53-.8,1.01-1.1,1.44l-.17.21.07-.02v-.05s0,.05,0,.05h.06s.02.17.02.17h-.05ZM516.48,19.34h.05-.05ZM516.31,19.34h.16-.16ZM518.13,17.4l.02.03s.02-.02.02-.02h-.04ZM537.22,15.29l.03.41-.41.71c.26-.13.51-.26.76-.4l.54-.08c.2.05.38.02.57-.05l-.49-.31s-.09.08-.13.11l-.14-.18-.47.35-.18-.09-.05-.48h-.03ZM541.68,15.92l-.25.28c.1-.06.2-.16.25-.28ZM539.46,15.2l-.09.31c.16-.08.34-.15.53-.16l.55-.26c.24-.28.56-.31.86-.34.38-.03.68-.08.9-.37l.37-.88c.09-.03.18-.06.26-.11l.72.02c.41.24.69.31.92.24.09-.03.17-.08.24-.15l.63-.02v-.11h.11l.31-.31.34-.62.69.33.24-.39.5.3.19-.16.52-.02.04.07.28-.1.1-.16.5-.1.1-.14h0s0,0,0,0l-.04-.03-.31-.48c-.01-.06-.04-.19-.31-.39l.09-.12-.48-.17.32-.81-.02-.03.05-.03.08-.2c.11-.03.2-.07.28-.1.16-.06.27-.1.37-.12l.88.51.04.47.17.12.12-.32-.04-.32-.3-.04h.29l-.02-.13.22.11-.22-.11-.05-.4.31.44h.01s-.28-.47-.28-.47l.25.11-.04-.33c.09-.12.15-.25.19-.38l-.6-.19-.07-.17.25-.89.3-.3h.41s-.04-.03-.04-.03h.07s.17,0,.17,0l.04-.09-.15-.27.18-.25-.1-.03h.11s.03-.04.03-.04l-.09-.06-.23-.27-.21.17-.58.07-.55.41-.03-.04-.08.22-.82-.28h-.04s0-.01,0-.01l-.32-.11.21-.09-.34-.15c0-.15.03-.3.08-.43l.26.1.1-.1-.12-.17.08.02-.17-.12c.06-.08.14-.18.26-.26v-.05c.08-.04.15-.08.21-.12l.12-.05c-.06.02-.1.04-.15.06l-.83-.71-.83.24c-.85.27-1.69.53-2.55.78l.58.41.06-.03.09.14.23.16.04.35h-.04v.2l-.27-.09-.31.12.04.12s.1,0,.14,0v-.11c.15.01.29.04.43.1h.03s.08.04.15.06l.02.04s0,0,0,0l.06-.02.55.3-.12.79.06.04-.06-.03-.06.4-.69.03-.02-.04-.6.15-.29-.29-.11.05-.66-.79.31-.24-.13-.08.14.07.48-.39-.4.15-.24-.38.11-.27s-.01-.1-.01-.15h.07s.27-.69.27-.69c-1.26.36-2.57.67-4.04.91l.77,1.06-.34.63.21.21h.28c.15.04.22.01.27,0l.9.28.59.89.28.12.17.98-.56.87s-.07.08-.1.11l-.07-.07-.28.06h.01s-.25.3-.25.3l.04.03-.68.42-.16-.15.07.13-.17.08-.11-.26-.48.26v-.52s-.06-.13-.06-.13l-.29-.02.02-.18.2.03-.06-.13h-.4l.38-.03-.25-.49.15-.11.15.08-.02-.1.06.11.43.21.45-.39.08.07.09-.06v.14l.16.14-.05-.24-.09-.05.04-.08-.16-.49-.15-.12-.15.09v.08s0-.08,0-.08l-.07.04v-.06l-.09.09h.03s-.09.06-.09.06l-.5.52-.6-.2s.02-.05.03-.08l-.05-.02-.08.07-.15-.1s-.08.05-.11.08l.06.19-.35.28-.17-.03-.1-.18-.6.19-.09-.06-.19.44.05.21.48.22-.12.26.21.12.09-.16.23.17-.03.04.17.32h-.07s.16.55.16.55l-.18.04-.08.16.18-.15.08.25.09-.05-.09.06.2.66-.34.14.14.13.06-.03-.02.07.1.09-.16.67-.12-.1ZM537.21,15.05v.19s.04-.01.04-.01l-.02-.21-.02.03ZM537.97,14.2l-.22.31.35-.27-.08-.06-.04.02ZM538.04,14.17l.08.04.03-.05s.04-.02.06-.03h.06s.09-.07.09-.07l-.31.11ZM519.77,13.39c-.02.26,0,.46.07.59l.45-.92c-.08.02-.17.04-.25.06l-.27.27ZM536.96,13.48l-.18-.24.18.24ZM539.19,13.35l.09.13.07-.17-.16.04ZM525.34,8.99c-.05.06-.06.1-.07.12l-.12.25-.2.21-.19.36c-.96,1.26-1.96,2.13-3.12,2.66,1.04-.48,1.95-1.22,2.8-2.26l.5-.27.45.02.27-.12-.02-.04.16-.19.19-.05-.11-.59.22-.25c.1-.07.16-.18.19-.3l.2-.39h-.22s.03.13.03.13l-.11-.15c-.09.11-.17.23-.25.36l-.06-.04-.02.22-.34.34-.15-.06ZM542.51,11.79h.02s-.02,0-.02,0ZM550.66,10.77h.02v-.03s-.03,0-.03,0v.02ZM525.35,8.52l.22.27c.13-.12.14-.19.14-.27h-.36ZM532.8,8.73c.45.06.91.08,1.37.02-.46.06-.92.04-1.37-.02ZM538.03,7.5s-.07.03-.11.05c-.44.19-.87.37-1.32.54.45-.17.88-.36,1.32-.54.04-.02.07-.03.11-.05ZM550.51,7.74s-.07.09-.08.16l.15-.05-.07-.11ZM526.59,7.76l.08.12.17-.26c.23-.11.47-.18.73-.2-.37.02-.69.13-.98.34ZM539.94,6.72s-.02,0-.02,0h.02ZM549.02,5.43s-.04.02-.07.03l.09.16.07-.05v-.03s-.09-.11-.09-.11ZM549.62,4.95h0s0,0,0,0c0,0,0,0,0,0Z"/>
      </g>
      <path class="cls-1" d="M514.44,15.84c-.28-.21-.49-.21-.56.21-.77.14-.07.7-.42.98-1.13-.42-2.67,2.04-3.24,3.45-.35-.77-1.06,0-1.27.63-.14-.07-.14.07-.14.21-1.27.7-2.18,1.76-3.1,2.82-.14-.07-.14.07-.21.21-.14-.07-.14.07-.14.21-.21-.07-.21.07-.21.21-.21.07-.35.14-.42.35-.14,0-.21.07-.21.21-.14,0-.21.07-.21.21-.14,0-.21.07-.21.21-.14-.07-.14.07-.21.21-.14-.07-.14.07-.14.21-.21-.07-.21.07-.21.21-.21-.07-.21.07-.21.14-.21,0-.21.14-.21.21-.21,0-.21.07-.21.21-.28.14,0,.28,0,0,.21.07.21-.07.21-.21.14.07.21-.07.21-.21.14.07.21-.07.21-.14.14,0,.14-.14.21-.21.14,0,.14-.07.14-.21.21,0,.21-.07.21-.21.21.07.21-.07.21-.21.21.07.21-.07.21-.21.21.07.21-.07.21-.21.35.07.35-.14.42-.35.14,0,.14-.14.21-.21.14,0,.14-.07.14-.21.21,0,.21-.07.21-.21.56.14.42-.42.84-.42-4.36,4.65-8.66,9.43-13.59,13.59v-.42c.14.07.21-.07.21-.21.14.07.21-.07.21-.14.28-.14-.07-.28,0,0-.21-.07-.21.07-.21.14-.21,0-.21.14-.21.21-.42.35-.92.56-.99,1.27-.21-.07-.21.07-.21.21-.21-.07-.21.07-.21.14-.21,0-.21.14-.21.21-.21,0-.21.07-.21.21-.7,1.2-1.41,2.82-3.03,3.66.07-.14.21-.35.21-.63.14.07.14-.07.21-.21.28-.07-.07-.21,0,0-.21,0-.21.14-.21.21-.35.21-.63.35-.63.85-.14-.07-.21.07-.21.21-.28.14,0,.21,0,0,.21,0,.21-.07.21-.21.14-.07.21-.21.42-.21,3.38-.84,6.62-1.34,9.5-3.24.28,0,.49.07.42.42,3.8-1.55,8.03-2.39,12.95-2.89,0,.35-.49.21-.42.63-.49.21-.85.49-1.62.42-.28.21.14.35-.35.56h-.21c0,.28.21.14.21,0,.42.49.77-.14,1.62,0-.98.21-.42.85-1.62.85,0,.21.07.49.35.42,0,.21-.14.21-.14.35h-.21c-.14-.28-.28.07,0,0v.42c-1.69.21-3.31.49-4.51,1.2-.28.14-1.06-.21-.99.21-.98.07-1.13.21-1.62.42.28.42,1.48,0,1.62-.42.28-.07,1.06.28.99-.21,2.46-.28,3.94-1.06,6.9-1.2-1.55.77-2.46.49-3.45,1.83.07-.21.35-.42,0-.63v-.14c.28,0,.35-.07.42-.21-.21-.07-.35,0-.42.21-.21,0-.07.14,0,.14-.42.42-1.06.49-1.62.21,0-.21-.35-.14-.56-.21,0,.28.35.21.56.21-.35.63-.71.35-1.62.63,0,.35.21.49.63.42-.63.35-1.76,1.9-2.67.99.35,0,.77.14.84-.21.42.14.56-.14.77-.21,0-.42-.7.07-.77.21-.35.07-.77-.07-.84.21-.21,0-.49.14-.14.21-.07.14-.21.21-.42.21-.07-.28-.42-.21-.42,0h-.63c.07.21.42.14.63.21-.56.63-2.04.42-2.46,1.2-.84-.21,0,.63,0,0,.35,0,.7,0,.63.42-.49.07-.71.49-.99.77,0-.14-.28-.14-.42-.21,0,.21.21.21.42.21-.07.28-.35.21-.63.21-.42-.63-.49.71-.77.85-.71-.56-1.69.49-1.69.56-.28.7-.56-.28-.77-.35-.21.35-.42.63-.84.77-.14.07-.35,0-.35.21-1.41.49-2.75,1.06-4.29,1.41.28.28.63.42-.21.42,0-.21-.21-.14-.21,0-1.13.28-1.62.56-2.39.77-5.21,1.83-8.8-2.96-12.18-4.43.07-.63.49-.92.42-1.62,9.5-12.39,21.12-22.67,31.82-33.86-6.83,2.67-14.08,8.17-20.28,13.59-.35.21-.71-.63-.85,0-.63-.71-1.69-1.13-2.18-2.39-.21,0-.35.21-.42.35-.92-1.13-2.82-3.03-3.24-3.66,2.32-3.31,7.25-5.84,10.77-8.66.14,0,.21.14.14.35.56-.35.98-.77,1.48-1.2,0,.21.21.14.21,0,.21,0,.07-.21,0-.21,2.68-1.41,6.76-3.52,10.14-5.49,1.2.07,1.76-.49,2.39-.99,3.03-.07,4.58-2.04,6.9-1.62,3.03.56,4.51,4.79,7.32,6.27.63,3.73-2.6,5.07-3.87,7.53h-.21c0-.21-.21-.14-.21,0ZM482.62,42.59c.14-.07.42,0,.42-.21-.14.07-.42,0-.42.21ZM485.86,42.81c-.14-.07-.21.07-.21.21-.14.07-.35.14-.42.42-.56,0,.21.77,0,0,.35.07.42-.21.42-.42.21,0,.21-.07.21-.21.21,0,.21-.07.21-.21h.21c.14-.14.28-.56,0-.63-.14.21-.21.35-.21.63-.14-.07-.21.07-.21.21ZM486.49,43.23c.28-.14-.07-.28,0,0-.63,0,.21.84,0,0ZM487.06,37.74c-.28.14.07.21,0,0,.21,0,.21-.07.21-.21.28-.14.49-.28.63-.63-.42,0-.63.21-.63.63-.14-.07-.14.07-.21.21ZM487.69,40.76c-.14,0-.21.07-.21.21-.28.14,0,.21,0,0,.21.07.21-.07.21-.21.21.07.21-.07.21-.21.35-.14.63-.42.77-.77-.49,0-.77.28-.77.77-.21,0-.21.07-.21.21ZM488.67,40.76c-.14,0-.14.07-.14.21-.35.14,0,.21,0,0,.14.07.14-.07.14-.21.21.07.21-.07.21-.21.35-.14,0-.21,0,0-.14,0-.14.07-.21.21ZM488.89,51.11c0,.14-.14.21-.21,0h.21ZM489.1,41.19h.21c.14-.14.35-.56,0-.63-.07.21-.21.35-.21.63-.28.14.07.21,0,0ZM490.5,37.74c-.14-.07-.14.07-.21.21-.14-.07-.14.07-.14.21-.21-.07-.21.07-.21.21h-.21c0,.28-1.13.77-.21.77-.21.84.63.07,0,0,0-.42.56-.28.42-.77.14,0,.14-.14.21-.21.14,0,.14-.07.14-.21.21,0,.21-.07.21-.21.35-.14.49-.35.63-.63.28-.14,0-.21,0,0-.42,0-.63.21-.63.63ZM489.31,39.78c-.14-.28-.21,0,0,0-.21.84.63,0,0,0ZM490.15,39.99c.28-.14-.07-.28,0,0-.35.07,0,.21,0,0ZM491.98,38.37c.14.71-.56.63-.84.99v-.42c.14.07.21-.07.21-.21.14.07.21-.07.21-.21.14,0,.21,0,.21-.14h.21ZM493.6,34.5c-.21.07-.42.14-.42.42-.21-.07-.21.07-.21.14-.21.14-.35.21-.42.42-.28.28-1.34.85-.77,1.2.07-.49.84-.49.77-1.2.35.07.42-.14.42-.42.14.07.21-.07.21-.14.35.07.35-.21.42-.42.28.07.35-.14.35-.42.92.07.07-.77,0,0-.14.07-.35.21-.35.42ZM491.98,10.14v.21h-.21c0-.14,0-.21.21-.21ZM491.98,37.31c-.35.14,0,.28,0,0,.14.07.14-.07.14-.21.35-.14,0-.21,0,0-.14,0-.14.07-.14.21ZM491.98,38.37v-.21c.14,0,.21-.21.35-.21,0,.21-.07.49-.35.42ZM492.55,37.74c0,.14,0,.21-.21.21,0-.14.07-.28.21-.21ZM492.55,32.03c.28-.14,0-.21,0,0-.28.14,0,.28,0,0ZM492.76,37.53c0,.14,0,.21-.21.21,0-.14.07-.28.21-.21ZM492.97,37.31c0,.14,0,.28-.21.21,0-.14,0-.21.21-.21ZM493.18,31.47c.28-.14,0-.28,0,0-.28.07,0,.21,0,0ZM494.17,44.85c-.35,0-.63.14-.77.35.42.07.77,0,.77-.35ZM494.38,29.99h-.21c-.14.21-.28.56,0,.63.14-.14.21-.35.21-.63.42.07.63-.14.63-.56.85,0,.07-.85,0,0-.28.07-.49.28-.63.56ZM494.59,46.26c.14-.07.42,0,.42-.21-.14.07-.42,0-.42.21ZM495.22,47.24c.28-.14-.07-.21,0,0-.35.14,0,.28,0,0ZM496.84,45.41c-.7.07-1.34.21-1.62.63.63-.07,1.27-.21,1.62-.63ZM496.84,31.26c-.21-.07-.21.07-.21.21-.21-.07-.21.07-.21.14-.21,0-.21.14-.21.21-.28.14-.49.35-.63.63-.77.07.07.92,0,0,.49.07.71-.14.63-.63.14.07.21-.07.21-.21.14.07.21-.07.21-.14.14,0,.14-.14.21-.21.14,0,.14-.07.21-.21.28-.14-.07-.28,0,0-.21-.07-.21.07-.21.21ZM495.36,34.5c-.28.14.07.21,0,0,.21,0,.21-.07.21-.21.35-.14,0-.28,0,0-.14-.07-.14.07-.21.21ZM495.79,47.03c.56.14.77-.07.63-.56-.56-.14-.42.42-.63.56-.28.14.07.28,0,0ZM496.63,42.17c.14,0,.35,0,.42-.21-.21.07-.42,0-.42.21ZM497.05,46.26c-.07.28-.35.35-.42.56.42.21.92-.49.42-.56ZM497.19,32.67c.35-.14,0-.28,0,0-.28.14.07.21,0,0ZM500.08,42.81c-1.05.21-2.04.49-2.89.98,1.34-.28,2.18,0,2.89-.98ZM497.4,45.2c.21,0,.42,0,.42-.14-.14,0-.42,0-.42.14ZM498.25,46.04c-.35,0-.71,0-.63.42.35,0,.56-.14.63-.42ZM498.67,29.43c-.21-.07-.21.07-.21.21-.21-.07-.21.07-.21.21-.35-.07-.42.14-.42.35-.28.14,0,.28,0,0,.21-.07.35-.14.42-.35.14,0,.21-.14.21-.21.14,0,.14-.07.21-.21.14,0,.14-.07.14-.21.35-.14,0-.28,0,0-.14-.07-.14.07-.14.21ZM498.46,44.85c.14-.07.35,0,.35-.21-.14,0-.35,0-.35.21ZM499.02,41.96c1.13.21.28-.56,0,0-.28.14.07.28,0,0ZM499.23,40.98c.14-.07.42,0,.42-.21-.14.07-.42,0-.42.21ZM499.66,43.79c-.07-.56-.84.21,0,0,.21.63,1.06-.21,0,0ZM501.28,26.76c-.14,0-.21.07-.21.21-.14,0-.21.07-.21.21-.14.07-.35.21-.42.42-.14-.07-.14.07-.14.21h-.21c-.07.42-.56.35-.63.77-.28.14,0,.28,0,0h.42v.42c-.99-.21.21.98,0,0,.21-.07.21-.42,0-.42,0-.35.56-.21.42-.77.14,0,.14-.07.14-.21.35.07.42-.14.42-.42.21.07.21-.07.21-.21.21.07.21-.07.21-.21.14.07.21-.07.21-.21.28-.07,0-.21,0,0-.21,0-.21.14-.21.21ZM499.45,41.4c.14-.07.42,0,.42-.21-.14,0-.42,0-.42.21ZM499.66,46.26c0,.07-.14.21-.21,0h.21ZM499.66,24.78c.28-.14,0-.28,0,0-.28.07,0,.21,0,0ZM499.66,44.43c.28-.14,0-.28,0,0-.28.14,0,.21,0,0ZM499.66,46.26c0-.28.28-.28.21-.63.21.14.7.49.56-.21.28,0,.49.14.63.21v.42c-.21,0-.56-.07-.63.21-.35-.35-.21,0-.77,0ZM499.87,44.85c.28-.14,0-.28,0,0-.28.07,0,.21,0,0ZM500.08,41.19c.14-.07.35,0,.35-.21-.14.07-.35,0-.35.21ZM500.29,42.17c.28-.14-.07-.21,0,0-.35.14,0,.28,0,0ZM500.29,41.61c.14-.07.35,0,.35-.21-.14,0-.35,0-.35.21ZM500.85,42.59c.28-.14,0-.21,0,0-.84-.21,0,.63,0,0ZM501.07,23.31c-.14,0-.21.14-.21.21-.14,0-.14.07-.21.21-.28.14.07.28,0,0,.21.07.21-.07.21-.21.21.07.21-.07.21-.21.21.07.21-.07.21-.14.92,0,.07-.85,0,0-.14-.07-.21.07-.21.14ZM500.64,29.22c.35-.14,0-.28,0,0-.28.14.07.21,0,0ZM500.64,44.21c.42,0,.7-.14.84-.42.84.21,0-.56,0,0-.49-.07-.77.07-.84.42ZM501.91,26.97c-.35,0-.56.14-.63.42.35,0,.49-.14.63-.42.14.07.14-.07.21-.21.28-.07-.07-.21,0,0-.21,0-.21.07-.21.21ZM501.28,44.43h.42c-.07.14-.21.21-.42.21v-.21ZM501.7,41.19c-.85-.21-.07.56,0,0,.28,0,.56,0,.56-.21,1.13.21.28-.63,0,0-.28,0-.56-.07-.56.21ZM501.7,28.23c.28-.14-.07-.28,0,0-.28.07,0,.21,0,0ZM501.7,40.13c.14,0,.35,0,.42-.14-.21,0-.42,0-.42.14ZM502.12,45.62c-.07.14-.07.28-.21.21,0-.14,0-.21.21-.21ZM502.12,23.31c.14.07.14.21.35.21.21-.7-.28-.7-.35-.21-.35.14,0,.28,0,0ZM503.32,45.06c-.21.42-.92.28-1.2.56-.07-.63.7-.49,1.2-.56ZM502.26,43.23c.21,0,.21.21.21.35.56.21.91-.63.42-.77.21.92-.49-.28-.63.42-.28.07.07.21,0,0ZM503.11,41.19c-.35,0-.7.14-.84.42.49,0,.77-.07.84-.42ZM505.15,22.95c-.21.07-.35.14-.42.35-.14,0-.21.14-.21.21-.14,0-.21.07-.21.21-.14,0-.21.07-.21.21-.14,0-.14.07-.21.21-.14-.07-.14.07-.14.21-.21-.07-.21.07-.21.21-.35-.07-.42.14-.42.35-.49-.21-.92.7-.42.84-.14-.56.42-.42.42-.84.14-.07.35-.14.42-.35.14,0,.14-.07.21-.21.14,0,.14-.07.14-.21.21,0,.21-.07.21-.21.21.07.21-.07.21-.21.21.07.21-.07.21-.21.21.07.21-.07.21-.21.35.07.35-.14.42-.35.14,0,.14-.07.21-.21,1.06-.28,1.34-1.41,2.18-1.83.14.35-.56.84,0,.98.14-.49.77-.42.63-1.2.63-.14,1.27-.35,1.2-1.2.21,0,.21-.07.21-.21.21-.07.35-.21.42-.42.14.07.21-.07.21-.21.14.07.14-.07.21-.21.28-.07-.07-.21,0,0-.21,0-.21.07-.21.21-.21,0-.21.07-.21.21h-.42c.35-.49.7-.92,1.2-1.2v.42c.35.07.42-.21.42-.42.28-.14,0-.28,0,0h-.42c.14-.63,1.55-1.06,1.06-1.62-1.69,1.9-4.51,4.43-6.48,6.69-.21-.07-.21.07-.21.21ZM502.47,39.99c.28-.07.56,0,.63-.21-.21,0-.56-.07-.63.21ZM502.9,23.52c.28-.07,0-.21,0,0-.28.14,0,.28,0,0ZM503.32,7.32c.14-.07.35,0,.42-.21-.21.07-.42,0-.42.21ZM503.53,39.78c.14-.07.35,0,.35-.21-.14,0-.35,0-.35.21ZM505.5,18.87h-.14c-.35.92-2.46,1.69-1.62,2.46,0-.21.21-.21.35-.21v.21c-.14.07-.35.14-.35.35-.35.14,0,.28,0,0,.28.07.35-.14.35-.35.28-.07.14-.21,0-.21v-.21c.28-.07.14-.21,0-.21.35-.77,1.27-.92,1.41-1.83.21.07.21-.07.21-.21.35-.14,0-.21,0,0-.14,0-.14.07-.21.21ZM503.74,43.23c.14-.07.35,0,.35-.21-.14,0-.35,0-.35.21ZM504.52,24.36c-.35-.07-.35.21-.63.21v.35h.63v-.56c.21,0,.21-.07.21-.21.84.21.07-.63,0,0-.14-.07-.21.07-.21.21ZM504.09,20.91c-.07,0-.21-.14,0-.21v.21ZM504.09,39.99c.21-.07.42-.07.42-.21-.14,0-.42,0-.42.21ZM504.52,40.34c1.34.28.42-.56,0,0-.84-.14,0,.63,0,0ZM504.94,43.44c0,.14-.28.14-.42.14,0-.14.28-.14.42-.14ZM505.36,20.49c0-.21-.07-.35-.21-.42-.07.28-.35.35-.42.63.35.07.35-.21.63-.21.07.28.21,0,0,0ZM504.94,39.36c.14-.07.42,0,.42-.21-.21.07-.42,0-.42.21ZM506.13,9.93c-.49.07-.84.21-.98.63.35-.21,1.06,0,.98-.63ZM505.15,43.02c.14-.35.63-.49,1.2-.42-.28.28-.71.35-1.2.42ZM506.35,40.34c-.49,0-.99,0-.99.42.49.07.85-.07.99-.42ZM507.19,39.78c-.77-.07-1.34,0-1.69.35.71,0,1.27-.07,1.69-.35.28-.14.99.21.99-.21.28-.14,0-.28,0,0-.28.07-1.06-.28-.99.21ZM506.77,43.02c-.07.28-.49.14-.84.21.07-.35.49-.21.84-.21ZM506.77,22.74v-.42h-.42v.42h.42ZM506.98,42.17c.63.28-.21.56-.63.42,0-.35.56-.14.63-.42ZM506.56,23.73c.42-.42.63-1.06,1.41-1.2-.28.56-.77.98-1.41,1.2ZM506.56,38.93c.14,0,.42,0,.42-.21-.21.07-.42,0-.42.21ZM507.19,18.66v.21c-.21,0-.21.07-.21.21h-.21c-.14-.28-.28,0,0,0,0,.21.21.14.21,0,.14,0,.14-.07.21-.21.21,0,.07-.21,0-.21v-.21c.28-.07-.07-.21,0,0-.28.07-.14.21,0,.21ZM507.54,42.81c0,.28-.49.21-.77.21,0-.28.49-.21.77-.21ZM507.96,39.99c-.49-.07-.84.07-.98.35.35-.07,1.2.28.98-.35ZM507.33,9.58c.56-.14.99-.28,1.27-.63.28-.14-.07-.28,0,0-.71-.14-1.06.14-1.27.63ZM508.6,15.63c-.21.56-.85.7-1.06,1.2.56-.07,1.48-.77,1.06-1.2ZM508.39,42.59c-.07.28-.49.21-.84.21.07-.28.49-.21.84-.21ZM507.96,39.14c1.06.21.21-.63,0,0-.84-.21-.07.63,0,0ZM508.18,20.7h-.21c0,.14-.14.21-.21,0,.28-.35.42-.77,1.06-.84-.07.42-.56.42-.63.84ZM508.81,41.96c-.07.28-.42.21-.63.21,0-.21.35-.14.63-.21ZM508.95,21.69c-.14,0-.21-.14-.14-.35.07-.07.21-.07.14-.21.35,0,.14.42,0,.56ZM508.95,17.88c0,.21-.35.42,0,.56.07-.21.42-.42,0-.56ZM509.58,19.29c-.14-.07-.21.07-.21.21-.28.07-.28.35-.56.35,0-.56.42-.71.77-.99v.42ZM510.22,39.99c-.21.35-.77.42-1.41.35v-.21c.63.14.71-.35,1.41-.14ZM508.95,37.53c.21-.07.42,0,.42-.21-.14.07-.35,0-.42.21ZM509.58,37.53c.21,0,.56.07.63-.21-.28.07-.56,0-.63.21ZM510.43,38.93c-.07.28-.42.21-.63.21,0-.21.35-.14.63-.21ZM510.78,39.78v.35h-.35v-.35h.35ZM511.2,37.31c-.07.28-.28.42-.63.42v-.21c.28,0,.28-.28.63-.21ZM510.99,41.96c0,.21-.21.21-.42.21.07-.21.28-.14.42-.21ZM511.84,39.78c0,.14-.28.14-.42.21,0-.21.28-.21.42-.21ZM512.05,18.45c-.14,0-.28-.14,0-.21v.21ZM512.4,15.63c-.63-.63-.28.7,0,0,.35-.14,0-.28,0,0ZM513.24,14.79c.28-.07,0-.21,0,0-.28.14,0,.28,0,0ZM514.02,16.62c-.21,0-.21-.28-.14-.56.42.07.42.28.14.56ZM514.65,15.84c0,.07-.14.21-.21,0h.21Z"/>
      <path class="cls-1" d="M549.65,5.28c-.63-.14-.63.35-1.27.21v.85c-.35-.56-.98.7-1.2-.21.21,0,.21-.07.21-.21h.63c-.07-.28-.63-.28-.63,0-.14-.07-.21.07-.21.21h-.21c0-.28-.35-.21-.42,0-.42-.14-.49.14-.77.21,0,.14.28.14.42.14,0,.28-.35.21-.42.42.07.28.49.21.77.21-.07.42.35.42.63.42.07-.42-.28-.42-.63-.42.77-.28,1.48-.56,2.46-.63-.92.56.84.56.84,0,.21.07.42.07.35.42-1.13.42-1.13.49-2.61.84.21.56.84-.07,1.2,0-.14.63-1.34.28-.77,1.2-.7-.14-.63.35-1.06,0,0-.28.35-.21.42-.42.28-.14,0-.21,0,0-.56,0-1.2-.07-1.2.42-.21-.07-.21-.21-.42-.21,0-.21-.28-.14-.42-.21-.14-.28-.21.07,0,0,0,.21.28.14.42.21v.42c-.49-.07-.84-.42-1.2,0,0,.21.28.21.56.21.07.42-.56.21-.56.56h-.63c.07.28.63.28.63,0,1.2.21,2.82-.92,4.44-.99.07.21.21.49.42.63-.56.07-.77.42-1.83.35-.21.63,1.06.84.42,1.27-.49-.14-.63-.42-.63-1.41-.28,0-.49,0-.42.35-.49-.49-.28.56-.77,0-.07.28,0,1.27.21.63.14.07.21.14.14.42-.56-.21-.49.28-.98.21.07.14.21.21.42.14-.07.35-.49.21-.85.21-.21-.77.56-.49.85-.77-.07-.28-.35-.35-.42-.63.21.07.21-.07.21-.21-.14,0-.21.07-.21.21-.28,0-.77-.07-.77.21-.28.07-.7.92-.21.99v.21h-.42c.07.28.42.21.42,0h.56c-.14.99.56-.28.63.42-.28.14,0,.28,0,0h.63c-.49.63-1.62.56-2.04.84,0,.21.28.21.56.14-.35.92-1.13.42-1.76,0,.14-.84,1.2-.56,1.62-.77-.07-.42-.92-.07-1.06-.42-.35.07.35.56-.56.42v-.21c.28-.14-.07-.21,0,0-.63-.14-.77.21-1.27.21.07.21.35.14.63.21-.07.21-.35.14-.63.21.49.85.92-.42,1.27.35-.35.35-.92.49-1.69.42,0-.21-.21-.14-.35-.21,0,.21.21.21.35.21-.28.42.07.28,0,.85.28-.07.42-.28.84-.21-.49.99-1.62.07-2.04,1.2-.99-.35-1.41.92-2.39.42-3.45,2.04-8.17,2.82-11.97,4.44-1.97,1.97-3.73,4.15-4.86,6.9,2.6.07,6.69-2.75,9.93-2.18.7-.98,2.39-.98,4.01-1.06.77-.49,1.62-.35,2.67-.42,3.1-.21,5.7-.42,7.46,1.48,1.97,1.97,3.94,3.73,5.7,5.42-.92,5.14-6.76,6.48-9.93,8.73-5.28,3.73-11.48,6.48-17.04,9.93-2.75,1.69-5.98,2.96-8.94,4.86,0-.49-.28-.77-.77-.77,0-.21.14-.28.21-.42.28-.14-.07-.21,0,0h-.63v-.21c.14.07.21-.07.21-.21h.21c-.07-.21-.21-.07-.21,0-.21,0-.21.07-.21.21-.42.07-.42-.21-.85-.21-.77-1.34-2.25-1.9-3.59-4.01.77-.92,2.32-2.04,4.01-2.67.07.28.42.21.42,0h.42c-.07.21.07.21.21.21.07.28.21,0,0,0,0-.14-.14-.21-.21-.21,0-.21.21-.14.35-.21.14.35.28,0,0,0,.07-.14.21-.14.21-.35.28,0,.35-.07.42-.21.21,0,.35-.07.42-.21h.42c.14.49.14.56,0,.98.56.35.56-1.34,0-.98-.07-.49.56-.21.56-.63h.42c.14.28.21,0,0,0,.21-.28.21-.71.63-.77.07.28.21-.07,0,0,0-.21.14-.28.35-.21.14.28.28,0,0,0,.35-.28.49-.63,1.06-.63-.21.7.49.21.56,0,.35-.14,0-.21,0,0h-.35c.07-.56.56-.77,1.2-.77.14.28.21-.07,0,0,7.04-4.65,15-8.1,21.89-13.24-.07-.28-.49-.14-.84-.14-.49-.42,1.34-.14,1.83-.21-.14-.49-1.13-.07-1.62-.21-.35-.42.14-.42.21-.85-.98.07-2.04-.07-2.82.63-.28-.35-.77-.42-1.41-.42-.56,0,.49.56-.42.42-.14-.56-2.04,0-1.41.21v.21h-1.41c-.07-.28-.56-.21-.85-.21.07.28.49.14.85.21v.21h-.63c.07.21.63.21.63,0h1.41c-.98.42-.14.14,0,.98-.98-.07-1.48.28-2.25.42-.07.49.92-.14.63.56-.7-.42-1.27.56-2.25,0,0-.14-.21-.14-.42-.14,0,.14.28.14.42.14-1.55,1.27-4.29,1.13-6.27,2.04-.07-.21-.21-.07-.21,0-.49.28-.77.49-1.41.21-.14-.28-.28,0,0,0,.14.56-1.97.84-2.04.42-4.36,1.2-7.74-3.31-11.12-5.07.28-2.75,1.97-4.08,3.24-5.91,0,.28.21.14.21,0,.14.07.14-.07.14-.21.21,0,.28-.14.21-.35.21,0,.21-.07.21-.21.28-.14,0-.28,0,0h-.21c.21-.98,1.27-1.06,1.62-1.83.35-.14,0-.28,0,0,.85-1.34,2.75-3.38,3.87-5.07-.28-.07-.56-.14-.42-1.06,2.39-.42,3.87-1.76,5.07-3.38,0,.49.14.21.42.14.07.28.21.14.21,0,.14.07.21-.07.21-.14.21-.07.07-.21,0-.21v-.42c.14,0,.21-.07.21-.21.21-.07.42-.28.35-.63.35-.07,0-.21,0,0-.14.07-.14.21-.35.21,1.69-2.82,5,.7,8.31.21,2.25-.35,3.59-1.27,5.84-2.04,3.17-.42,5.77-1.34,8.52-2.18.35,0,.14.56.42.56s.49-.07.42-.35c.21,0,.21.28.21.56ZM511.7,46.89c.28-.14,0-.28,0,0-.28.07,0,.21,0,0ZM512.76,46.26c.28-.14-.07-.28,0,0-.35.14,0,.21,0,0ZM513.74,45.41v.21h-.42c.07-.14.21-.21.42-.21ZM513.95,45.27c0,.07-.07.21-.21.14,0-.07,0-.21.21-.14ZM514.37,45.06c-.07.14-.28.14-.42.21,0-.21.14-.28.42-.21ZM514.37,21.69v.21h-.21c0-.07,0-.21.21-.21ZM514.52,21.69h-.14c0-.07.14-.21.14,0ZM514.73,44.85v.21h-.35c0-.21.14-.28.35-.21ZM514.52,46.89c.85.14.07-.63,0,0-.28.07.07.21,0,0ZM514.73,21.33c-.07,0-.21-.21,0-.21v.21ZM515.57,44.64c-.21-.07-.35,0-.42.21h-.42c.14-.42.56-.56,1.06-.63,0,.21-.21.28-.21.42ZM515.15,46.04c.28-.14,0-.21,0,0-.28.14,0,.21,0,0ZM515.15,52.1c.28-.07,0-.21,0,0-.28.14,0,.28,0,0ZM515.57,46.26c.85.21,0-.63,0,0-.28.14,0,.21,0,0ZM516.14,47.24c.21,0,.42,0,.42-.21-.14.07-.35,0-.42.21ZM516.56,44c-.07,0-.21-.14,0-.21v.21ZM516.77,43.58c0,.14,0,.28-.21.21,0-.07.07-.21.21-.21ZM517.97,44.43c-.35-.07-.63.07-.56.42h-.21v-.42h-.42c-.07.35.14.35.42.42,0,.21.21.07.21,0,.35,0,.49-.14.56-.42.77.21.35-.7,0-.63-.07-.28-.21.07,0,0-.21.28-.07.35,0,.63ZM517.82,18.09c-.14.63-.77.71-.84,1.41.49-.14,1.2-1.06.84-1.41ZM519.02,16.48h-.21c.07.28-.21.28-.21.56-.14,0-.21.07-.21.21h-.21c.07.21-.07.21-.21.21v.42c.49.07.42-.28.42-.63.21.07.21-.07.21-.21.42.14.42-.28.42-.56.21.21.42.14.42-.21.35-.35.92-.56.98-1.27-.7.07-.84.7-.98,1.27-.28-.07-.42,0-.42.21ZM525.08,9.58c0,.07,0,.21-.21.21,0-.14.07-.28.21-.21ZM525.29,9.37c0,.07,0,.21-.21.21,0-.14.07-.28.21-.21ZM525.92,8.94c-.21-.07-.21.07-.21.21-.14,0-.21.21-.42.21-.14-.56.42-.42.42-.84h.21v.42ZM525.5,9.79v.14h-.21c0-.07.07-.21.21-.14ZM525.71,9.58v.21h-.21c0-.14,0-.28.21-.21ZM525.71,32.25c0,.14-.14.21-.21,0h.21ZM528.74,25.35c.14,0,.42,0,.42-.21-.14.07-.42,0-.42.21ZM530.57,27.18c.14,0,.42,0,.42-.21-.14.07-.42,0-.42.21ZM530.78,28.58c.14,0,.42,0,.42-.21-.21.07-.42.07-.42.21ZM530.99,37.74c.35,0,.49-.14.56-.42.84.21.07-.56,0,0-.35,0-.49.14-.56.42ZM531.34,29.43c.21-.07.42,0,.42-.21-.14.07-.35,0-.42.21ZM531.76,26.97c.84.21.07-.56,0,0-1.06.28.7.77,0,0ZM532.4,28.58c1.48.28.63-.56,0,0-1.34-.21-.42.63,0,0ZM531.98,26.61c.14-.07.42-.07.42-.21-.14,0-.42,0-.42.21ZM533.81,26.97c.14,0,.42,0,.42-.21-.14.07-.42,0-.42.21ZM534.65,30.06c.28-.92,1.97-.42,2.82-.85-.92.92-1.62.28-2.82.85ZM534.79,39.57c.21-.07.42,0,.42-.21-.14.07-.35,0-.42.21ZM535.21,37.74c.84.21.07-.63,0,0-.85-.21,0,.63,0,0ZM536.06,26.61c1.06.21.21-.63,0,0-.84-.21-.07.56,0,0ZM535.85,28.02h1.41c-.07.42-.98.07-1.41.21v-.21ZM536.06,28.8c.49-.28,1.2-.35,2.04-.42-.56.35-1.2.77-2.04.42ZM536.27,38.93c.14,0,.35,0,.35-.21-.14.07-.35,0-.35.21ZM536.41,40.76c.21-.07.42,0,.42-.21-.14.07-.35,0-.42.21ZM537.26,27.81c-.21-.07-.56,0-.63-.21h.63v.21ZM536.83,14.22c-.14-.28-.21,0,0,0,.07.77.92-.07,0,0ZM537.47,15.21c.84.21,0-.56,0,0-.85-.14-.07.63,0,0ZM537.26,27.81c.14,0,.21.14,0,.21v-.21ZM537.68,39.78c.42.14.92-.56.42-.63.14-.84-.63,0,0,0-.14.21-.49.21-.42.63ZM537.89,14.22c.14-.07.35,0,.35-.21-.14.07-.35,0-.35.21ZM538.24,37.74c.35-.14,0-.28,0,0-.28.14.07.21,0,0ZM539.72,28.37c-.71-.07-.77.42-1.48.21.35-.98,4.72,0,1.48-.21ZM538.45,11.76c-.28.14.07.28,0,0,.28.07.56.07.63-.21.84.21.07-.56,0,0-.28,0-.56,0-.63.21ZM538.66,10.99c-.14-.28-.21,0,0,0,.14.28.28-.07,0,0ZM539.86,29.01c-.21.56-.56.35-.99.21.07-.21.42-.14.42-.42.14.14.28.21.56.21ZM539.09,14.01c.42.21.92-.49.42-.63-.14-.28-.28.07,0,0-.14.21-.49.21-.42.63ZM539.3,38.51c-.28.14,0,.28,0,0,.63.21.35-.49.99-.35-.21.84.63,0,0,0v-.21c-.42-.07-.49.14-.77.21-.14-.28-.28,0,0,0-.07.14-.21.21-.21.35ZM539.51,12.81c.35-.21.98-.07,1.2-.42.28-.14,0-.28,0,0-.56,0-1.2-.14-1.2.42ZM539.86,27.6c0,.21-.21.14-.35.21,0-.21.21-.14.35-.21ZM540.28,10.56c-.35,0-.49.14-.56.42.35,0,.49-.14.56-.42ZM539.72,38.93c.14,0,.35,0,.35-.21-.14.07-.35,0-.35.21ZM539.86,14.86c.28-.14.35-.42.63-.42-.21.84.63,0,0,0v-.21c-.49.07-.98.21-.63.63-.28.07.07.21,0,0ZM539.86,36.75c.21-.07.42-.07.42-.21-.14,0-.35,0-.42.21ZM540.28,13.17c-.63.63.7.35,0,0v-.14c.84.14.07-.63,0,0-.49-.07-.35.21,0,.14ZM540.49,27.39c.07.21.35.14.63.21-.07.28-.49.14-.84.21v-.63c.21,0,.21.07.21.21ZM540.28,37.74c.14-.07.42,0,.42-.21-.14.07-.42,0-.42.21ZM540.71,37.31c.42.42.84,0,.98-.42.85.21.07-.56,0,0-.49,0-.98,0-.98.42ZM541.13,10.99c-.84-.21-.07.56,0,0,.49,0,.85-.14.99-.42-.14-.07-.21-.21-.42-.21,0-.56-.84.21,0,0,.07.49-.56.21-.56.63ZM541.13,13.03c.14-.84-.63-.07,0,0,.21.56,1.06-.28,0,0ZM541.34,8.52v-.42h-.42v.42h.42ZM541.34,36.75c0-.21.14-.28.14-.42-.21-.07-.42-.35-.56,0,.21,0,.14.21,0,.42h.42ZM541.34,7.11c.14-.07.35,0,.35-.21-.14.07-.35,0-.35.21ZM541.48,8.52c.56.14.42-.42.84-.42,0,.21.28.21.42.21.14.35.21,0,0,0-.07-.49.92.14.56-.56-.49-.07-.63.28-.99.35,0-.28,0-.56-.21-.56-.07-.49-.77,0-.77.21.35.35.35-.14.77-.21.21.77-.77.28-.63.98ZM542.11,11.97c.14,0,.42,0,.42-.21-.14.07-.42,0-.42.21ZM542.32,37.31c-.28.14,0,.28,0,0,.35,0,.49-.14.63-.42.84.21,0-.56,0,0-.35,0-.56.21-.63.42ZM542.32,27.39c.14-.07.42,0,.42-.21-.14.07-.42,0-.42.21ZM542.96,36.33c-.35,0-.56.14-.63.42.35,0,.49-.21.63-.42ZM544.37,8.94h-.42c0-.21-.21-.14-.21,0-.56-.07-.99.07-1.2.42.49-.07.98-.14,1.2-.42h.21c.07.14.21.21.21.42-.42-.21-.92.49-.42.56,0-.49.84-.21.63-.99.14.07.21-.07.21-.21.85.21,0-.63,0,0-.21,0-.21.07-.21.21ZM544.15,11.41h-.84c0-.21,0-.42-.14-.42.35.63-.99.63-.21.98.14-.42.98-.14,1.2-.56ZM542.75,12.39h.42c-.07.21-.42.28-.42,0ZM543.17,37.31c.28-.14-.07-.21,0,0-.35.14,0,.28,0,0ZM543.31,6.48c.21,0,.42,0,.42-.14-.14,0-.42,0-.42.14ZM543.31,7.11c.21-.07.42,0,.42-.21-.14.07-.42,0-.42.21ZM543.73,13.38c.14,0,.42,0,.42-.21-.14.07-.42.07-.42.21ZM543.94,36.54c-.14-.35-.21,0,0,0,.14.28.28-.07,0,0ZM544.79,7.11c-.35,0-.56.14-.63.42.35,0,.49-.14.63-.42ZM544.93,10.99c-.14-.07-.21-.21-.14-.42.28-.07.49.28.14.42ZM545.77,13.03v.35h-.42v-.35h.42ZM545.77,9.37v-.21c.14-.07.42,0,.42-.21.56.07,0,.63-.42.42ZM546.97,6.13v.56c-.28-.07-.35-.28-.77-.21,0-.21.35-.14.35-.35h.42ZM546.55,8.1c1.13.28.28-.56,0,0-.28.14.07.28,0,0ZM546.55,11.2c.14,0,.28.14,0,.21v-.21ZM548.59,11.76c-.56-.07-.77.71-1.2.21,0-.35.56-.07.63-.42.28-.42.63.42.56-.35.56.42.14.56.42,1.2-.21,0-.21-.14-.42-.21v-.42ZM547.82,12.39c0,.21-.28.14-.42.21,0-.21.28-.14.42-.21ZM547.82,12.81c0,.14-.28.14-.42.21,0-.21.28-.21.42-.21ZM548.03,12.39c0-.21.28-.21.56-.21-.07.42-.28.42-.56.21ZM548.38,8.73c-.07-.42.35-.35.63-.42-.07.28-.28.42-.63.42ZM549.65,11.97c0,.21-.28.14-.42.21,0-.21.21-.14.42-.21ZM549.65,8.94v.42c-.21-.07-.28-.21-.21-.42h.21ZM549.86,8.1c-.07.21-.28.21-.42.21,0-.14.21-.14.42-.21ZM550.63,7.75c-.14-.07-.21.07-.21.21-.21-.07-.14-.28-.21-.42-.14.07-.35.14-.35.42-.63-.35.21-.85.77-.63v.42ZM550.84,8.52c.07.63-.71,1.48-1.2.84.85.14.35-.98,1.2-.84ZM550.21,9.79c.21-.07.28.14.42.14.14.77-.7.42-.42-.14ZM550.63,10.77c0,.21-.21.14-.42.21,0-.21.28-.14.42-.21ZM550.84,6.9c-.21-.07-.14-.42-.42-.42.07-.21.42-.14.42-.35.63.14-.21.42,0,.77ZM551.62,7.11c0,.21-.35.14-.56.21,0-.21.35-.14.56-.21ZM551.83,6.48c0,.28-.35.21-.56.21,0-.21.35-.14.56-.21Z"/>
    </g>
  </g>
</svg>