<?xml version="1.0" encoding="UTF-8"?>
<svg id="Layer_2" data-name="Layer 2" xmlns="http://www.w3.org/2000/svg" viewBox="0 0 150.51 55.55">
  <g id="Layer_1-2" data-name="Layer 1">
    <g>
      <polygon points="80.59 0 80.59 41.67 94.13 41.67 94.54 41.67 94.54 0 80.59 0"/>
      <g>
        <polygon points="136.68 0 136.68 41.67 122.69 41.67 122.69 0 116.17 0 115.76 0 109.24 0 109.24 41.67 95.37 41.67 95.37 55.55 108.91 55.55 136.96 55.55 150.51 55.55 150.51 0 136.68 0"/>
        <path d="M0,0h55.55v13.95h13.82v13.82h-13.82v6.98h13.82v20.8H0V0ZM55.55,13.95H13.82v6.85h41.73v-6.85ZM55.55,34.75H13.82v6.98h41.73v-6.98Z"/>
      </g>
    </g>
  </g>
</svg>