<?xml version="1.0" encoding="UTF-8"?>
<svg id="Layer_2" data-name="Layer 2" xmlns="http://www.w3.org/2000/svg" viewBox="0 0 190.33 87.88">
  <defs>
    <style>
      .cls-1 {
        fill: #fcfcfc;
      }

      .cls-1, .cls-2, .cls-3 {
        stroke: #fff;
        stroke-miterlimit: 10;
      }

      .cls-3 {
        fill: #fff;
      }
    </style>
  </defs>
  <g id="Layer_1-2" data-name="Layer 1">
    <g>
      <polygon class="cls-2" points="81.09 .5 81.09 42.17 94.63 42.17 95.04 42.17 95.04 .5 81.09 .5"/>
      <g>
        <polygon class="cls-2" points="137.18 .5 137.18 42.17 123.19 42.17 123.19 .5 116.67 .5 116.26 .5 109.74 .5 109.74 42.17 95.87 42.17 95.87 56.05 109.41 56.05 137.46 56.05 151.01 56.05 151.01 .5 137.18 .5"/>
        <path class="cls-2" d="M.5.5h55.55v13.95h13.82v13.82h-13.82v6.98h13.82v20.8H.5V.5ZM56.05,14.45H14.32v6.85h41.73v-6.85ZM56.05,35.25H14.32v6.98h41.73v-6.98Z"/>
      </g>
    </g>
    <g>
      <g>
        <path class="cls-1" d="M125.7,85.38c-2.65,0-4.86-1.57-6.72-2.88-.94-.67-1.83-1.3-2.67-1.66l-.41-.71c.04-.36.16-.63.26-.84.11-.23.15-.33.13-.51l.14-.49c6.16-8.03,13.37-15.2,20.35-22.14,2.18-2.17,4.41-4.39,6.61-6.63-4.48,2.3-9.52,5.91-15.29,10.96-.63.39-1.12.04-1.27-.07h0s.19.06.4-.02c.21-.08.3-.24.31-.29l-1.18.32c-.16-.18-.37-.34-.58-.51-.44-.35-.98-.78-1.36-1.47l-.49.07c-.39-.48-.97-1.11-1.52-1.7-.68-.74-1.27-1.37-1.51-1.73v-.78c1.53-2.16,4.14-3.95,6.66-5.67,1.23-.84,2.4-1.64,3.44-2.48l.43-.15.21.11c.17-.14.33-.28.5-.43l.15-.13c.11-.3.35-.45.62-.5l.86-.45c2.38-1.25,5.65-2.96,8.38-4.55l.39-.09c.72.04,1.09-.24,1.57-.63l.18-.14.41-.14c1.22-.03,2.16-.43,3.07-.82,1.05-.45,2.12-.9,3.45-.67,1.81.34,3.04,1.82,4.22,3.25.84,1.02,1.71,2.07,2.74,2.61l.36.49c.45,2.64-.95,4.16-2.18,5.51-.57.63-1.12,1.22-1.46,1.89l-.56.34c-.05.17-.15.35-.35.55l-.33.14c-.05.11-.14.21-.25.31l-.67.11c-.09-.03-.29.09-.54.33l.17.13v.2l-.25.25c.07-.11.12-.25.1-.42,0-.05-.02-.09-.03-.14-.13.13-.27.28-.41.47l.08.31s.06-.02.09-.04l-.25.25c-.09,0-.18-.01-.27-.04-.29.43-.57.94-.79,1.5l-1.07.03s.04.07.06.11c.04,0,.11,0,.15-.03-.02.01-.07.06-.11.12.14.46-.15.93-.34,1.11l-.49.2-.25-.13c-.1.07-.19.14-.28.21l.24.32c-.32.63-.85,1.12-1.53,1.39l-1.6,1.71c-3.37,3.61-6.85,7.34-10.71,10.62-.04.14-.13.28-.28.39-.01.01-.03.02-.05.03-.04.05-.1.1-.15.14-.04.06-.09.11-.14.15-.06.15-.15.28-.26.38-.14.5-.58.71-.79.81-.05.02-.12.06-.14.08l-.17-.06-.04.07c-.22.4-.47.84-.77,1.27,2.17-.52,4.22-1.09,6.07-2.31l.38-.11c.12,0,.45,0,.73.21,3.19-1.22,6.89-2.01,11.57-2.48l.76.68c0,.08,0,.16-.03.24l.2.32c-.14.57-.61.91-1.25.91l-.08-.08-.03.02.65.66s-.01.05-.02.08c.15-.09.37-.15.66-.15l.69.69c0,.23-.1.65-.75.81l-.44-.27-.14.14.17.65c-.13.06-.25.12-.37.17l.75.52c0,.21-.08.88-1.08.88l-.65-.9c.02-.06.04-.12.07-.17-.05.02-.1.03-.15.05-.15.05-.29.09-.41.13l.18.18c-.05.2-.16.42-.41.57v.02c-.14.63-.73.72-1.1.72-.23.17-.52.2-.75.2h0c-.27.17-.6.17-.74.17h0c-.07,0-.13,0-.2,0l-.27-.27s-.08.02-.12.03c-.08.25-.32.58-1.04.58h0c-.24.18-.52.38-.83.51l.34.48c-.26.52-.78.63-1.09.69-.03,0-.07.01-.11.02-.07.13-.19.27-.39.34l-.64-.04-.08-.13-.4.4h-.25c.1-.02.28-.14.33-.32l-1.12.33c.1.05.34.07.51-.03-.16.1-.36.19-.67.21l-.08.1c-.08.02-.17.01-.26,0-.04.04-.09.1-.15.17-.04.05-.08.09-.12.14-.17.36-.5.56-1.06.52-.1.28-.23.56-.53.71l-.74-.08c-.12-.02-.39.17-.53.32-.2.44-.51.56-.73.58-.24.03-.44-.06-.59-.18-.16.12-.34.23-.56.3-.04.03-.14.05-.22.06l-.1.13c-.33.11-.65.23-.97.35-.72.27-1.46.54-2.26.76,0,.03-.02.06-.03.1-.14.37-.47.48-.79.51-.09.06-.2.11-.31.12-.13.02-.27,0-.4-.04-.39.11-.68.22-.96.32-.3.11-.58.21-.9.3-.81.29-1.59.41-2.33.41ZM117.42,79.85c.78.41,1.55.96,2.36,1.53,2.34,1.66,4.75,3.37,7.84,2.28.34-.09.58-.18.84-.28.33-.12.69-.25,1.18-.39.14-.13.33-.21.54-.21l.05.02.08-.27c1.02-.23,1.94-.57,2.9-.92.24-.09.49-.18.74-.27.11-.13.29-.24.56-.28.18-.06.27-.15.43-.43l.55-.2-.19-.12c-.06-.23,0-.52.22-.73l-.69-.48c0-.06,0-.16.05-.28-.17.02-.36.02-.58-.02l-.46-1.06c.26-.4.74-.63,1.29-.63l.69.69c0,.18-.04.34-.12.49h.02c.46-.45,1.16-.58,1.81-.65l.03.06c.09-.13.23-.25.46-.32l-.44-1.14c.43-.25.91-.46,1.47-.64l-.17-.08c-.11-.27-.05-.63.23-.87.07-.08.14-.16.23-.22,0-.01,0-.03.01-.05l-.23-.16c0-.12.03-.46.34-.67-.17.07-.34.13-.5.2l-.43-.35c-2.26,1.44-4.67,2-7.22,2.6-.53.12-1.06.25-1.6.38-.08.15-.2.25-.33.32-.11.11-.25.19-.42.21l-.25-.15c-.06.23-.19.37-.32.46l-.91-.06s-.01,0-.02-.01c-.06.1-.14.18-.22.23l-.9-.04c-.3-.23-.44-.63-.32-.97.05-.16.17-.32.35-.43.09-.13.2-.23.3-.29.06-.12.15-.22.25-.29.03-.04.06-.07.09-.1.06-.2.15-.35.25-.49l.74-.29c.06.01.11.03.17.06-.06-.21-.04-.48.17-.71.05-.12.13-.22.23-.29.04-.07.09-.12.14-.17.15-.5.55-.84,1.1-.91,0-.39.31-.67.48-.81.05-.04.1-.08.14-.12,0,0-.09.11-.09.31l.21-.21c.02-.17.1-.38.31-.54.05-.08.11-.15.2-.21.02-.02.03-.05.06-.07.12-.4.41-.67.82-.78.04-.04.09-.07.15-.09.06-.49.52-.84.86-1.1.04-.03.08-.06.12-.09.1-.19.24-.31.37-.41.06-.12.15-.2.22-.25.01,0,.03-.02.04-.03.1-.15.24-.25.36-.32.07-.11.16-.22.27-.31.17-.4.53-.58.87-.56.12.01.23.04.33.1-.05-.1-.09-.21-.1-.33-.03-.34.15-.7.54-.87.13-.17.28-.32.45-.45.08-.15.21-.27.37-.35l.04-.08s.01,0,.02-.01c.05-.06.1-.13.18-.18h.01c.05-.08.11-.14.18-.2.02-.01.03-.02.05-.04.09-.1.2-.17.32-.21l.1.04c.02-.13.07-.26.16-.38.07-.23.19-.38.3-.47.06-.05.14-.1.24-.14.04-.04.08-.08.13-.12,0,0,0,0,.01,0,.04-.07.1-.13.18-.19.05-.08.12-.16.21-.22.09-.1.2-.18.34-.22.03-.07.08-.14.14-.2.14-.29.38-.44.51-.53.06-.04-.01.05-.02.11l.21-.18c.04-.17.13-.36.34-.5h0c.08-.1.17-.18.26-.24.06-.11.14-.2.25-.27.05-.07.11-.13.18-.19.14-.21.37-.34.65-.36l.09-.1c.07,0,.15,0,.23.01,0,0,0,0,0-.01-.09-.42.09-.89.45-1.18.1-.08.21-.14.32-.18,0,0,0-.01.01-.02h-.02s-.09.05-.09.05c-.12,0-.23-.02-.32-.05h-.02c-.16-.07-.27-.17-.34-.23l-.06-.04h0s-.01.01-.02.02c-.05.06-.1.13-.18.18,0,0,0,0-.01,0-.05.07-.1.13-.18.19-.02.01-.03.02-.05.03-.09.1-.2.17-.32.21l-.24-.11s-.05,0-.07-.01c.08.3-.03.7-.47.91h0c.07-.06.14-.14.19-.23.12-.11.19-.25.19-.38l-.12.15s0-.01,0-.02l-.32.36-.09-.18.02.21s.03,0,.04,0l-.24.27-.78-.6c-.03-.21.03-.47.23-.65.12-.2.3-.33.54-.37l.17.1c-.05-.23.02-.51.24-.71.07-.11.14-.2.23-.26.06-.08.12-.14.2-.2.04-.05.09-.1.14-.14.18-.36.52-.52.82-.5.2.01.37.09.51.21l.79.17s.11.12.16.21c.24.05.45.22.53.45,0,0,.01,0,.02-.01.06-.09.15-.17.24-.23.05-.07.12-.12.19-.17.09-.12.19-.21.29-.27.05-.1.12-.19.23-.27.05-.04.13-.08.22-.11.56-.63,1.18-1.27,1.81-1.91-.03,0-.07,0-.1,0l-.3-.15c-.17-.04-.32-.12-.43-.24-.04.09-.09.17-.14.25.1.16.16.35.17.56l.1.09-.6.78c-.08.01-.16.01-.24,0-.09.04-.19.08-.31.09-.03.11-.1.22-.19.32-.07.2-.19.34-.3.42-.05.04-.14.1-.24.13-.11.1-.25.16-.41.18l-.8-.54c-.04-.16-.03-.33.05-.5-.09-.19-.12-.37-.11-.51.02-.63.54-1.06,1.05-1.48.24-.2.61-.5.67-.67l.19-.13c.08-.16.17-.28.3-.36.12-.14.3-.23.49-.26l.59.39c.06-.13.17-.25.32-.34l.02-.06h.16s.07-.04.11-.05v.02s.58-.05.58-.05l.37.72-.04.04c.03.08.04.17.04.26l-.3.28s0,.02,0,.03l.04.02c.13-.13.26-.25.38-.38-.03-.05-.06-.11-.08-.16-.12-.36.04-.65.12-.78,0-.01-.02-.03-.02.14l.9-.65c.14.05.25.11.34.18.6-.6,1.14-1.16,1.6-1.67h.02c0-.3.15-.56.4-.69.12-.06.32-.13.56-.06h.04c.05-.22.2-.43.48-.57h0c-.07.06-.14.14-.19.23-.12.11-.19.25-.19.38l.12-.15s0,.01,0,.02l.32-.36.09.18-.02-.21s-.03,0-.04,0l.24-.27c.38-.02.72.23.78.6.02.11,0,.23-.03.35.08,0,.17,0,.27.02.04-.01.09-.02.14-.02.4-.62.9-1.16,1.39-1.69,1.11-1.2,2.07-2.25,1.88-4.03-1.12-.68-1.99-1.74-2.84-2.77-1.08-1.3-2.1-2.53-3.42-2.78-.91-.16-1.68.16-2.66.58-.93.4-1.98.84-3.34.92-.52.42-1.16.93-2.28.93h0c-2.72,1.58-5.91,3.25-8.26,4.48l-.64.33c-.1.32-.38.56-.73.57-.34.3-.69.61-1.12.88l-.27-.21c-1.04.81-2.2,1.61-3.32,2.38-2.25,1.54-4.58,3.13-6,4.92.28.32.68.76,1.08,1.19.39.42.79.85,1.13,1.24.1-.03.2-.05.31-.05l.64.44c.24.62.68.97,1.14,1.34.09.07.19.15.27.22.25-.04.45.05.59.14,7.14-6.24,13.28-10.33,18.65-12.44l.75,1.11c-3,3.14-6.12,6.24-9.14,9.25-6.89,6.85-14.01,13.94-20.08,21.82-.02.39-.15.69-.25.91ZM129.93,83.07h0s0,0,0,0c0,0,0,0,0,0ZM135.11,81.9l-.36.51c.17-.05.36-.26.36-.51ZM138.06,80.47c.05.03.12.05.21.06l-.19-.09-.02.02ZM135.53,79.84c0,.07,0,.14,0,.21l.16-.36-.06-.04.06-.1s-.07.05-.1.08h0s0,0-.01.02c-.1.1-.16.24-.16.36l.11-.17ZM142.49,78.87v.33h0v-.33ZM142.49,78.87v.33c.12,0,.25-.08.35-.19l-.35-.14ZM135.27,78.7c-.02.06-.04.13-.04.2h.2l-.11-.22s-.03.02-.05.02ZM138.52,78.12v.11s.06,0,.09-.01c.04-.04.08-.07.12-.1h-.22ZM138.13,77.48c-.14.08-.3.26-.3.51h.3v-.51ZM134.51,77.62c-.03.05-.05.11-.05.17h.02l.03-.17ZM138.82,77.6h.19l-.11-.23s-.07,0-.1.01c-.02.05-.04.1-.05.15l.07.07ZM145.1,76.97v.18c.11-.06.24-.19.28-.38v-.02c-.09.05-.18.14-.28.22ZM128.25,76.72l-.21.27c.06,0,.18-.04.28-.13l-.03-.05s.08-.03.12-.05c.02-.03.04-.07.06-.11,0-.01,0-.03.01-.04l-.09-.06-.12.15.03.1-.04-.08ZM126.35,76.36c-.11.14-.14.29-.13.36l.28-.32-.16-.04ZM129.43,76.45l-.02.03.02-.02h0ZM141.49,76.13v.02s.02-.01.03-.02h0,0s0,0,0,0c0,0-.01,0-.02-.01h0l-.03-.03v.04s-.02.02-.02.02c0,0,.01,0,.02,0ZM150.89,75.52l.04.08s.02-.04.02-.06l-.07-.02ZM148.73,75.32l.03.14s.02-.09.02-.14h-.05ZM139.47,75.05c0,.14.04.27.1.37l.04-.21-.08.03-.06-.2ZM141.42,75.32h.03s-.01,0-.02-.01c0,0,0,0-.01,0h0ZM127.35,75.25s-.03.04-.03.07l.1-.04-.04-.04s-.02,0-.03,0ZM139.07,74.85c-.1.14-.14.31-.1.44l.32-.34-.21-.11ZM128.39,74.66c.12.11.22.25.26.42,0,.02.01.05.02.07.05-.08.11-.15.17-.22l-.45-.27ZM150.11,74.81c-.06.08-.11.19-.11.32h.3v-.38c-.06.02-.13.05-.19.07ZM143.84,74.25s.04,0,.06,0c0-.01-.02-.02-.03-.03l-.06-.52s-.05.04-.08.06c.08.14.12.31.1.48h0ZM128.47,74.02s0,.02,0,.03l.05-.03h-.04ZM139.6,73.76c-.04.07-.07.16-.07.26h.04s.07-.07.11-.1l-.08-.16ZM131.68,73.8l-.11.18s.1-.04.16-.08l-.04-.09c.08-.03.15-.07.21-.12.03-.06.06-.14.07-.22l-.29.33h0s0,0,0,0ZM140.69,73.57l.55.38c.12-.13.26-.22.45-.25l-.27-.27c0-.17.05-.5.4-.68-.66.19-1.29.4-1.91.63.02,0,.04,0,.06,0l.41.29c.09-.04.19-.07.31-.09ZM128.66,73.83s0,.02,0,.03l.02-.03h-.02ZM128.76,73.83h0s0,0,0,0h0ZM151.48,73.3v.47c.13-.06.3-.23.3-.47h-.3ZM128.7,73.71l.03.05.05-.07v-.03s-.04,0-.05.01c0,.01-.01.02-.02.03ZM143.44,73.46s.03.02.04.03c0,0,0-.01,0-.02h-.05ZM144.76,73.3l-.02.11.15-.11s0,0,0,0h-.13ZM138.05,72.97s0,.15.09.27c.09.12.2.16.24.16v-.17s-.33-.26-.33-.26ZM142.1,72.77c-.07.04-.16.11-.22.22l.22.11v-.34ZM143.51,72.64l.13.16-.1-.2s-.02.03-.03.04ZM142.68,72.51c-.15.04-.29.08-.44.12.08,0,.16-.01.25-.01.05-.04.12-.08.19-.11ZM131.36,72.53l.05.05s.02-.04.03-.05h-.08s0,0,0,0ZM144.81,72.52h.19l-.13-.26c-.04.07-.07.16-.07.25h0ZM143.23,72.42s.07,0,.11,0l.04.05c.15-.14.38-.25.74-.25l.23.23s.07-.01.1-.02c.05-.15.15-.32.35-.43-.63.13-1.24.27-1.83.43.08-.01.16-.02.25-.02ZM145.28,71.91l.67.46-.04-.04c0-.11.02-.37.22-.58-.29.05-.57.1-.85.16ZM146.57,71.68c-.12.07-.27.23-.27.46h.3v-.46h-.03ZM146.92,71.62l.38.26c.08-.03.17-.06.28-.07.09-.07.19-.12.29-.15,0,0,0,.01,0,.01l.02-.02s.09-.02.14-.03c0-.04,0-.08,0-.11l.03-.03s-.02.01-.03.02c0-.02,0-.03,0-.05-.38.05-.75.11-1.11.17ZM148.15,71.62c.06,0,.13,0,.19.02v-.02s-.08-.2-.08-.2c-.03,0-.07,0-.1.01-.02,0-.05.02-.07.03-.02.05-.04.1-.05.16.04,0,.08,0,.11,0ZM134.54,69.43h.05c.31-.26.62-.54.93-.82,0,0,0,0,0,0-.02-.04-.03-.08-.04-.12-.06.1-.13.18-.22.25-.03.03-.08.06-.14.09-.14.24-.31.36-.48.42-.02.06-.05.12-.09.18ZM133.36,68.75s-.01.03-.01.05l.07-.05h-.05ZM135.58,68.41s0,.02.01.04l.05-.07s-.04.03-.06.04ZM135.92,68.08s0,0,0,0h.03s-.02-.02-.02-.02c0,0,0,0,0,0ZM135.92,68.07h.02s-.02,0-.02,0ZM135.75,68.03s0,.02,0,.03l.02-.03h-.02ZM136.02,67.62s0,.02,0,.03l.03-.05-.03.02ZM135.93,67.33s.04.08.05.11c.02-.02.04-.04.07-.06-.04-.01-.08-.03-.12-.05ZM136.65,67.34l.15.1c.17-.16.34-.32.5-.48l-.09-.03s0-.02-.01-.02c-.05.03-.12.06-.19.08-.09.18-.23.29-.36.36ZM134.73,67.4h0s.26-.25.26-.25c-.05.01-.19.1-.27.25ZM138.52,66.71l-.18.28s.09-.06.12-.09c.03-.06.05-.12.05-.19ZM137.56,66.54s0,.01-.01.02l.08-.02h-.06ZM136.01,66.12c-.15.09-.24.24-.25.33l.3-.3-.05-.03ZM138.07,65.79l.25.16c.6-.59,1.19-1.19,1.77-1.79-.09-.03-.17-.07-.26-.12-.02.01-.03.02-.05.04-.05.07-.11.13-.16.17-.06.08-.13.15-.22.21-.1.14-.23.24-.35.31-.11.16-.27.27-.47.31-.03.15-.11.29-.24.41-.08.13-.17.23-.27.3ZM136.43,65.75s-.02.02-.03.04l.04-.04h0ZM138.06,65.53h.01s.03-.07.03-.1h0s0,.07,0,.1c.03-.01.05-.02.07-.03.06-.07.1-.15.12-.21l.08.04c.06-.09.1-.18.12-.28l-.12-.07-.24.23.11.05-.2.15.03.02-.02.02.02.09ZM137.98,65.48l.07.05-.03-.07-.03.02ZM138,65.43h0,0s0,0,0,0ZM140.39,63.72l-.13.1s.1-.02.18-.08l-.05-.02h0ZM141.71,63.52l-.18.28s.09-.06.12-.09c.03-.06.05-.12.05-.19ZM139.75,63.74h.04s0-.02,0-.03l-.04.03ZM142.36,62.95l-.09.15s.09-.03.14-.06l-.05-.09ZM142.41,62.86l-.05.08c.1-.04.19-.1.25-.17.03-.06.04-.13.05-.2l-.26.29ZM139.18,62.71s-.04.02-.07.04l.07-.04ZM141.38,62.68l.05.03-.05-.03s0,0,0,0ZM141.57,62.57s0,0,0,0h.03s-.04,0-.04,0ZM139.76,62.25l.03.05.05-.05v-.02s-.05,0-.08.02ZM141.34,60.87s0,.01,0,.02l.03-.02h-.03ZM141.23,60.82s0,.04,0,.05l.05-.07s-.03,0-.05.01ZM141.35,60.65s0,.04-.01.06l.07-.09s-.04.02-.06.03ZM141.38,60.55s0,.03-.01.04c.03,0,.05,0,.08,0l.03-.05-.02-.05s-.06.04-.08.06ZM141.74,60.21c-.09.02-.2.1-.28.21.05-.01.09-.02.14-.03l.14-.18ZM143.48,59.78l-.35.23c.11.05.23.03.31-.02.02-.03.04-.05.06-.08,0-.02,0-.05,0-.1,0-.01,0-.02,0-.03ZM139.65,59.25s.01.05.02.08l.26-.08h-.28ZM140.56,59.25h.22s0-.02,0-.03l-.21.03ZM139.72,58.82c-.04.07-.06.14-.08.23l.19-.31s-.08.05-.12.08ZM140.07,58.66l.02.09v-.09s-.01,0-.02,0ZM124.85,58.38v.06c.13,0,.22-.06.25-.09l-.25.03ZM140.56,57.99c-.1.14-.14.31-.1.44l.35-.32-.13-.04h.02s-.05-.04-.05-.04c0,.01,0,.03,0,.04h0s0-.03,0-.05l-.07-.04ZM143.53,58.07h.13s0,0,.01,0h0s.04-.05.07-.07l-.22.07s0,0,0,.01ZM140.83,57.88s0,.02,0,.03l.04-.03h-.04ZM144.32,57.8v.02l.03-.03s-.02,0-.03,0ZM140.88,57.76h0s0,0,0,0c0,0,0,0,0,0ZM142.82,57.62v.08l.09-.12s-.06.03-.09.04ZM142.95,57.56v.02s.03-.03.03-.03h-.03ZM142.91,57.47l.03.07.08-.1s-.02,0-.03-.01c-.03.01-.05.03-.08.05ZM143.02,57.41s0,0,.01.01v-.02s0,0-.01,0ZM141.52,57.24v.02l.05-.05s-.02,0-.03,0c0,0,0,.01-.01.02ZM141.71,57.06s-.08.04-.12.09h.04s.09-.09.09-.09ZM144.32,56.38h.08v-.03s-.08.03-.08.03ZM149.24,56.24h.03s.05-.07.06-.11c0,0,0,0,0,0l-.1.11ZM145.84,54.86l.32.25c-.03-.11-.12-.23-.26-.32-.02.02-.04.05-.06.07ZM146.2,54.31s.02.03.03.04l-.02-.06s0,0-.01.01ZM147.66,54.01h0s0,0,0-.01h-.01ZM145.28,53.61l.09.04-.09-.04ZM145.14,53.54h.01s-.01,0-.01,0ZM145,53.47l.12.06-.12-.06ZM148.35,53.23s.04.08.06.12c.02-.02.05-.05.07-.07l-.13-.04ZM145.81,53.12v.02h.02s-.01-.02-.02-.02ZM151.73,52.7l.42.33c-.08-.18-.24-.3-.42-.33ZM152.17,51s.03.07.04.1c.04-.05.08-.1.1-.16l-.14.06ZM152.35,50.92l.12.05s0-.01.01-.02c.03-.04.06-.08.1-.12l-.23.09ZM152.15,50.85l.17.07c.04-.1.04-.19.03-.27-.01-.05-.03-.09-.07-.14l-.16.16h.03s.01.18.01.18ZM152.9,50.5v.02s0,0,0,0v-.02ZM153.34,50.2h0s0,0,0,0ZM152.21,50s0,.02,0,.03l.21-.03h-.22ZM153.06,50h.28s-.01-.05-.02-.08l-.26.08ZM130.91,46.79c-.02.06-.01.21.09.35l.19-.13-.27-.21ZM132.65,45.46l.16.07.08-.08-.02-.09c-.08.02-.15.05-.21.1ZM124.71,76.36l-.93-.65c0-.17.06-.74.83-.84l.93.65c0,.17-.06.74-.83.84ZM124.95,75.71l.13.26c.04-.08.07-.16.07-.26h-.2ZM124.24,75.25c-.04.08-.07.16-.07.26h.2l-.13-.26ZM137.42,76.01l-.69-.69c0-.17.06-.75.81-.84l.91.87c-.08.25-.33.66-1.04.66ZM137.87,75.32l.11.33c.07-.09.12-.21.12-.33h-.23ZM137.42,75h.02s.03-.36.03-.36c-.01,0-.03,0-.05.01v.35ZM137.42,74.65c-.09.03-.21.12-.26.26l.26.09v-.35ZM128.5,72.03c-.28,0-.55-.16-.67-.43-.11-.25-.09-.57.17-.82.03-.07.07-.14.13-.21.16-.51.6-.82,1.21-.82l.64.94c-.16.39-.39.62-.63.78-.11.22-.31.35-.52.4l-.05.1c-.09.03-.18.05-.28.05ZM129.05,71.65l-.18.18c.06-.03.13-.1.18-.18ZM128.99,71.5l-.07.16s.08-.04.12-.06l-.05-.1ZM127.99,70.94c-.1.15-.13.33-.07.51l.29-.4-.11-.02.02-.03h-.03s0,.02,0,.03h0v-.05l-.09-.04ZM128.17,71.03h.03s-.03,0-.03,0ZM129.38,71.03h.05s.02-.03.02-.05l-.07.05ZM128.08,70.98h.03s-.03,0-.03,0ZM127.99,70.93l.09.04-.09-.04ZM133.67,66.78l-.8-.49c-.08-.24-.03-.53.2-.76.1-.17.25-.29.43-.35.04-.07.09-.14.16-.2.11-.2.3-.34.54-.37l.13.08c-.1-.4.1-.79.24-1l.28-.15c.14-.2.3-.36.49-.48.19-.45.62-.58.83-.54.45.03.81.42.8.87,0,.22-.12.55-.47.73-.08.19-.19.32-.29.4-.07.06-.17.13-.29.17-.07.17-.16.32-.29.45l-.6.16c0,.27-.14.57-.5.75h0c.07-.06.14-.14.19-.23.12-.11.19-.25.19-.38l-.12.15s0-.01,0-.02l-.32.36-.03-.06s0,.06,0,.09c0,0,.01,0,.01,0l-.02.02s-.02.07-.03.11h-.01s0,.01,0,.01c-.03.09-.08.18-.16.26-.11.23-.31.38-.56.42ZM133.8,66.27l.03.23s.05-.01.08-.02l-.11-.21ZM134.18,66.19l-.15.25s.08-.05.11-.08c.02-.05.04-.1.06-.15h-.02ZM133.08,65.95s.01.07.03.11l.32-.11h-.35ZM133.12,65.59s-.04.1-.05.16l.15-.25s-.07.05-.11.08ZM133.39,65.44l.04.08s0-.06,0-.09c-.01,0-.03,0-.04.01ZM134.57,65.43h.22s0-.02,0-.04l-.22.04ZM133.67,65.18h.02s.17-.26.17-.26c-.04.02-.08.05-.12.08-.03.05-.05.11-.07.17ZM134.08,64.85l.02.09v-.09s-.02,0-.02,0ZM136.61,63.57h0s0,0,0,0h0ZM135.77,62.94v.05s.15-.14.15-.14c-.04,0-.09.04-.15.09ZM134.49,65.97v-.03s.02,0,.03-.01l-.03.04ZM140.48,59.78v-.02s.01,0,.03-.01l-.03.04ZM147.59,52.57l-.72-.95c.16-.38.44-.6.67-.78.16-.13.27-.21.3-.3l1.13-.24c.28.28.37.68.24,1.06-.22.63-1.01,1.13-1.62,1.21ZM152.48,49.5l.03-.04v.02s-.01,0-.03.01ZM145.62,46.7l-.98-.82c.3-.88,1.15-1,1.47-1.05l.78.6c.05.48-.09,1.08-1.1,1.23-.06,0-.12.01-.17.03ZM147.48,45.85l-.8-.94c.28-.66.79-1.02,1.46-1.03.05-.03.11-.06.17-.08l.25.11s.04,0,.06.01v.02s.6.27.6.27c.12.29.05.67-.28.91-.4.43-.94.6-1.46.73ZM148.77,44.83l.19.15c.17-.15.24-.37.19-.54l-.38.4ZM143.84,43.75l-.93-.64c0-.17.06-.75.81-.84l.91.86c-.12.36-.38.56-.8.63ZM144.06,43.1l.11.33c.07-.09.12-.21.12-.33h-.23ZM143.36,42.63s-.02.04-.02.06l.07.02-.04-.08Z"/>
        <path class="cls-3" d="M125.7,86.06c-2.86,0-5.22-1.67-7.11-3-.91-.65-1.78-1.26-2.55-1.6l-.32-.29-.41-.71-.09-.42c.05-.47.21-.82.32-1.05.03-.08.06-.13.08-.18l.02-.24.25-.71c6.19-8.06,13.42-15.26,20.41-22.21.97-.96,1.94-1.93,2.92-2.91-3.25,2.12-6.77,4.84-10.66,8.25-.45.29-1.16.57-1.97.08h-.05s-.69-.19-.69-.19c-.13-.14-.29-.27-.45-.4-.41-.33-.91-.72-1.32-1.3h-.05s-.63-.24-.63-.24c-.38-.47-.95-1.09-1.5-1.67-.73-.8-1.31-1.42-1.58-1.82l-.12-.39v-.78s.13-.39.13-.39c1.59-2.26,4.24-4.08,6.81-5.84,1.23-.84,2.38-1.63,3.41-2.45l.2-.11.43-.15.25.02c.07-.06.14-.12.2-.18l.07-.06c.19-.37.52-.63.94-.73l.78-.41c2.37-1.24,5.62-2.95,8.35-4.54l.77-.19c.47.03.63-.1,1.1-.48l.38-.25.62-.19c1.09-.03,1.93-.38,2.82-.76,1.08-.46,2.31-.99,3.84-.71,2.06.38,3.43,2.03,4.63,3.49.8.97,1.63,1.97,2.53,2.44l.24.2.36.49.12.29c.5,2.97-1.08,4.7-2.36,6.09-.54.59-1.05,1.15-1.36,1.74l-.25.27-.36.22c-.1.2-.24.39-.41.56l-.35.2c-.08.11-.18.2-.29.29l-.32.14-.46.09-.2.49-.25.25-.25-.21s-.03.03-.04.05l-.22-.17h0s.34.51.34.51l-.25.25-.37.15c-.21.35-.39.71-.54,1.07l-.62.43h-.29c-.06.45-.29.86-.56,1.14l-.22.15-.44.18v.09c-.36.73-.97,1.31-1.73,1.66l-1.5,1.61c-3.34,3.58-6.79,7.28-10.64,10.56-.1.21-.26.39-.45.54,0,0-.05.05-.12.11-.02.02-.04.04-.05.06-.06.13-.14.24-.23.34-.08.2-.19.37-.31.5,1.22-.38,2.4-.86,3.5-1.59l.76-.23c.12,0,.44,0,.78.14,3.18-1.18,6.83-1.95,11.45-2.41l.53.17.76.68.23.51s0,.05,0,.08l.07.11.09.54c-.07.28-.19.53-.36.73l.1.04.69.69.2.49c0,.67-.41,1.2-1.11,1.43l.03.02.3.56c0,.78-.55,1.57-1.76,1.57l-.56-.28-.15-.21s-.03.03-.05.05c-.15.39-.54.95-1.51,1.03-.28.14-.56.19-.79.2-.38.17-.76.17-.92.17l-.33-.09c-.23.21-.57.39-1.09.43-.05.03-.09.07-.14.1l.04.52c-.36.71-1.02.93-1.41,1.02-.15.16-.33.29-.54.37l-.29.05-.53-.03-.06.06-.5.2-.25-.06c-.18.1-.42.2-.74.24l-.14.1s-.05,0-.08.01c-.17.3-.51.71-1.19.8-.13.23-.34.49-.67.65l-.38.07-.58-.06s-.03.03-.05.04c-.36.66-.91.82-1.22.84-.21.02-.42,0-.62-.07-.11.05-.22.1-.33.14-.05.02-.1.04-.16.06l-.2.15-.96.35c-.64.23-1.29.47-1.99.69-.18.3-.5.6-1.09.7-.13.07-.27.12-.43.14-.16.03-.34.03-.51,0-.28.09-.51.17-.73.25-.32.12-.61.23-.96.32-.8.28-1.66.43-2.51.43ZM128.81,83.98s-.08.03-.11.04c-.04.02-.09.03-.13.05.04-.01.09-.03.13-.05.04-.01.07-.03.11-.04ZM129.94,83.7v.06-.06h.2s.09-.02.09-.02l-.1-.19-.2.1v-.18.18l-.12.06s-.08.02-.12.03h.24ZM130.14,83.48l.09.19.3-.1c.16-.01.2-.05.2-.05l.49-.53c-.25.07-.51.14-.78.2v-.02s-.08.04-.08.04l.13.25-.33-.07-.03.08ZM118.27,79.54c.64.38,1.28.84,1.91,1.28,2.3,1.63,4.46,3.16,7.22,2.19.36-.1.58-.18.82-.27.32-.12.66-.24,1.11-.37.17-.12.35-.2.55-.24l.28-.26c.98-.22,1.88-.55,2.82-.9.2-.07.4-.15.61-.22.19-.16.43-.28.7-.34.02-.02.04-.06.08-.13l.25-.21c0-.1.02-.19.04-.28l-.19-.13-.09-.16c-.05,0-.11-.01-.16-.02l-.52-.4-.46-1.06.06-.65c.39-.59,1.09-.94,1.86-.94l.49.2.58.58c.31-.11.63-.18.94-.22l-.22-.49-.69-.69-.18-.43c-1.48.56-3,.91-4.58,1.28-.45.1-.89.21-1.35.32-.1.11-.21.2-.34.28-.2.17-.45.28-.71.32h-.04c-.08.07-.16.14-.26.2l-.42.11-.61-.04s-.08.06-.12.09l-.41.11-.9-.04-.38-.14c-.32-.25-.54-.6-.61-.98-.16.07-.34.12-.54.15l-.48-.12-.93-.65-.3-.56c0-.67.44-1.4,1.44-1.52l.48.12.93.65.15.29s.06-.05.09-.08c.07-.11.16-.2.25-.29.08-.21.19-.38.28-.52l.32-.26.49-.19c.05-.17.14-.34.26-.49.08-.14.17-.26.28-.36.02-.03.04-.05.06-.08.04-.1.09-.19.14-.28-.46-.08-.87-.38-1.06-.82-.22-.51-.13-1.08.23-1.5.03-.05.05-.09.09-.14.28-.73.97-1.18,1.82-1.18l.57.3.64.98c.19-.43.53-.76.96-.94.22-.55.71-.92,1.03-1.16h0c.1-.15.23-.29.38-.41.08-.12.18-.22.3-.31.05-.05.1-.11.15-.16h-.06s-.8-.5-.8-.5l-.3-.38c-.15-.48-.04-1.01.3-1.39.13-.2.31-.37.52-.48.02-.03.05-.06.08-.09.14-.21.32-.37.54-.48.07-.32.22-.59.34-.76l.39-.3c.12-.16.26-.3.42-.41.35-.59.99-.82,1.47-.76.64.03,1.2.54,1.34,1.2.04-.04.08-.08.13-.12.09-.07.18-.13.27-.18.02-.01.03-.03.05-.04.05-.06.1-.12.16-.17.08-.1.16-.19.26-.27.1-.1.2-.18.32-.24.01-.02.03-.04.04-.05.23-.41.57-.62.72-.72h.01c.1-.2.25-.38.44-.51.06-.06.12-.12.19-.18,0,0,0,0,0-.01l-.45.04-.78-.6-.26-.43c-.07-.43.06-.87.36-1.19.16-.24.39-.42.65-.53.07-.16.16-.31.29-.44.08-.12.17-.22.27-.31.07-.08.14-.15.22-.22.02-.03.05-.05.07-.08.31-.5.86-.79,1.41-.74.15,0,.31.04.46.1-.04-.16-.06-.32-.05-.48.03-.94.73-1.52,1.3-1.99.14-.11.44-.36.51-.45l.27-.29c.1-.16.22-.3.36-.4.23-.23.53-.38.86-.43l.58.19s.04-.03.07-.04l.05.08.06-.06-.17-.23-.08-.68c.23-.54.62-.85.87-1.05.06-.05.11-.09.15-.12l.03.03.4-.34,1.13-.24.63.19c.28.28.44.63.49,1,.14-.14.27-.28.39-.42.09-.42.35-.77.73-.98.16-.09.33-.14.51-.16.15-.2.35-.36.59-.48l.08.03.04-.04.48-.23c.48-.03.89.17,1.17.5.29-.36.6-.69.9-1.02,1-1.09,1.74-1.9,1.73-3.18-1.07-.73-1.9-1.74-2.71-2.72-1-1.2-1.94-2.34-3.01-2.54-.7-.13-1.35.15-2.25.53-.89.38-1.98.84-3.36.96-.29.22-.65.48-1.1.67l.09.03.91.86.18.71c-.2.6-.68.99-1.35,1.09l-.49-.12-.93-.64-.3-.56c0-.31.09-.63.29-.9-2.65,1.52-5.72,3.13-7.79,4.21l-.43.22c-.2.36-.55.63-.95.72-.3.27-.65.55-1.06.81l-.5-.03c-1,.76-2.09,1.51-3.06,2.18-2.02,1.38-4.1,2.8-5.48,4.34.18.2.38.42.58.63l.1.1c.3.32.61.66.89.97h.04l.39.12.64.44.25.32c.17.45.51.71.93,1.05.03.02.06.04.09.07.07,0,.14.02.21.04,6.5-5.64,12.13-9.49,17.17-11.72l-.34-.28-.21-.74c.29-.85.96-1.36,2.02-1.51l.26.07c.39-.59.97-.95,1.67-1.02.05-.02.1-.04.15-.06l.49.03.25.11-.04.1.05.06.06-.13.6.27.35.36c.25.61.04,1.32-.51,1.72-.43.48-1.1.69-1.7.84l-.27-.09c-.08.15-.19.3-.34.42l.43.64-.07.86c-2.99,3.13-6.1,6.22-9.11,9.21-6.87,6.83-13.93,13.85-19.95,21.64-.02.12-.04.24-.07.34ZM117.92,80.94c.48.3.96.65,1.46,1,.19.13.37.26.56.4-.19-.13-.37-.26-.55-.39-.51-.36-1-.71-1.47-1.01ZM134.23,81.94l-.06.04c-.2.07-.4.14-.6.22l.66-.26ZM134.49,81.77s-.07.05-.07.1l.13-.08v-.03s-.05.01-.06.02ZM135.39,81.2c-.12.16-.26.31-.46.42.07-.03.12-.07.17-.11h.85c.12.03.19.02.27-.15l.12-.18c.06-.06.6-.62,1.14-.53l.16.02-.13-.61.02-.02.83-.2.19.09-.06.23.19-.13c.33.03.37-.07.39-.12l.2-.27c.09-.1.15-.17.2-.22l.63-.2h0s.16-.09.16-.09v-.16s1.14-.33,1.14-.33l.12.11.44.05.08-.13h.11s.61-.41.61-.41l.22.09h.01c.13-.03.24-.06.33-.09h0s.29-1.04.29-1.04c.2-.09.42-.23.67-.43h.23s.15-.32.15-.32c.11-.1.22-.19.31-.25l.43.07.23-.21.8.22c.11,0,.23-.02.3-.06l.36-.1c.18,0,.29-.02.36-.07l.39-.13c.41,0,.44-.13.46-.2l.22.05.02-.14h-.43s-.03-.14-.03-.14l.13-.16-.1-.02h.11s.57-.66.57-.66l.1.1.06-.27c.11-.04.23-.07.35-.11l.23-.07.08.1.46-.28.17.12-.07-.25.18-.66.14-.14.55-.11-.42-.34-.26.26-.65-.66.18-1.1.42.06v-.06c.25,0,.39-.08.47-.17h0s-.04-.28-.04-.28l-.34-.31c-3.91.41-7.09,1.04-9.87,1.97.36-.12.73-.24,1.11-.35l.05.13s.08-.05.12-.07l.34.21-.08-.4.45-.12.35,1.04.1-.1-.03-.4-.13-.62c.6-.16,1.22-.3,1.86-.43l.19.5h.14v.11s.15-.71.15-.71c.28-.06.57-.11.86-.16l.06.11c.05-.04.1-.08.15-.11l.27-.09.25.22.06-.27c.37-.06.75-.12,1.13-.17h.01s.4.17.4.17c.04,0,.08.01.12.02v.03s.42.16.42.16l.08.2.05.32-.82.64-.06-.04-.03.04v-.02s0,.02,0,.02l-.05-.06.02.07-.44.18-.68-.04-.37.37h-.3l-.34-.34s-.04,0-.06.01l-.34.44-.28-.19-.02.03.11.04.14.19-.1.4h.03s-.02.12-.02.12h-.04s-.09.35-.09.35l-.15.11-.25-.16v.17l-.03-.19-.24-.15-.1.12.04.38h-.03c0,.06,0,.12-.01.18l-.33-.04-.05.04v-.02s-.32.63-.32.63l-.51-.27-.14-.52v-.07s0-.09,0-.09l-.1.02.08-.19v-.05s.03,0,.03,0l.13-.34-.47-.12.48.11v-.03s.03.01.03.01h-.02s.04-.21.04-.21l.06.02.1-.22-.08.02-.11.08h0s-.21.13-.21.13l-.18-.32h0s-.08,0-.08,0l.08.24s-.03.02-.04.02h-.03s0,0,0,0h0s-.38.12-.38.12h0s0,0,0,0c-.04,0-.07,0-.1,0l.02.05-.33.2-.26.83-.96.14-.36-.25-.35-.03-.12.27v.04s-.21.35-.21.35l.32-.04.06.2h-.03s0-.01-.01-.03l-.07.05h.04s-.13.06-.13.06l.3.21-.04.21-.46.1.08.2-.36-.14-.05.06-.11-.03h-.05s-.03.51-.03.51c-.3.09-.57.2-.82.31l.1.27.19-.13.77.37.11.23-.23.36h.02s-.02,0-.02,0l-.28.46h.09v.11l-.22.05.12.41-.44.21-.43-.34-.11.11h-.3l-.35-.35c-.46.05-.99.16-1.27.45l-.31.03-.11.09.05.02v.02s.08.07.08.07v.1s.11-.02.11-.02l-.09.12v.03s.1-.14.1-.14l.29.88-.16.36h-.12s-.03.04-.03.04l-.19-.05-.09.76-.34.12ZM116.8,80.3c.1.05.2.1.3.15l-.3-.89c.03-.06.06-.13.09-.2-.03.07-.06.14-.09.21-.06.13-.12.27-.16.43l.17.3ZM138.34,79.85v.14s.05-.12.05-.12c-.02,0-.03-.01-.05-.02ZM136.19,79.91h.03s0,0,0,0h-.03ZM141.21,78.9c-.23.02-.27.16-.28.2l.13.03-.03-.03.18-.21ZM116.98,78.86s0,.06,0,.09c0-.01,0-.03,0-.04l.14-.39c.39-.5.78-1,1.17-1.49-.42.52-.83,1.05-1.24,1.58l-.07.25ZM142.45,78.66l.03-.02v-.13c-.08,0-.13.03-.14.04l.12.11ZM134.96,78.09l.24.48h0s-.22-.5-.22-.5l.16.05-.09-.13-.22.19.02.03.11-.12ZM135.08,77.97h.01s0,0,.01-.01h0s0,0,0-.01l-.03.03ZM134.85,77.83l.11.07-.08-.08s-.02,0-.03,0ZM126.96,76.67l.33.02v.03s.24-.09.24-.09l-.03-.06.04-.1h.03s.14-.17.14-.17h.01s0-.02,0-.02l.12-.15.9-.16.13.29v-.03s.03-.02.03-.02l-.09-.08.3-.06-.1-.15.1.14.44-.34c.54-.13,1.08-.26,1.61-.38.29-.07.58-.13.86-.2l-.71-1.03-.22.11.06-.18-.13.04.13-.05.03-.09-.02-.03-.18.03.06-.2-.08-.1.11-.18h.04s.02-.08.02-.08l.26-.3v-.08s-.53.07-.53.07l.24-.62-.25-.16-.04.04-.17-.07c-.14.13-.16.18-.16.2l-.59.7c-.27.04-.45.18-.53.42l.06.05-.1.47h-.15s.07.13.07.13l-.08-.02.06.14h-.13s.08.03.08.03l.05.35c.03.06.05.13.07.2l-.04.02.06.49s-.06.07-.09.11l-.69-.12-.07.12-.49-.22.08-.12-.32.19.24.07-.24-.04-.03.19-.07-.07.07.07-.05.33-.19-.14-.02.02.02.12-.02-.12-.38.42s-.09.07-.12.12l-.07.06.09.28ZM126.73,76.66h.18s0-.01,0-.02l-.17.02ZM127.92,76.32h.1s0-.02,0-.02c-.03,0-.07,0-.11.02ZM128.18,74.88l.03.08.04-.07-.05-.03-.03.02ZM137.4,73.27c-1.28.69-2.63,1.14-3.97,1.5,1.38-.37,2.7-.81,3.97-1.5h0ZM138.36,74.31l.07.07s.04-.05.06-.08l-.03-.05s-.07.04-.11.06ZM128.97,74.12l.17.03-.17-.03ZM140.18,74.08h.02s.02-.03.02-.06l-.03.06ZM129.18,73.93l.16.03-.16-.03ZM129.13,73.92h.01s-.01,0-.01,0ZM144.42,73.6l.08.03v.14s.11-.12.11-.12l-.17-.11.29-.15-.29.15-.06-.04s.02.04.03.05l-.04.02.04-.02s.01.03.02.04ZM144.05,73.47l.13.05.11-.06-.23-.14.25-.25-.41-.1-.09.12.24.39ZM139.54,73.44h.35s-.21-.7-.21-.7c-.13.05-.25.09-.38.14l-.44-.06.02.04h.11s.11.1.11.1l.12-.05.19.31v.02s.11.21.11.21v-.11.11ZM131.45,73.02l.4.18c.07-.12.13-.24.2-.35l.43-.18-.03-.04c.06-.04.13-.08.26-.15.17-.08.37-.19.42-.37l1.1-1.44c.39-.33.78-.67,1.17-1.01-.12.1-.23.21-.35.31l-.62.15-.45-1.06.03-.06.4-.38s.08-.04.12-.12l.29-.27h.12s.09-.07.13-.11l.06.06.02-.05-.1-.07.11.06v-.02s-.08-.02-.08-.02l.15-.16-.36-.05-.07.1s-.09.08-.12.13l-.25.24c-.06.03-.11.07-.14.12l-.4.42.16.03-.16-.02h-.01s-.03.04-.05.05l-.15-.05.15.05s-.07.07-.1.1l.09.3-.24-.13-.15.14v.11-.1s-.04.02-.04.02c-.23.17-.57.43-.6.64l-.39.53-.27.14c-.18.05-.28.15-.33.31l-.91,1.27.26.13.21-.54h.08s.24.42.24.42l.21-.19.05.05-.22.19.32.56-.58.14h0ZM138.44,72.83l.26.02s0,0,0,0c-.06-.08-.16-.1-.24-.11v.1ZM130.82,71.81l.15.14s-.01.01-.02.02c.04-.05.08-.1.08-.16h-.21ZM128.63,71.12l.03.1.06-.06v-.03s-.1,0-.1,0ZM128.74,71.12h0s.23-.21.23-.21t0,0l-.2-.05.21.04s.05-.03.08-.05l-.24-.12.25.12s.03-.03.05-.04l-.1-.29c-.16.08-.21.22-.22.27l-.08.13.04.07-.14.1h0s.09.03.09.03l-.04-.09.08.1h-.02ZM136.02,68.93l-.04.19c.74-.67,1.47-1.36,2.19-2.06l-.08-.08h0s-.34-.26-.34-.26h0s.06.49.06.49l-.15-.21.12.45-.51.49-.67.06v.1s-.24,0-.24,0l.06.09-.11-.1h-.14l.07.13.31.14-.31-.14.1.19-.11-.03.17.17-.26-.2.05.25-.08.07.09.09h-.16s-.01.06-.01.06l.03.02s-.03.05-.05.08h0s0,.02,0,.02h0ZM136.18,67.89v.13s.1-.03.1-.03l-.1-.1ZM136.24,67.9l.05.09.07-.02-.13-.07ZM135.08,67.6l.04.23c.08-.02.14-.04.17-.07l-.12-.08.12.08s.01-.01.02-.02l-.24-.14ZM135.36,67.41l.07.13.09-.21-.06-.04-.1.11ZM135.47,67.3l.06.03.08-.19-.14.16ZM135.96,67.27h0s.21-.37.21-.37h-.02s-.19.37-.19.37ZM135.73,67l.11.13.25-.27-.16-.08-.19.21ZM136.29,66.89l.03.14v-.09s0,0,0,0v-.09s-.03.04-.03.04ZM136.22,66.49l.13.22s.04-.03.05-.05h0s.03-.1.04-.15l-.22-.02ZM137.73,66.64h.05s-.02,0-.02,0l.1-.16-.16-.11.04.27ZM138.34,66.49l.31.11c.2-.2.41-.4.61-.6-.15.15-.3.3-.46.45l-.46.04ZM136.48,66.21l.05.33.25-.22.49.16-.27-.36.37-.19v-.05s0,.04,0,.04l.13-.06-.03-.04-.04.02.04-.02h0s-.04,0-.04,0l.04-.02-.1-.17h-.03s.03,0,.03,0v-.03s.05-.15.05-.15h0s0,0,0,0l.05-.16-.04-.02.09-.1-.21.22-.02-.02-.45.49s-.04.03-.05.04l.05.12.16.11-.04.06-.08-.06.04.1-.27-.21s-.07.08-.1.12l-.07.06ZM137.65,66.05l.04.3v-.24s-.01-.02-.01-.02h0s-.02-.04-.02-.04ZM134.03,65.61l.06.05h0s-.05-.05-.05-.05h-.01ZM134.27,65.05v.07s.02,0,.02,0h0s.08-.1.08-.1l.11.04v-.14s-.02,0-.02,0l-.2.14ZM140.52,64.47l.06.18c-.08.08-.15.16-.23.23.33-.34.66-.68.99-1.02l-.39-.41-.24.12.11.68-.02.02v.06s-.15.1-.29.14ZM134.76,64.74h0l.08-.11.38-.1s.03-.06.04-.09l.39-.4c.14-.1.18-.15.21-.21l.22-.23-.17-.02.04-.19h-.04s-.22.25-.22.25c-.11.07-.2.16-.28.28l-.36.28c-.06.12-.09.24-.07.32l-.25.18v.05ZM138.95,63.7l.02.03-.29.21c-.1.06-.12.11-.14.16l-.12.23-.17.1.2-.02.26-.23c.06-.03.1-.07.13-.12l.43-.43-.16-.03.16.02.18-.1-.08-.22-.43.39ZM136.02,63.4l.02.13c.08-.01.14-.04.18-.07h0s0,0,0,0c0,0,0,0,0,0l-.21-.05h0s-.03,0-.03,0h.03ZM140.11,63.22l.13.2v-.18s.32.07.32.07l.09-.23.03.25.28.06.08-.12-.02-.03h0s0,0,0,0l-.33-.57.2-.49.42-.03.02-.09-.05-.13.06.12.08-.17.09.25.25-.04.03.02h0s.02.01.02.01l-.2.29.02.06.41-.41.05.09.05-.06.33.14-.3-.3h0s.48.47.48.47l-.06-.13.16.07c.71-.76,1.42-1.51,2.12-2.26l1.85-1.88c.41-.17.76-.44,1.01-.79l.11-.82c.1-.08.21-.16.32-.23l.56-.04-.08-.21h.17l-.12-.26.05.02-.03-.1.1-.11.2.08.07-.42c.1-.13.2-.23.3-.29l.02.04h0s.18.29.18.29v-.4s-.08,0-.15.04l.08-.15h.64c.19-.43.42-.83.67-1.22l.29-.1.09-.43c.1-.12.19-.23.28-.34l.32-.76c.15.02.29.07.42.14.14-.08.29-.18.48-.12l.37-.06.3-.3.19-.08c.06-.07.08-.13.1-.17l.3-.39.4-.24c.15-.26.32-.51.51-.76-.12.16-.24.33-.35.49l-.54.31h-.35l-.1-.12-.1.08-.05.18-.36-.14c-.01.1-.03.2-.07.3l.11.15-.22.08s-.02.03-.03.04v.04s-.05.02-.05.02c-.01.02-.02.03-.04.05h-.05s-.08.02-.08.02l-.06-.06.03.07-.14.06-.04-.09-.19.07v-.11s-.14.06-.14.06l-.17-.07-.09-.12-.25-.05.07-.2-.15-.21-.14.14.14.12c-.46.52-1.02,1.1-1.63,1.7l-.62.04-.39.28.13.56h-.33s-.03.05-.03.05l-.03.33-.38.38-.78.13-.04-.06-.04.02-.02-.11-.17-.26-.09.19.42.82c-.63.63-1.24,1.27-1.79,1.89l-.31.2-.28.3s-.08.06-.11.1l-.05.05.09.02h-.12l-.23.21.14.28-.31-.13-.14.12v.18-.17s-.06.04-.06.04l-.19-.07.12.21-.08.04.02.02-.14.11-.36.1-.32-.27.14.63-.16.12h0s-.04.03-.04.03l.86.33h.01s0,0,0,0h0l.02.42-.15.32-.22.22c-.27.17-.63.2-.94.07l-.05-.52-.46.36.07.07-.51.47.03.04-.06-.02-.06.03h0s0,0,0,0l-.09.05.08.11-.15-.04.08.27-.33-.13.04.14-.08-.16v.25-.24s-.22.23-.22.23c-.05.04-.1.08-.14.13l-.21.1.03.05-.39.55-.12.35-.31-.04-.09.12v.09s0-.08,0-.08l-.42.38h0s.25.13.25.13l.04-.29v.31l.08.04-.04-.11.13-.1.16.03ZM141.13,63.16l.66.23.06-.07-.06.03.1-.07s.07-.07.1-.11l-.03-.04-.09.04h0s-.02,0-.02,0l-.12.06.12-.06-.1-.02v.06s0-.06,0-.06l-.57-.09-.05.08ZM135.95,63.38h.02s-.02,0-.02,0ZM139.43,63.27l.03.07-.03-.07ZM136,63.26l.1.02-.06-.06s-.03.02-.04.04ZM141.87,63.16h0s.09-.03.09-.03l-.19-.26.1.29ZM141.7,62.68v.02s.02-.02.02-.02h-.02ZM141.7,62.68h.02l.06-.08h0s.07-.12.07-.12l-.2.06.05.14ZM142.82,59.79c-.01.08,0,.14,0,.17l.37-.1-.37-.07ZM127.66,59.74l.12.12c.05-.05.11-.1.16-.14l-.28.02ZM143.27,59.35c-.06,0-.12.01-.2.06l.19.3.14-.33s-.08-.03-.14-.03ZM126.47,59.58s.06.05.08.07l.08-.02-.16-.05ZM125.58,58.83c.21.2.42.38.63.54,0,0,0,0,0,0h0c-.21-.17-.43-.34-.63-.55h0ZM140.26,58.93h0s0,0,0,0h.01s.06-.07.06-.07l-.08.06v.02ZM140.37,58.83l.11.04-.05-.08-.05.04ZM141.22,58.11l.11.11.3-.3.12.14.64-.21h-.06s.02-.08.02-.08l-.21-.07.08-.16-.03-.02.02.03-.17.12.02.03-.05-.02s0,0,.01,0h-.01s-.16-.05-.16-.05l.03.11s.04,0,.05-.02l-.28.12-.05-.11-.04.04v.13-.12s-.14.13-.14.13h.1s-.26.05-.26.05l.09.02-.05.05.03.05h-.07s-.02.02-.02.02ZM142.68,58.03l.16.09-.02.03h.1s-.08-.08-.08-.08v-.12s-.11-.01-.11-.01l-.05.09ZM142.53,57.92l.15.11.04-.09h-.05s-.04.05-.04.05v-.05s-.11-.01-.11-.01ZM124.6,57.9l.25.13v-.13l-.15-.1s-.02.01-.03.02l.02-.03-.15-.1-.51-.11c.06.07.12.14.18.21l.11-.02.26.13-.02.02h.01s.02-.01.02-.01ZM141.99,57.59l.04.08s.03-.02.03-.02l-.08-.05ZM141.99,57.58l.08.06s.01,0,.01-.01l-.13-.13.04.08ZM123.02,56.45c.23.24.45.49.67.73-.22-.24-.44-.49-.67-.73ZM143.85,56.3l.21.14.16-.14-.13-.57.08-.03.15.08v-.09h.08v.13l.15.08.49-.43.26-.04.11-.14-.08-.89.11.1v-.07s-.07-.08-.07-.08h.07s0-.1,0-.1c.03-.05.06-.1.09-.15l.24-.04v-.19s-.04-.06-.04-.06h.06s0-.05,0-.05l.06.08.56.13.25-.04.04.02.05-.04-.05.04h0s.05-.03.05-.03l-.04.04.32.14-.05-.08.05-.13h-.05s.05,0,.05,0l.14-.33v-.03s0-.01,0-.01h0s.03-.04.03-.04l-.03-.06h-.11s0,0,0,0l-.9.27v.02s-.02-.01-.02-.01l-.12.04-.27-.18-.05.04-.36.41c-.16.22-.41.43-.73.7-.42.35-.81.66-.81.98,0,.06.01.13.04.19v.42ZM122.29,55.67c.19.2.39.42.59.64l-.07-.08c-.18-.19-.35-.38-.52-.56ZM121.59,54.85c.06.08.14.17.23.27l-.02-.87c-.07.09-.14.18-.21.27v.33ZM145.89,47.6c-3.15,1.3-6.55,3.27-10.27,5.96,2.64-1.91,5.12-3.45,7.46-4.65l.8,1.09c-1.17,1.19-2.35,2.38-3.52,3.56,1.9-1.9,3.81-3.83,5.66-5.76l-.13-.19ZM147.72,51.59l.14.19c.31-.14.62-.39.7-.64,0-.02.01-.03.01-.05l-.35.08c-.08.08-.17.15-.26.22s-.17.14-.25.21ZM151.67,50.73s0,.05,0,.08c0,.03.02.06.03.09l.06-.16-.05-.04h0-.01s0,0,0,0l-.03-.02s0,.01,0,.02h.04s-.04.04-.04.04ZM153.74,50.6l.09.09-.09-.09ZM151.72,50.67h.02s.06-.05.06-.05h-.04s-.05.05-.05.05ZM152.87,50.16c.05.08.1.17.12.26h.02s-.08-.33-.08-.33l-.07.07ZM129.64,48.02c-.55.39-1.11.77-1.7,1.17-.58.4-1.17.8-1.74,1.2.58-.41,1.16-.81,1.74-1.2.54-.37,1.12-.76,1.69-1.17ZM131.55,46.74l-.14.1h.17s-.01-.07-.03-.1ZM131.6,46.69v.15s.21,0,.21,0c.09-.06.18-.13.26-.2l-.47.05ZM132.69,46.11l-.09.08s-.08.07-.12.1c.04-.03.07-.06.11-.1l.42-.17-.32.08ZM145.54,45.74l.27.23c.22-.05.33-.12.37-.21l-.25-.19c-.15.04-.28.09-.39.17ZM138.41,42.91c-1.55.84-3.06,1.63-4.32,2.29l-.55.29.55-.29c1.2-.63,2.73-1.43,4.32-2.29ZM147.52,44.84l.2.23c.22-.07.42-.16.59-.29l-.05-.25-.11.03c-.18,0-.42.04-.63.27ZM154.6,40.87c.1.12.2.24.3.36.81.98,1.66,2,2.67,2.62l.32.52c.02.19.03.36.03.54,0-.24-.01-.48-.05-.74l-.17-.23c-1.08-.62-1.96-1.68-2.8-2.7-.1-.12-.2-.24-.3-.36ZM142.41,40.68s-.05.03-.08.05l.34-.09h-.07l-.19.05ZM144.62,39.78l-.09.07.39-.15c1.02-.06,1.85-.34,2.62-.66-.78.32-1.65.62-2.72.66l-.2.07ZM151.07,38.22s0,0,.01,0c.03,0,.07.01.1.02l-.1-.02s0,0-.01,0ZM141.49,76.82l-.06-.38-.16-.06-.23.23.2-.24-.2-.08-.17.05.03-.11-.09-.04.11-.02h-.11s.12-.05.12-.05l.12-.49h0s0,0,0,0l-.32-.31.31-.57.18-.09h.21s.03-.02.03-.02v.03h.24s.18.11.18.11l-.18.55h.43-.43s-.08.23-.08.23l.16.15.21-.11-.03.27.1.09.14-.05-.08.11h0s.06,0,.06,0l-.02.05.03.04h-.05s-.17.45-.17.45l.05.05-.05-.05-.02.06.03.04-.04-.02v.02s-.07-.05-.07-.05v.13s-.14-.18-.14-.18l-.12.17v.08s-.01-.06-.01-.06l-.05.07-.03-.25v.25ZM141.12,75.76l-.08.11.08-.11ZM141.34,75.47l-.04.06.04-.06ZM141.4,75.39l-.05.07.05-.07Z"/>
      </g>
      <g>
        <path class="cls-1" d="M154.72,86.77l-1.06-.58-.61-.61c-.28-.01-.46-.12-.57-.19l-.62-.36c-.27-.47-.67-.83-1.18-1.28-.63-.56-1.4-1.26-2.13-2.4l.06-.81c.85-1,2.33-2.01,3.81-2.6.1-.1.22-.18.36-.23.03-.03.06-.06.09-.08.02-.02.05-.04.09-.05.03-.04.07-.08.11-.11.1-.08.22-.14.35-.16.02-.02.04-.04.07-.05.06-.04.14-.09.26-.13.4-.47,1.03-.56,1.27-.59l.09.08c.04-.08.09-.17.16-.24.15-.25.41-.43.75-.43l.02.02c.06-.07.13-.13.22-.18.06-.09.13-.16.21-.22.08-.06.22-.13.4-.16.19-.19.46-.47.94-.54.2-.33.6-.68,1.37-.73,2.76-1.81,5.71-3.45,8.57-5.04,2.86-1.59,5.8-3.23,8.59-5.06l-.32-.54c-.11-.01-.23-.03-.35-.07h0c-.08.03-.16.08-.24.11l.22.3c-.67.67-1.31.7-1.82.72-.33.01-.62.03-.97.2l-.21-.18-.83.28c-.06-.02-.19.05-.28.08-.31.11-.78.28-1.35.11-.91.59-2.07.83-3.18,1.06-.76.15-1.54.31-2.2.58-.12.14-.28.24-.46.27-.08.01-.17.01-.26,0-.28.14-.59.24-.96.19-.55.43-1.69.58-2.27.38-.04-.01-.07-.03-.1-.04-3,.64-5.5-1.27-7.71-2.96-.95-.72-1.84-1.41-2.72-1.86l-.37-.68c.22-2.12,1.25-3.41,2.24-4.65.27-.33.53-.67.79-1.02.07-.27.26-.47.52-.56l-.02-.03c.17-.77.7-1.14,1.09-1.41.21-.14.35-.25.42-.36.05-.18.14-.33.28-.44.4-.59.95-1.26,1.53-1.97.52-.64,1.05-1.29,1.5-1.9-.17-.29-.21-.7-.13-1.22l.56-.57c1.68-.3,2.93-1.11,4.16-2.73.05-.2.17-.37.33-.48.01-.02.03-.03.04-.05.06-.24.22-.45.47-.62-.02.02-.09.13-.09.25l.31-.31-.02-.04c1.21-2.01,3.14-1.35,4.84-.75,1.11.38,2.24.78,3.33.62,1.25-.2,2.17-.59,3.24-1.05.62-.27,1.27-.54,2.04-.81,2.57-.36,4.62-1,6.78-1.68l1.32-.38c.16,0,.46.04.68.32l.1-.13c.4,0,.88.21.88,1.21l-.84.67s-.05,0-.05,0h0c-.08.05-.17.1-.29.14h0c.05,0,.12-.02.15-.03-.02.01-.05.04-.08.08-.02-.01-.05-.03-.07-.03l.02.13s-.03.1-.03.16l.06-.05.02.06s.06-.02.09-.03l.1-.04s-.04-.06-.06-.09l.56-.4c.16-.16.34-.23.43-.26-.05.02-.13.09-.19.18.07.02.13.05.19.08l.02-.02v-.12s.09,0,.14.01l.4-.32c.34.08.57.24.69.49l.76.51c0,.22-.07.42-.21.58h.01c0,.24-.09.77-.92.85l-.19-.13-.05.03.05.05-.29.21.07.16c.15-.1.23-.24.24-.35l.39.41c.04.39-.09.81-.33,1.15l.13.11c.07.37,0,.64-.12.82l.13.09c0,.17-.06.75-.81.84l-.95-.65c0-.07.01-.22.08-.37-.04-.08-.08-.15-.1-.24-.07.02-.14.04-.25.08-.09.04-.19.08-.31.11.02.04.04.09.05.13l.12-.08c.37.27.5.54.55.79l.7.48c0,.17-.06.74-.83.84l-.2-.14-.24.37c-.05,0-.11,0-.15-.01-.05.03-.1.06-.15.08-.07.03-.15.05-.24.06-.1.16-.29.31-.63.39l-1.01-.61s0-.03,0-.05c-.04.03-.08.06-.13.09v.29l-.69.69h-.39l-.09-.09c-.17.17-.35.27-.5.31-.51.17-1-.04-1.41-.28-.11.06-.22.1-.35.14l.16.31c-.39.78-1.1.85-1.48.88q-.32.03-.38.16l-.87.41c-.12-.04-.18-.02-.49.16-.31.19-.8.48-1.43.33-1.91,1.07-4.19,1.77-6.39,2.44-1.48.45-3,.92-4.36,1.49-1.71,1.72-2.9,3.3-3.75,4.97.71-.17,1.52-.46,2.36-.76,1.72-.62,3.65-1.33,5.42-1.15.86-.81,2.28-.87,3.65-.92h.13c.65-.35,1.32-.37,1.97-.38.21,0,.43,0,.66-.02h.14c2.94-.21,5.48-.38,7.31,1.59,1.12,1.12,2.27,2.19,3.36,3.21.65.6,1.28,1.2,1.89,1.77l.2.62c-.68,3.82-3.94,5.51-6.81,7-.98.51-1.91.99-2.65,1.51-2.9,2.05-6.12,3.79-9.23,5.48-2.18,1.18-4.44,2.41-6.55,3.72-1.2.74-2.47,1.38-3.81,2.05-1.48.75-3.02,1.52-4.45,2.44ZM154.66,84.99v.09s.02,0,.02,0l-.02-.09ZM155.11,84.7l-.19.31s.08-.05.12-.08c.03-.07.06-.14.07-.23ZM154.61,83.71c.36,0,.66.25.72.6.03.19-.01.4-.15.57,1.12-.65,2.26-1.22,3.37-1.78,1.31-.66,2.55-1.28,3.7-1.99,2.14-1.33,4.42-2.56,6.62-3.76,1.76-.95,3.56-1.93,5.3-2.96l-.63-.59c.12-.35.39-.56.8-.62l.76.53-.42-.49c-.02-.13-.02-.25,0-.36-.15.09-.34.15-.62.15l-.29-.29c0,.18-.07.74-.82.83l-.91-.87c.11-.31.33-.51.67-.6-.19-.05-.36-.16-.49-.33l-.06-.91c.1-.15.26-.3.54-.34.13-.12.27-.16.34-.18.34-.09.72.06.94.37l.02.81s.09-.02.15-.03l.76.53c.05-.12.14-.24.25-.33l.16-.02-.16-.06c-.1-.23-.09-.55.14-.79.12-.23.33-.39.6-.43l.79.52.04-.07c.12-.04.25-.04.39-.01.03-.01.06-.03.09-.04.03-.06.08-.12.14-.17l-.61-.53c.08-.25.33-.67,1.04-.67l.05.05c.14-.21.31-.31.45-.36.37-.12.68.06.81.14l.23.31s.01,0,.02,0c.23-.21.54-.33.92-.33l.17.33c.09,0,.17.02.25.05l.2-.31c.08-.02.41-.08.68.19.13.06.24.16.32.28,2.23-1.2,4.31-2.58,4.91-5.08-.52-.49-1.05-.99-1.6-1.5-1.11-1.03-2.26-2.11-3.41-3.26-1.39-1.51-3.52-1.36-6.22-1.18h-.14c-.25.03-.49.03-.72.03-.61.01-1.05.02-1.43.26l-.34.11h-.3c-1.21.06-2.47.11-2.88.69l-.68.28c-.34-.06-.68-.07-1.05-.05-.14.2-.41.38-.92.38l-.22-.22c-.95.21-1.94.57-2.92.92-1.44.52-2.78,1.05-3.98.99l-.62-.95c.94-2.3,2.37-4.34,4.64-6.6l.22-.15c1.46-.62,3.06-1.11,4.62-1.59,1.87-.57,3.79-1.16,5.44-1.97l-.04-.62c-.1-.09-.19-.2-.25-.34-.11-.11-.19-.26-.21-.42l.48-.8c.18-.06.42-.05.63.1.09.01.17.03.24.06.11-.11.28-.19.51-.23l.37.25c.1-.36.38-.54.49-.62l.02.02v-.02s-.15-.1-.15-.1c0-.08,0-.16.02-.23-.04.02-.09.04-.13.06l-.24-.11s-.07-.01-.1-.02v-.02s-.57-.26-.57-.26c-.11-.26-.06-.6.2-.85-.03-.07-.06-.15-.07-.23l.48-.8c.19-.06.45-.05.66.12.05.02.09.04.14.07.21-.32.56-.5,1.01-.5l.3.39s.08-.02.11-.02l.02-.39c.2-.25.59-.46,1-.32.14.05.28.14.39.29.08.05.14.09.18.13l.3.92c-.05.09-.12.21-.23.32l.04.03.47-.79c-.09-.09-.16-.19-.21-.31-.06,0-.13.02-.19.03l-.55-.83c-.2.08-.41.09-.65.04h0s-.39,0-.39,0l-.69-.69v-.39l.39-.39c0-.1.04-.2.09-.3-.16.02-.32.05-.48.07-.6.22-1.22.49-1.81.74-1.11.48-2.16.92-3.58,1.15-1.42.21-2.79-.26-3.99-.68-1.33-.46-2.1-.68-2.64-.41-.01.12-.05.27-.15.39-.06.28-.21.52-.44.69l-.03.04.05.05c.04.22-.03.48-.23.67-.07.1-.16.2-.26.26h-.02c-.12.13-.28.22-.47.25-.11.02-.22,0-.33-.04-.04,0-.08.02-.12.02-.91,1.11-2.19,2.26-4.21,2.75l.35.78s-.03.04-.04.06l.35.35c-.08.78-.57,1.16-.89,1.41-.02.02-.04.03-.06.05-.08.25-.24.45-.46.56-.06.13-.15.25-.29.35-.05.03-.11.07-.19.1-.03.21-.11.42-.3.59-.04.03-.08.07-.12.09,0,.06-.02.13-.03.19-.16.61-.76,1.25-1.33,1.41l-.32-.27c-.22.31-.51.51-.75.68-.08.06-.16.11-.22.16.05.2,0,.44-.16.64-.04.11-.09.19-.16.26-.03.09-.08.16-.11.22-.04.06-.09.11-.15.16-.05.11-.14.22-.27.3h0c-.1.11-.23.19-.38.22-.2.27-.41.54-.63.8-.83,1.04-1.62,2.02-1.88,3.49.83.49,1.64,1.1,2.49,1.75,2.14,1.64,4.36,3.33,6.86,2.64l.86.55c-.04-.25-.22-.38-.3-.4.16.04.6-.01.84-.09l.34-.55c.24-.07.54-.03.77.2.1.02.16-.01.38-.13.12-.14.29-.24.47-.27.09-.01.18,0,.28,0,.75-.3,1.57-.46,2.37-.62.85-.17,1.66-.34,2.31-.64l.32-.32-.49-.47s0,0,0,0l-.56-.56c0-.23.08-.51.42-.69l-.61-.61c0-.17.06-.74.83-.84l.29.2s.1-.07.16-.1c.02-.03.05-.06.08-.09.1-.26.35-.58,1.02-.58l.69.69c0,.17-.05.45-.36.65v.26s-.06.09-.1.12c-.02.06-.04.11-.07.15.18-.04.35-.04.52-.01l.26-.33-.32-.32c0-.17.06-.74.83-.84l.93.65s0,.27-.15.48h.27s.03-.04.04-.06c-.02-.02-.04-.05-.06-.07v-.87c.13-.2.34-.31.6-.33.24-.19.56-.23.82-.15.37.11.63.42.65.76.09-.03.2-.05.33-.05.46,0,.92.03,1.31.23.65-.36,1.37-.38,2.02-.4.18,0,.35,0,.52-.02l.28.31c.09-.03.19-.06.31-.07l.89.62c.24.1.44.28.54.62l-.56.87c-.12.02-.31.02-.53.01l-.07.19c-3.68,2.74-7.73,4.99-11.64,7.17-2.75,1.53-5.6,3.11-8.26,4.84-.07.18-.2.33-.38.41-.11.05-.24.07-.36.06-.04.15-.13.32-.33.45-.27.33-.74.6-1.17.46,0,0,0,0,0,0,.04.05.08.1.11.15.24.38.25.81.02,1.12-.07.1-.23.27-.52.33-.15.18-.36.3-.61.35-.13.08-.28.13-.44.13l-.14-.14c-.05.19-.13.36-.24.49-.08.1-.18.17-.29.23v.17s.7.48.7.48c0,.21-.08.88-1.08.88l-.56-.78v.08c-.13.22-.42.47-1.05.37h0s-.3.02-.3.02l-.37-.72.11-.11c.01-.08.03-.15.06-.22-.06.02-.12.03-.18.04-.05,0-.1,0-.15,0-.03.05-.07.1-.11.15-.12.21-.33.35-.59.38l-.19-.13c-.06.2-.2.39-.47.52h0c.07-.06.14-.14.19-.23.11-.1.18-.23.19-.35h-.02s-.1.12-.1.12c0,0,0-.01,0-.02l-.32.36-.09-.18.02.21s.03,0,.05,0l-.24.27-.3-.23c-.4.27-.74.56-1.02.82.53.73,1.06,1.21,1.59,1.68.47.42.91.82,1.27,1.34.04.01.07.02.1.04.11-.05.23-.09.35-.1l.08-.1c.19-.03.4.01.57.14.07-.06.15-.12.25-.17h0c-.07.06-.14.13-.19.22,0,0,0,0,0,0-.03.05-.05.1-.06.16.01,0,.02,0,.03,0l.09-.12s.01.01.02.02l.16-.19.09.18-.02-.21s-.03,0-.05,0l.24-.27s.04,0,.06,0ZM154.82,84.5h.28s-.01-.05-.02-.08l-.26.08ZM156.03,80.2l.04.09s.02-.04.03-.06l-.07-.02ZM153.67,79.83c.04.1.11.19.21.25l.05-.3-.26.05ZM154.48,79.94l-.02.09c.11-.08.17-.19.18-.27l-.16.18ZM155.2,79.81l.25-.05c-.07.02-.15.04-.24.05t0,0ZM153.93,79.76h.01s0,0,0,0h-.01ZM152.61,79.67l-.03.06s.03-.02.05-.03l-.02-.03ZM152.57,79.59h0s0,0,0,0h0ZM152.79,79.33l-.12.23c.06-.03.1-.06.15-.1.01-.03.03-.07.04-.11-.02,0-.04-.01-.06-.02ZM155.45,79.37l-.06.09s.04-.03.06-.05v-.05ZM154.72,78.68l.02.04.02-.02v-.06s-.03.03-.04.04ZM155.32,78.23c.06.02.12.02.17.02l.07-.12-.12-.05s-.08.09-.12.13v.02ZM155.68,76.21l.14.1c.02-.05.05-.1.09-.16-.07,0-.15.02-.23.06ZM159.47,75.48s.12,0,.17-.03l-.22-.45.03.23s.03.12.02.24ZM159.59,74.22l.44.27c-.06-.11-.23-.25-.44-.27ZM174.02,73.49c-.07.09-.12.21-.12.33h.23l-.11-.33ZM173.29,73.11l.04.08s.02-.04.02-.06l-.06-.02ZM176.63,72.6c0,.09,0,.19-.01.28l.23-.15-.21-.13ZM175.26,72.7s.04.04.07.05l-.07-.09s0,.02,0,.04ZM172.53,72.39c-.07.09-.12.21-.12.33h.23l-.11-.33ZM172.93,72.13l.83.57-.38-.38c0-.06,0-.22.09-.39-.08.07-.17.12-.25.14-.1.03-.2.05-.29.04ZM174.49,72.33l.16.32c.06-.09.11-.2.11-.32h-.27ZM174.07,72.13h.01l.03-.49s-.03,0-.05,0v.48ZM174.07,71.65c-.16.04-.36.23-.36.48h.36v-.48ZM175.76,71.85l.07.14v-.1s-.07-.03-.07-.03ZM173.22,71.69s.03,0,.05,0c.02-.02.04-.05.06-.08l-.11.08ZM172.77,71.25c.02.15.09.29.22.37l.06-.23-.28-.14ZM175.21,71.22c0,.07,0,.15.03.22l.1-.22h-.13ZM176.68,71.41h.01s0,0,0,0c0,0,0,0-.01,0ZM176.46,71.18l-.1.21s.06-.08.08-.1l.02-.04s0-.05-.01-.08ZM175.36,71.22s0,.04.01.06l.21-.06h-.22ZM172.77,71.19s0,.03,0,.04l.05-.03h-.05ZM172.42,71.15s-.01.05-.01.07l.08-.07h-.07ZM175.42,70.82c-.05.1-.08.23-.06.38l.22-.48c-.06.03-.11.06-.16.1ZM173.19,70.81l-.04.17.15-.09s-.07-.06-.1-.08ZM172.92,70.76s-.06.08-.09.13l.16-.13s-.05,0-.08,0ZM175.59,70.61l.02.04.03-.06s-.03.02-.05.03ZM177.21,69.76c-.06.09-.11.21-.11.35h.23l-.12-.35ZM177.79,69.93s0,.06,0,.14c.01-.01.03-.03.05-.04l-.05-.1ZM181.33,69.53l.33.2s-.05-.09-.09-.13c-.07-.04-.15-.06-.24-.07ZM181.03,69.58s0,0,0,0l.02.05v-.05ZM162.81,65.65l.23.18.04-.09c-.08-.06-.18-.09-.27-.09ZM163.79,65.75l.06.07.14-.19c-.07.03-.14.07-.2.13ZM170.2,64.05h0s.01-.01.01-.01c0,0-.01,0-.02.01ZM170.1,63.74l.04.08s.02-.04.02-.06l-.06-.02ZM170.58,63.72c.1.03.19.01.33-.03,0-.02,0-.03,0-.05l.13-.14c-.11,0-.23,0-.34-.01-.05.03-.1.06-.15.08,0,.03-.02.07-.03.1.02.02.04.03.05.05ZM168.91,62.14c-.11.08-.22.23-.22.42h.3v-.43s-.05,0-.08,0ZM169.97,62.33s-.05.03-.05.05l.13-.05s-.05,0-.08,0ZM169.39,61.66l.03.06c.04-.07.07-.16.07-.26h-.1c-.01.08,0,.15,0,.2ZM169.77,61.66s.02.01.03.02l.1-.42h-.04s0,0,0,0c0,.04,0,.21-.1.4ZM172.35,61.41s.07.02.1.03c.02-.05.03-.11.03-.18h-.2l.07.15ZM169.58,61.22c0,.07.01.14.03.21l.11-.19-.14-.02ZM169.89,61.23v.03s.03-.02.03-.02h-.03ZM168.8,60.79c-.13.06-.3.23-.3.47h.3v-.47ZM169.6,61.07l.15.1v-.03s-.13-.09-.13-.09h-.02ZM171.79,60.6c-.13.06-.3.23-.3.47h.3v-.47ZM173.67,60.87c0,.07,0,.13.03.2.05-.02.11-.03.16-.04l.02-.08.24.03s.05,0,.08-.01c0-.17-.08-.34-.22-.44l-.1.42-.21-.07ZM169.82,60.97v.05s.04-.06.04-.06c-.01,0-.03,0-.04,0ZM173.24,60.72s-.04.09-.04.13l.13-.1-.09-.03ZM169.81,60.74h.19s-.04-.09-.04-.09c-.05.02-.1.05-.15.09ZM153.27,56.38h.04-.04ZM153.31,56.26l.08.03.03-.04s-.03-.07-.04-.11c-.03.04-.06.08-.08.12ZM153.25,56.24h.01s.12-.12.12-.12c-.05.03-.1.07-.13.12ZM153.5,56.07s-.02.09-.02.12l.11-.12-.04-.02s-.04,0-.06.02ZM155.82,54.61v.09s.02,0,.03,0l-.03-.08ZM155.13,54.22s0,0,0,0h.01s-.02,0-.02,0ZM156.94,51.88c-.06.04-.11.09-.16.16-.05.07-.08.14-.09.21l.19-.19c.01-.06.04-.13.06-.18ZM176.05,50.06l.02.31c.06-.02.15-.07.28-.15.08-.05.17-.1.27-.15l-.02-.03h0s0-.04,0-.05c-.08-.02-.16-.05-.24-.08l-.02-.03c-.07.08-.17.14-.3.19ZM175.32,50.29l.16.08c-.01-.06-.03-.12-.06-.18-.03.03-.07.07-.1.09ZM175.99,49.48l.16.31s.04-.07.06-.11l-.22-.21ZM174.59,49.7v.07s.01,0,.02,0l-.02-.06ZM174.56,49.15c-.13.07-.23.2-.26.35l.22-.02-.04-.12h.1s-.02-.21-.02-.21ZM175.07,49.24l.06.06h0s-.01-.05-.02-.08c0,0,0,0,0,0l-.05.02ZM176.67,49.22s.02,0,.03.01h0s-.07-.07-.07-.07c.01.02.02.04.04.05ZM174.95,49.12h0s0,0,0,0ZM184.74,48.6v.24c.09-.04.2-.13.25-.27-.03,0-.05-.02-.08-.03-.05.02-.11.04-.17.05ZM186.5,47.59l.11.33c.07-.09.12-.21.12-.33h-.23ZM175.48,47c-.07.12-.09.26-.06.37l.29-.29-.24-.08ZM178.7,47.31l.08.05s0-.06,0-.09c-.03.02-.06.03-.09.04ZM179.18,47.1s-.01.07-.01.1h.03l.07-.1s.04,0,.07-.01c0-.02,0-.03,0-.05-.05.02-.11.04-.17.06ZM178.56,47.02l-.13.11s.09-.03.13-.05v-.05ZM187.48,46.56l.1.19c.04-.07.07-.16.07-.26h-.02s-.03.02-.04.03c-.03.02-.06.03-.1.04ZM176.45,45.91l.23.15s.01-.03.02-.04c-.01-.01-.02-.03-.03-.04-.07-.03-.14-.06-.22-.07ZM176.15,45.95s0,0,0,0v.03s0-.04,0-.04ZM177.26,45.8s-.13.09-.15.15l.15.03v-.18ZM187.51,45.66l.06.03s.02-.06.02-.1c-.03.02-.05.04-.08.06ZM178.86,45.25s-.01,0-.02,0l.24.14v-.08c-.09-.04-.17-.06-.22-.06ZM182.47,43.72l.17.13.11-.21c-.12-.08-.26-.12-.4-.1-.02.02-.04.04-.05.07l.03.02s.1.06.14.1ZM182.96,43.63c.06.01.11.03.15.05.01,0,.02-.01.04-.02-.02-.01-.03-.03-.05-.05,0,0-.02-.02-.03-.03-.03,0-.06,0-.09-.01-.01.02-.02.04-.03.06ZM182.44,43.42c.14.01.29.07.42.18,0-.02.02-.04.03-.06-.14-.03-.28-.09-.4-.19-.01.02-.03.04-.04.07ZM164.53,43.43l.05.09.12-.18s-.11.04-.16.09ZM181.94,43.5s.04,0,.06,0c0-.01.01-.03.02-.04l-.08-.02v.05ZM188.36,43.2l.03.1s.02-.07.03-.11c-.02,0-.04,0-.06.01ZM188.56,42.65l.03.02s.02-.1.02-.16h-.1l.04.14ZM181.98,42.28l.22.35v-.14s.01-.02.02-.03c-.03-.09-.04-.18-.05-.24-.06.02-.13.04-.19.05ZM185.85,40.33s-.11.05-.2.19c-.03.05-.05.1-.06.14.06-.03.13-.06.21-.08l.18-.23s-.08-.01-.12-.01ZM154.24,84l.03-.04v.02s-.02,0-.03.01ZM151.62,80.22v-.02s.01,0,.03-.01l-.03.04ZM169.19,71.91l-.67-.85c.11-.44.37-.73.75-.85.12-.13.26-.2.4-.23.35-.08.74.07.95.38v.87c-.12.18-.29.29-.51.32-.21.24-.52.37-.91.37ZM170.31,70.98h.05s.02-.04.02-.07l-.08.07ZM169.71,70.23v.04l.17-.1s-.1.02-.17.07Z"/>
        <path class="cls-3" d="M154.39,87.37l-1.22-.69-.45-.45c-.3-.06-.5-.19-.6-.25l-.61-.35-.25-.25c-.22-.37-.56-.68-1.03-1.11-.63-.56-1.48-1.33-2.26-2.55l-.11-.41.06-.81.16-.4c.9-1.06,2.41-2.11,3.97-2.75.11-.09.24-.17.37-.23l.06-.05s.03-.02.05-.03c.04-.04.08-.07.12-.11.14-.11.29-.19.45-.24.08-.05.16-.1.25-.14.48-.47,1.1-.61,1.43-.67.25-.33.61-.54,1.01-.6.08-.1.18-.19.29-.27.14-.1.29-.17.46-.22.19-.18.47-.4.88-.53.29-.35.76-.69,1.54-.79,2.74-1.79,5.64-3.4,8.45-4.96,1.85-1.03,3.71-2.06,5.53-3.15l-.32-.04-.59.2h-.12s0,.01,0,.01v-.02s-.18,0-.18,0l.02.09c-.3.11-.82.29-1.46.19-.97.55-2.09.78-3.17,1-.67.14-1.37.28-1.95.49-.21.19-.46.32-.74.36-.08.01-.15.02-.25.02-.23.1-.53.19-.89.19-.76.45-1.92.56-2.62.35-3.22.58-5.79-1.38-8.07-3.13-.93-.71-1.8-1.37-2.62-1.8l-.29-.28-.37-.68-.08-.4c.24-2.32,1.38-3.75,2.39-5,.24-.3.48-.6.7-.91.1-.28.28-.52.52-.69.28-.86.9-1.29,1.29-1.56.06-.04.15-.11.21-.15.08-.21.21-.39.36-.54.41-.59.94-1.24,1.51-1.94.44-.54.87-1.08,1.26-1.59-.09-.35-.1-.75-.03-1.23l.19-.38.56-.57.37-.2c1.47-.26,2.57-.97,3.66-2.38.08-.22.22-.42.38-.58.13-.32.36-.59.68-.8l.04.05c1.51-2.42,3.97-1.55,5.61-.98,1.02.35,2.08.72,3.01.59,1.16-.18,2.04-.56,3.07-1,.64-.27,1.3-.56,2.09-.83,2.64-.38,4.66-1.01,6.8-1.68l1.52-.41c.28,0,.54.07.77.2h0c.65,0,1.34.36,1.52,1.35l.08-.02c.56.12.88.41,1.06.68l.63.42.3.57c0,.28-.07.56-.21.79-.05.39-.26.8-.7,1.06.02.36-.06.74-.22,1.08h0c.07.38.03.68-.04.92l.06.11c0,.55-.3,1.14-.94,1.4-.11.57-.56,1.12-1.4,1.23h-.05s-.27.14-.27.14c-.05.03-.11.06-.16.09l-.03.02h0s-.03.01-.05.02c-.04.02-.08.03-.12.04-.18.17-.44.33-.82.43l-.52-.08-.43-.26-.56.56-.49.2h-.35c-.13.08-.27.15-.42.19-.46.15-.9.1-1.27-.02-.58.98-1.57,1.07-1.95,1.1h-.06s-.09.1-.09.1l-.87.41-.51.03c.09.03.21.02.27,0-.04.02-.1.05-.19.11-.34.2-.9.54-1.66.46-1.92,1.04-4.14,1.72-6.29,2.38-1.46.45-2.91.89-4.19,1.42-1.1,1.12-1.97,2.16-2.66,3.21.21-.07.42-.15.63-.23,1.72-.63,3.64-1.33,5.44-1.22,1.03-.78,2.45-.84,3.83-.9.74-.35,1.47-.37,2.12-.38.21,0,.42,0,.63-.02h.15c2.98-.21,5.81-.4,7.85,1.8,1.1,1.1,2.24,2.16,3.32,3.17.65.61,1.29,1.2,1.89,1.78l.18.28.2.62.02.33c-.74,4.15-4.3,6-7.16,7.48-.98.51-1.88.97-2.57,1.46-2.94,2.07-6.18,3.83-9.31,5.53-2.19,1.19-4.43,2.4-6.52,3.7-1.25.77-2.58,1.43-3.86,2.08-1.49.75-2.99,1.5-4.39,2.4l-.7.02ZM154.07,85.64l.62.34c1.09-.68,2.23-1.27,3.35-1.84-.84.43-1.69.87-2.52,1.35l-.04-.04h0c-.07.07-.14.12-.22.16l-.25-.25-.33.42-.57-.54-.1.02.09-.03-.13-.12.66-.13-.2-.21-.59.2-.18-.28h-.03s.02-.02.02-.02l-.04-.06h-.05s0-.02,0-.02l-.18.11-.67.05.1.06c.08.05.15.09.26.1l.45.2.54.54ZM152.36,84.53l.32.18-.36-.25s.03.05.05.07ZM154.61,83.02c.52,0,.98.28,1.23.7.81-.43,1.61-.84,2.4-1.24,1.23-.62,2.51-1.26,3.65-1.96,2.15-1.34,4.43-2.57,6.63-3.77,1.51-.82,3.04-1.65,4.54-2.51h0s0-.01-.01-.01l-.56-.18-.91-.87-.18-.72c.06-.17.13-.32.23-.45l-.08-.21-.06-.91.11-.42c.19-.3.48-.51.82-.6.17-.11.33-.17.45-.21.62-.16,1.3.1,1.68.64l.08.24s.06-.09.1-.14c.23-.39.63-.66,1.08-.71l.31.07c.23-.59.75-.96,1.43-1.03.15-.13.32-.23.5-.29.67-.22,1.2.09,1.38.19l.03.03c.24-.09.51-.14.79-.14l.33.2.15-.1c.44-.11.9,0,1.24.29,0,0,0,0,.01,0,2.01-1.13,3.47-2.29,4.04-4.04-.38-.36-.78-.73-1.18-1.1l-.11-.11c-1.11-1.03-2.27-2.12-3.43-3.28-1.19-1.29-3.07-1.16-5.69-.98h-.15c-.24.03-.48.03-.7.03.31.13.56.35.73.62.37,0,.77.04,1.16.16.7-.3,1.43-.32,2.02-.34.21,0,.35,0,.49-.02l1.03.36.83.58c.43.2.72.56.86,1.04l-.08.56-.56.87-.48.31c-.07,0-.15.02-.25.02l-.03.05c-3.05,2.27-6.32,4.19-9.55,6.01.09.08.18.18.25.28l.12.38v.87s-.12.4-.12.4c-.19.27-.44.45-.74.55-.33.28-.76.43-1.26.43l-.54-.26-.7-.99c-2.42,1.35-4.9,2.75-7.23,4.25-.15.25-.36.44-.63.56-.06.03-.12.05-.18.07-.09.12-.19.23-.32.33-.18.2-.41.38-.67.5.05.4-.05.8-.29,1.12-.11.15-.33.39-.7.53-.2.18-.45.31-.72.39-.1.05-.21.1-.32.13l.04.03.3.56c0,.78-.55,1.57-1.76,1.57l-.56-.28-.11-.15c-.25.1-.58.16-1,.1l-.18.02-.67-.37-.12-.23c-.12.05-.25.09-.39.11-.13.13-.28.24-.46.33l-.08-.03-.04.04-.69.07c-.07.05-.13.1-.2.15.35.41.71.73,1.08,1.06.39.36.78.7,1.12,1.11l.12-.08c.24-.05.49-.02.72.06l.04-.04.58-.23ZM150.67,82.82c.15.14.3.28.44.4-.15-.13-.3-.27-.44-.4ZM149.26,81.17c.07.1.13.2.2.29l.08-.9c.32-.3.7-.61,1.1-.89h.47s.29-.31.29-.31h.01s.06-.08.06-.08l.64-.14-.02-.02.86-.45.04.03h.01s.53.47.53.47h0s.26-.06.26-.06l.12.12.07-.15h.01s.32.32.32.32l.11-.1h.01s-.11.11-.11.11l.67.29.06-.02-.3-.26h.04s-.08-.08-.08-.08l.23-.1-.04-.04-.78-.16.02-.27h-.07s.07,0,.07,0l.04-.52.5.4-.49-.41.23.06-.1-.13.11.13.32.08-.12-.18.22-.5.88-.26.3.74.47-.13v-.16l.3-.12c.13-.03.19-.09.23-.13l.38-.23c.18-.16.13-.3.06-.41l.02-.02h-.03s.97-.98.97-.98l-.49.49v-.69s.22.03.22.03c.08.03.28-.06.43-.24l.22-.18h-.02s0-.02,0-.04l-.04-.3.6-.22-.1-.06c-.41.03-.67.16-.81.4l-.48.32c-.25.04-.38.16-.57.35l-.4.2-.34.28-.23.02.08.14-.56.18v.14s-.04-.12-.04-.12h-.01s0,0,0,0l-.11.14-.67.16.03.19c-.19.03-.62.09-.85.36l-1.24.78c-.05.02-.09.05-.12.08l-.23.15c-1.29.52-2.6,1.38-3.4,2.24l-.02.35ZM155.3,78.92l-.02.04.02-.04s0,0,0,0ZM174.61,74.2l-.09.79c-.46.27-.93.54-1.4.81,1.32-.75,2.62-1.53,3.87-2.35l-.42-.28-.09.15-.21-.13.1-.16-.42-.28.4-.28-.1-.16.23-.15.1.15.43-.3.21.13v.4s.11-.01.11-.01c.02.16,0,.32-.02.48h-.08s0,.29,0,.29l-.16.11c.44-.29.88-.59,1.31-.89.77-.55,1.7-1.03,2.69-1.54.38-.2.77-.4,1.15-.6l-.76-.2-.15.14-.33-.2v-.04s-.53.18-.53.18l-.49-.29c-.06.02-.11.05-.16.1l-.49.19-.08-.04-.07.02v-.05s-.41-.21-.41-.21l-.13-.19s-.09-.03-.13-.02h-.05s-.03.16-.03.16h.07v.04s-.09.01-.09.01l-.13.6-.46-.17v.71s-.37.31-.37.31l-.35.05-.12.25-.13-.07-.14.1v.32-.31s-.19.13-.19.13l.04.06-.81.23h0s-.04.09-.04.09l.13-.04-.33.41h.47l-.49.03-.15.19h0s.33.39.33.39l-.91,1.01-.11-.07ZM164.21,71.87c-.93.54-1.85,1.08-2.76,1.64.91-.56,1.83-1.11,2.76-1.64ZM175.41,72.29l.03.03s0,.03,0,.04l.24-.18-.27.1ZM175.64,72.29v.02s.02-.04.02-.04l-.02.02ZM175.66,72.26l-.02.03.02-.03ZM176.37,71.7l.05.08.07-.27-.07-.04-.11.02h0s-.05,0-.05,0l.04.07.08-.04.07.14-.08.04ZM176.21,71.43l.03.06h.05s-.08-.06-.08-.06ZM176.4,71.46h-.01s.02,0,.02,0h0ZM175.83,71.27h.07s0-.03,0-.04l-.07.03h0ZM169.31,70.96l.16.21c.06-.03.1-.07.11-.08l.35-.25-.21-.08.21.05v-.03s-.17-.09-.17-.09l-.29.18c-.05.02-.11.04-.16.1ZM187.27,64.19l.19.66c-.46,1.92-1.68,3.22-3.09,4.22,1.52-1.08,2.73-2.43,3.14-4.45l-.09-.29c-.05-.05-.1-.1-.15-.14ZM175.89,62.76c.08.02.15.04.22.04l.52.33.32.54-.21.93c-2.36,1.55-4.82,2.95-7.24,4.31,3.44-1.92,6.94-3.94,10.16-6.34h.01s.49-.32.49-.32c.04,0,.08,0,.12,0l.13-.19-.11-.06-.72-.5-.65-.21s-.1,0-.15,0c-.66.02-1.27.04-1.77.32l-.64.02c-.28-.14-.67-.16-1.01-.16l-.63-.36-.47.54-.26.05-.22-.07v-.02s-.08-.03-.08-.03l-.05.03-.09-.03.02.34-.6.35h-.27l-.16-.31-.32.16-.27-.21v.12s-.25.33-.25.33l-.66.25c-.08-.01-.16-.01-.24,0l-.54-.67-.23.08.14.51.3.25-.28-.19.09.33-.22-.38.23.42.47-.13c.07,0,.15.02.23,0l.41.9.17.02-.1.13.05.11-.13.14-.07-.06-.23.3c.07-.02.14-.05.2-.07.11-.04.24-.1.4-.12l.72-.24.45.09c.35-.11.65-.12.93-.14.42-.02.79-.04,1.19-.36l.16-.6.21-.11.48.12.05-.16ZM153.94,64.34c2.05,1.55,4.17,2.99,6.67,2.46h0s0,0,0,0c-2.49.53-4.7-.97-6.67-2.46ZM162.25,66.81c-.11.03-.25.06-.41.08.14-.02.28-.05.41-.08ZM161.04,66.85h0s.05.01.07.02l.05-.19-.24.04c0,.06.06.1.12.12ZM162.83,66.3l-.11.18-.36.29c.13-.05.25-.1.33-.17l.49-.14s-.06,0-.1-.02l-.26-.14h0ZM163.95,66.24c-.05.03-.11.06-.16.09l.44-.08-.02-.02h-.26ZM164.23,66.23v.02s.04-.02.04-.02h-.04ZM164.54,66.02h0s-.02.03-.02.03h.02c.35-.15.71-.26,1.09-.36-.35.09-.69.19-1.02.32h-.08ZM160.56,65.41l.55.08.33.21.04-.14h0s.11-.01.21-.03l.19-.31.38-.3c.34-.11.71-.08,1.03.07.2-.16.43-.26.67-.3.11-.01.21-.02.3-.01.75-.28,1.54-.44,2.3-.59.62-.13,1.19-.24,1.68-.4l-.43-.43-.2-.49c0-.24.05-.47.16-.67l-.15-.15-.2-.49c0-.11.01-.23.04-.34-.11.02-.23.03-.36.03l-.39-.16c-.81.2-1.67.52-2.5.82l-.34.12c-1.38.51-2.66,1-3.93.91l-.54-.31-.62-.95-.06-.64c.98-2.39,2.46-4.49,4.79-6.83l.32-.23c1.61-.7,3.23-1.2,4.8-1.68,1.67-.51,3.39-1.04,4.88-1.72-.04-.05-.07-.11-.11-.18-.16-.2-.27-.44-.31-.7l.09-.46.48-.8.37-.3c.28-.09.58-.09.86,0l-.2-.21c-.17-.41-.13-.88.09-1.26l.09-.43.48-.8.36-.29c.29-.1.6-.1.88,0,.19-.14.41-.24.65-.29l-.08-.08-.2-.49c-.29.12-.57.24-.85.36-1.1.47-2.23.96-3.75,1.2-1.59.24-3.03-.26-4.31-.71-.76-.26-1.46-.49-1.87-.49h-.01s-.04.08-.06.11c-.07.24-.19.47-.35.66-.01.34-.15.68-.39.94-.12.16-.26.3-.43.41h0c-.22.19-.49.31-.77.35-.07.01-.15.01-.23.01-1.04,1.19-2.21,2.01-3.56,2.48l.03.07v.03s.17.17.17.17l.2.55c-.1.99-.69,1.52-1.07,1.82-.12.26-.3.47-.53.63-.1.16-.23.29-.39.4-.08.24-.22.44-.4.62-.22.83-1.01,1.66-1.8,1.88l-.36-.08c-.15.13-.29.24-.42.33-.03.22-.11.44-.25.63-.05.1-.1.2-.17.28-.04.09-.09.17-.15.25-.05.07-.11.14-.17.19-.11.17-.25.32-.42.43-.11.1-.23.18-.36.24-.17.22-.34.44-.52.65-.71.89-1.34,1.67-1.64,2.73.71.45,1.4.98,2.13,1.54,2.12,1.61,4.09,3.13,6.26,2.53ZM167.76,65.23c-.28.07-.58.12-.88.19-.23.05-.45.09-.68.14.22-.05.44-.09.66-.14.3-.06.6-.12.9-.19ZM171.62,64.9l.07.28.04-.08-.1-.2ZM169.77,64.35l-.44.38c.17-.08.33-.17.48-.26l.56-.08s.02,0,.03,0c0,0,0,0,0,0l-.04-.02h-.41s-.02.05-.02.05v-.06s-.16,0-.16,0ZM185.9,62.9c.3.28.6.56.9.84-.3-.28-.6-.56-.9-.84ZM151.51,62.56c.53.35,1.07.75,1.62,1.16-.56-.42-1.09-.82-1.62-1.16ZM169.85,63.46l.08.14h0s-.08-.14-.08-.14l.07.07-.03-.12.36-.42-.07.03-.03-.04v.03s-.14.01-.14.01v-.23s-.33-.38-.33-.38v.16l-.3.3.45.43v.23s.02-.06.02-.06ZM170.69,63.16l.03.03.03-.13c-.06-.01-.11,0-.11,0l.04.11ZM169.22,62.56l.1.13c.06-.04.06-.11.06-.13h-.16ZM150.82,62.15c.07.04.14.08.21.12l-.33-.72c.26-1.42.95-2.43,1.68-3.36-.81,1.03-1.52,2.07-1.73,3.65l.17.31ZM169.96,62.11h0s0-.07,0-.07v.07ZM160.15,61.13l.21.33c.9-.04,1.95-.43,3.05-.83l.13-.05c-.82.3-1.56.56-2.24.72l-.77-.98c.87-1.73,2.1-3.36,3.87-5.14l.22-.15c1.34-.56,2.83-1.02,4.27-1.46-1.49.46-3.02.93-4.4,1.52l-.1.08c-1.99,2.01-3.34,3.89-4.25,5.97ZM177.92,57.95c1.74,0,3.24.29,4.36,1.51.64.64,1.29,1.27,1.94,1.88-.64-.61-1.29-1.23-1.94-1.88-1.2-1.3-2.76-1.53-4.67-1.51.1,0,.21,0,.31,0ZM170.34,60.89l.03.05v-.02s-.03-.04-.03-.04h0ZM172.33,59.86l.19.13c.05-.05.1-.1.16-.15h-.03c-.1,0-.2,0-.32.01ZM166.74,59.56l.6.17c.06-.02.1-.04.12-.07l.52-.29c-.4.03-.82.09-1.24.18ZM168.85,59.39s.09,0,.14.01l.35-.14c.07-.08.16-.15.25-.21-.07.05-.13.1-.19.15l-.54.18ZM168.34,59.37c.14,0,.28,0,.41.01-.18-.01-.36-.02-.54-.01.04,0,.08,0,.12,0ZM173.02,58.39l-.29.08.25-.06s.03-.01.04-.02ZM174.74,58.1c-.1,0-.2,0-.3,0,.1,0,.2,0,.3,0ZM175.8,58.04c-.09,0-.19.01-.28.02h-.15c-.08.02-.17.02-.25.02.08,0,.16,0,.25-.01h.15c.1-.02.19-.02.29-.03ZM153.31,57.02c-.09.12-.18.23-.27.34.09-.11.18-.23.27-.34h0ZM153.31,57.01h0s.02-.03.03-.04l.21-.14-.14.04s-.07.09-.1.14ZM154.02,56.21l.05.18.38-.61.26-.74c.07-.05.15-.11.25-.18l.03-.02h0s-.02.01-.03.02c-.34.24-.7.49-.81.99l-.23-.05.03.12.1.02-.03.21.16.03h-.16s0,.02,0,.02h0s0,0,0,0ZM154.98,54.84h0s.03-.02.04-.03c-.01,0-.03.02-.04.03ZM155.61,54.22l-.05.11s-.07.09-.11.13c.03-.03.06-.07.09-.11l.24-.03v-.1h-.17ZM155.77,54.22l.02.1.7-.09c.25-.18.52-.5.6-.8l.34-.6c.05-.05.08-.08.1-.19l.43-.54.44-.44s.07-.03.1-.14l.21-.32c.33-.26.55-.45.66-.72l-.08-.08-.03-.3-.07.03-.3-.67-.03.56c-.45.62-.98,1.27-1.5,1.91,0,.01-.02.02-.03.03l.24.21s0,.01,0,.03l-.18.33-.19.19-.32-.18c-.39.49-.74.94-1.02,1.34l-.16.19.07-.02v-.05s0,.05,0,.05h.05s.02.16.02.16h-.04ZM155.77,54.22h.04-.04ZM155.61,54.22h.15-.15ZM157.3,52.42l.02.03s.02-.02.02-.02h-.04ZM174.95,50.47l.02.38-.38.66c.24-.12.48-.24.71-.37l.5-.07c.19.05.35.02.53-.05l-.45-.29s-.08.07-.12.1l-.13-.17-.43.32-.16-.08-.04-.44h-.03ZM179.07,51.05l-.23.25c.1-.06.19-.15.23-.25ZM177.02,50.38l-.08.29c.15-.08.31-.14.49-.14l.51-.24c.22-.26.52-.29.79-.31.36-.03.63-.08.83-.35l.34-.82c.08-.03.16-.06.24-.1l.66.02c.38.22.63.29.85.22.08-.03.16-.07.22-.14l.58-.02v-.11h.11l.28-.29.31-.57.64.31.22-.36.46.28.17-.15.48-.02.03.06.26-.09.1-.14.46-.09.09-.13h0s0,0,0,0l-.03-.02-.29-.44c-.01-.05-.03-.17-.28-.36l.08-.11-.44-.16.3-.75-.02-.03.05-.03.07-.19c.1-.03.18-.06.26-.09.15-.06.25-.09.34-.11l.82.47.03.43.16.11.11-.3-.04-.3-.27-.04h.27l-.02-.12.2.11-.2-.11-.05-.37.29.4h.01s-.26-.43-.26-.43l.23.11-.04-.3c.08-.11.14-.23.18-.36l-.55-.18-.07-.16.23-.82.28-.28h.38s-.03-.03-.03-.03h.06s.15,0,.15,0l.04-.08-.14-.25.17-.23-.09-.03h.11s.03-.04.03-.04l-.08-.05-.21-.25-.2.16-.53.07-.51.38-.02-.03-.07.21-.76-.25h-.03s0,0,0,0l-.3-.1.2-.08-.31-.14c0-.14.02-.27.07-.4l.24.09.09-.09-.11-.16.07.02-.15-.11c.05-.07.13-.16.24-.24v-.05c.07-.03.14-.07.2-.11l.11-.05c-.05.02-.1.04-.14.05l-.76-.66-.76.22c-.79.25-1.56.49-2.36.72l.54.38.05-.03.08.13.21.15.04.33h-.03v.18l-.25-.08-.29.11.03.11s.09,0,.13,0v-.11c.14.01.27.04.39.09h.03s.08.04.13.05v.03s.02,0,.02,0l.05-.02.51.28-.11.73.06.04-.06-.03-.06.37-.64.03-.02-.03-.56.13-.27-.27-.1.05-.61-.73.28-.22-.12-.07.13.07.44-.36-.37.14-.22-.35.1-.25s0-.09-.01-.13h.06s.25-.64.25-.64c-1.17.33-2.38.62-3.74.84l.71.98-.32.58.19.19h.26c.14.03.21.01.25,0l.83.26.54.82.26.12.16.9-.51.8s-.06.07-.1.1l-.07-.07-.26.06h.01s-.23.28-.23.28l.04.03-.63.39-.14-.14.06.12-.16.08-.1-.24-.44.24v-.48s-.05-.12-.05-.12h-.27s.02-.18.02-.18l.18.03-.06-.12h-.37l.35-.03-.23-.46.13-.11.14.07-.02-.09.05.1.39.19.42-.36.08.07.08-.05v.13l.14.13-.04-.23-.08-.05.04-.07-.15-.45-.13-.11-.13.09v.08s0-.08,0-.08l-.06.04v-.05l-.08.08h.03s-.08.06-.08.06l-.46.48-.55-.18s.02-.05.03-.07l-.05-.02-.08.06-.14-.09s-.08.05-.1.07l.05.17-.32.26-.15-.03-.09-.16-.55.18-.08-.05-.18.4.05.19.44.2-.11.24.2.11.09-.15.22.16-.02.03.16.3h-.07s.15.51.15.51l-.16.04-.07.15.16-.13.07.23.08-.05-.08.06.19.61-.31.13.13.12.06-.03-.02.07.09.08-.14.62-.11-.09ZM174.93,50.25v.18s.03-.01.03-.01l-.02-.2-.02.03ZM175.64,49.46l-.2.29.32-.25-.08-.06h-.04ZM175.7,49.43l.07.03.03-.05s.04-.02.05-.03h.05s.09-.06.09-.06l-.29.1ZM158.81,48.71c-.02.24,0,.43.06.54l.42-.85c-.08.02-.15.04-.23.05l-.25.25ZM174.71,48.8l-.16-.22.16.22ZM176.77,48.67l.08.12.07-.16-.15.03ZM163.97,44.64c-.05.05-.06.1-.06.12l-.11.23-.19.2-.18.34c-.89,1.17-1.82,1.96-2.89,2.46.96-.45,1.81-1.13,2.59-2.09l.47-.25.41.02.25-.11-.02-.04.15-.17.18-.05-.11-.55.2-.23c.09-.07.15-.16.17-.27l.18-.36h-.2s.03.12.03.12l-.1-.14c-.08.1-.16.21-.23.34l-.06-.03-.02.21-.31.31-.14-.06ZM179.84,47.23h.02s-.02,0-.02,0ZM187.37,46.29h.02v-.03s-.03,0-.03,0v.02ZM163.97,44.21l.2.25c.12-.11.13-.18.13-.25h-.33ZM170.86,44.4c.42.06.84.07,1.26.02-.43.05-.85.04-1.26-.02ZM175.69,43.26s-.07.03-.1.04c-.41.17-.81.35-1.22.5.41-.16.81-.33,1.22-.5.03-.01.07-.03.1-.04ZM187.23,43.49s-.07.08-.08.15l.14-.05-.06-.11ZM165.12,43.51l.07.11.16-.24c.21-.11.44-.16.68-.18-.34.02-.64.12-.91.31ZM177.47,42.55s-.01,0-.02,0h.02ZM185.86,41.35s-.04.01-.06.03l.08.15.06-.05v-.03s-.08-.1-.08-.1ZM186.41,40.9h0s0,0,0,0c0,0,0,0,0,0Z"/>
      </g>
      <path class="cls-2" d="M153.89,50.98c-.26-.19-.46-.19-.52.2-.72.13-.07.65-.39.91-1.04-.39-2.47,1.89-2.99,3.19-.33-.71-.98,0-1.17.59-.13-.06-.13.07-.13.2-1.17.65-2.02,1.63-2.86,2.6-.13-.07-.13.07-.2.2-.13-.07-.13.06-.13.19-.19-.06-.19.07-.19.2-.2.06-.33.13-.39.32-.13,0-.2.07-.2.2-.13,0-.2.07-.2.2-.13,0-.19.06-.19.19-.13-.06-.13.07-.2.2-.13-.07-.13.06-.13.19-.19-.06-.19.07-.19.2-.2-.07-.2.06-.2.13-.2,0-.2.13-.2.2-.19,0-.19.06-.19.19-.26.13,0,.26,0,0,.19.07.19-.06.19-.19.13.06.2-.07.2-.2.13.07.2-.07.2-.13.13,0,.13-.13.19-.2.13,0,.13-.06.13-.19.2,0,.2-.07.2-.2.19.07.19-.06.19-.19.2.06.2-.07.2-.2.2.07.2-.07.2-.2.32.07.32-.13.39-.32.13,0,.13-.13.19-.2.13,0,.13-.06.13-.19.2,0,.2-.07.2-.2.52.13.39-.39.78-.39-4.04,4.3-8.01,8.72-12.56,12.56v-.39c.13.07.19-.06.19-.19.13.06.2-.07.2-.13.26-.13-.07-.26,0,0-.2-.06-.2.07-.2.13-.19,0-.19.13-.19.19-.39.33-.85.52-.91,1.17-.19-.07-.19.06-.19.19-.2-.06-.2.07-.2.13-.19,0-.19.13-.19.2-.2,0-.2.06-.2.2-.65,1.11-1.3,2.6-2.8,3.38.07-.13.2-.32.2-.59.13.07.13-.06.19-.19.26-.07-.06-.2,0,0-.19,0-.19.13-.19.19-.33.2-.59.33-.59.78-.13-.07-.2.06-.2.19-.26.13,0,.2,0,0,.2,0,.2-.06.2-.19.13-.07.2-.2.39-.2,3.13-.78,6.12-1.24,8.79-2.99.26,0,.46.06.39.39,3.52-1.43,7.42-2.21,11.98-2.67,0,.33-.46.2-.39.59-.46.2-.78.46-1.5.39-.26.2.13.33-.32.52h-.2c0,.26.2.13.2,0,.39.46.72-.13,1.5,0-.91.2-.39.78-1.5.78,0,.19.06.45.32.39,0,.19-.13.19-.13.33h-.19c-.13-.26-.26.06,0,0v.39c-1.56.19-3.06.45-4.17,1.11-.26.13-.98-.2-.91.19-.91.07-1.04.2-1.5.39.26.39,1.37,0,1.5-.39.26-.06.98.26.91-.19,2.28-.26,3.65-.98,6.38-1.11-1.43.72-2.28.45-3.19,1.69.06-.2.32-.39,0-.59v-.13c.26,0,.32-.07.39-.2-.2-.06-.33,0-.39.2-.2,0-.07.13,0,.13-.39.39-.98.46-1.5.19,0-.19-.33-.13-.52-.19,0,.26.33.19.52.19-.33.59-.65.33-1.5.59,0,.33.2.46.59.39-.59.33-1.63,1.76-2.47.91.33,0,.72.13.78-.2.39.13.52-.13.72-.19,0-.39-.65.06-.72.19-.32.07-.72-.06-.78.2-.2,0-.46.13-.13.19-.07.13-.2.2-.39.2-.07-.26-.39-.2-.39,0h-.58c.06.2.39.13.58.2-.52.58-1.89.39-2.28,1.11-.78-.2,0,.58,0,0,.33,0,.65,0,.59.39-.46.06-.65.46-.91.72,0-.13-.26-.13-.39-.2,0,.2.2.2.39.2-.06.26-.32.19-.59.19-.39-.59-.45.65-.71.78-.65-.52-1.56.45-1.56.52-.26.65-.52-.26-.72-.33-.2.33-.39.59-.78.72-.13.07-.33,0-.33.2-1.3.45-2.54.98-3.97,1.3.26.26.58.39-.2.39,0-.19-.2-.13-.2,0-1.04.26-1.5.52-2.21.72-4.82,1.69-8.14-2.73-11.26-4.1.07-.59.46-.85.39-1.5,8.79-11.46,19.53-20.96,29.42-31.31-6.31,2.47-13.02,7.55-18.75,12.56-.33.19-.65-.59-.78,0-.58-.65-1.56-1.04-2.02-2.21-.2,0-.33.19-.39.32-.85-1.04-2.6-2.8-2.99-3.38,2.15-3.06,6.7-5.4,9.96-8.01.13,0,.19.13.13.33.52-.33.91-.72,1.37-1.11,0,.19.19.13.19,0,.2,0,.07-.2,0-.2,2.47-1.3,6.25-3.25,9.37-5.08,1.11.06,1.63-.46,2.21-.91,2.8-.06,4.23-1.89,6.38-1.5,2.8.52,4.17,4.43,6.77,5.79.59,3.45-2.41,4.69-3.58,6.97h-.2c0-.19-.19-.13-.19,0ZM124.46,75.71c.13-.06.39,0,.39-.19-.13.06-.39,0-.39.19ZM127.46,75.91c-.13-.07-.19.06-.19.19-.13.07-.33.13-.39.39-.52,0,.2.71,0,0,.33.06.39-.2.39-.39.19,0,.19-.06.19-.19.2,0,.2-.07.2-.2h.19c.13-.13.26-.52,0-.59-.13.2-.19.33-.19.59-.13-.06-.2.07-.2.2ZM128.04,76.3c.26-.13-.07-.26,0,0-.59,0,.2.78,0,0ZM128.56,71.22c-.26.13.07.19,0,0,.2,0,.2-.07.2-.2.26-.13.45-.26.59-.59-.39,0-.59.2-.59.59-.13-.07-.13.06-.2.2ZM129.15,74.02c-.13,0-.2.07-.2.2-.26.13,0,.2,0,0,.2.06.2-.07.2-.2.2.07.2-.06.2-.19.32-.13.58-.39.71-.72-.45,0-.71.26-.71.72-.2,0-.2.06-.2.19ZM130.06,74.02c-.13,0-.13.07-.13.2-.32.13,0,.2,0,0,.13.06.13-.07.13-.2.2.07.2-.06.2-.19.33-.13,0-.2,0,0-.13,0-.13.06-.2.19ZM130.26,83.59c0,.13-.13.2-.2,0h.2ZM130.45,74.41h.19c.13-.13.33-.52,0-.59-.06.19-.19.32-.19.59-.26.13.06.19,0,0ZM131.75,71.22c-.13-.07-.13.06-.19.19-.13-.06-.13.07-.13.2-.2-.07-.2.06-.2.19h-.2c0,.26-1.04.72-.19.72-.2.78.59.07,0,0,0-.39.52-.26.39-.72.13,0,.13-.13.2-.19.13,0,.13-.07.13-.2.19,0,.19-.06.19-.19.33-.13.46-.33.59-.59.26-.13,0-.2,0,0-.39,0-.59.19-.59.59ZM130.65,73.11c-.13-.26-.19,0,0,0-.19.78.59,0,0,0ZM131.43,73.3c.26-.13-.07-.26,0,0-.33.07,0,.2,0,0ZM133.12,71.81c.13.65-.52.59-.78.91v-.39c.13.06.2-.07.2-.2.13.06.19-.07.19-.2.13,0,.2,0,.2-.13h.19ZM134.62,68.23c-.2.07-.39.13-.39.39-.19-.06-.19.07-.19.13-.2.13-.33.2-.39.39-.26.26-1.24.78-.72,1.11.06-.46.78-.46.72-1.11.32.07.39-.13.39-.39.13.07.19-.06.19-.13.33.07.33-.19.39-.39.26.07.32-.13.32-.39.85.06.07-.72,0,0-.13.06-.32.19-.32.39ZM133.12,45.71v.2h-.19c0-.13,0-.2.19-.2ZM133.12,70.83c-.32.13,0,.26,0,0,.13.07.13-.06.13-.19.33-.13,0-.2,0,0-.13,0-.13.06-.13.19ZM133.12,71.81v-.19c.13,0,.2-.2.33-.2,0,.2-.07.46-.33.39ZM133.64,71.22c0,.13,0,.19-.2.19,0-.13.07-.26.2-.19ZM133.64,65.95c.26-.13,0-.19,0,0-.26.13,0,.26,0,0ZM133.84,71.03c0,.13,0,.2-.19.2,0-.13.06-.26.19-.2ZM134.03,70.83c0,.13,0,.26-.2.2,0-.13,0-.2.2-.2ZM134.23,65.43c.26-.13,0-.26,0,0-.26.07,0,.2,0,0ZM135.14,77.8c-.33,0-.59.13-.72.33.39.06.72,0,.72-.33ZM135.33,64.06h-.19c-.13.2-.26.52,0,.59.13-.13.19-.33.19-.59.39.07.59-.13.59-.52.78,0,.07-.78,0,0-.26.06-.45.26-.59.52ZM135.53,79.1c.13-.07.39,0,.39-.2-.13.07-.39,0-.39.2ZM136.12,80.01c.26-.13-.07-.19,0,0-.33.13,0,.26,0,0ZM137.61,78.32c-.65.07-1.24.2-1.5.59.59-.06,1.17-.19,1.5-.59ZM137.61,65.23c-.2-.07-.2.06-.2.19-.19-.06-.19.07-.19.13-.2,0-.2.13-.2.2-.26.13-.45.33-.59.59-.71.06.07.85,0,0,.46.06.65-.13.59-.59.13.06.2-.07.2-.2.13.07.19-.06.19-.13.13,0,.13-.13.2-.19.13,0,.13-.07.2-.2.26-.13-.07-.26,0,0-.2-.07-.2.07-.2.2ZM136.25,68.23c-.26.13.06.2,0,0,.19,0,.19-.06.19-.2.33-.13,0-.26,0,0-.13-.06-.13.07-.19.2ZM136.64,79.81c.52.13.72-.07.59-.52-.52-.13-.39.39-.59.52-.26.13.07.26,0,0ZM137.42,75.32c.13,0,.33,0,.39-.2-.2.07-.39,0-.39.2ZM137.81,79.1c-.07.26-.33.32-.39.52.39.2.85-.46.39-.52ZM137.94,66.54c.32-.13,0-.26,0,0-.26.13.06.2,0,0ZM140.61,75.91c-.98.19-1.89.45-2.67.91,1.24-.26,2.02,0,2.67-.91ZM138.13,78.12c.2,0,.39,0,.39-.13-.13,0-.39,0-.39.13ZM138.91,78.9c-.33,0-.65,0-.59.39.33,0,.52-.13.59-.39ZM139.3,63.54c-.2-.07-.2.06-.2.19-.19-.06-.19.07-.19.2-.33-.07-.39.13-.39.33-.26.13,0,.26,0,0,.2-.07.33-.13.39-.33.13,0,.19-.13.19-.2.13,0,.13-.06.2-.19.13,0,.13-.07.13-.2.33-.13,0-.26,0,0-.13-.06-.13.07-.13.2ZM139.11,77.8c.13-.06.33,0,.33-.19-.13,0-.33,0-.33.19ZM139.63,75.13c1.04.2.26-.52,0,0-.26.13.06.26,0,0ZM139.83,74.22c.13-.07.39,0,.39-.2-.13.07-.39,0-.39.2ZM140.22,76.82c-.06-.52-.78.2,0,0,.2.59.98-.19,0,0ZM141.71,61.07c-.13,0-.19.06-.19.19-.13,0-.2.07-.2.2-.13.06-.32.19-.39.39-.13-.07-.13.07-.13.2h-.2c-.06.39-.52.32-.58.71-.26.13,0,.26,0,0h.39v.39c-.91-.2.19.91,0,0,.19-.07.19-.39,0-.39,0-.32.52-.19.39-.71.13,0,.13-.07.13-.2.33.07.39-.13.39-.39.2.06.2-.07.2-.2.19.07.19-.06.19-.19.13.06.2-.07.2-.2.26-.07,0-.2,0,0-.2,0-.2.13-.2.2ZM140.02,74.61c.13-.06.39,0,.39-.19-.13,0-.39,0-.39.19ZM140.22,79.1c0,.06-.13.19-.19,0h.19ZM140.22,59.25c.26-.13,0-.26,0,0-.26.06,0,.19,0,0ZM140.22,77.41c.26-.13,0-.26,0,0-.26.13,0,.2,0,0ZM140.22,79.1c0-.26.26-.26.2-.59.19.13.65.46.52-.2.26,0,.46.13.59.2v.39c-.2,0-.52-.06-.59.2-.33-.33-.19,0-.72,0ZM140.41,77.8c.26-.13,0-.26,0,0-.26.07,0,.2,0,0ZM140.61,74.41c.13-.07.33,0,.33-.2-.13.06-.33,0-.33.2ZM140.8,75.32c.26-.13-.06-.2,0,0-.33.13,0,.26,0,0ZM140.8,74.8c.13-.07.33,0,.33-.2-.13,0-.33,0-.33.2ZM141.32,75.71c.26-.13,0-.19,0,0-.78-.19,0,.59,0,0ZM141.52,57.88c-.13,0-.2.13-.2.19-.13,0-.13.07-.19.2-.26.13.06.26,0,0,.19.06.19-.07.19-.2.2.07.2-.06.2-.19.19.06.19-.07.19-.13.85,0,.07-.78,0,0-.13-.07-.19.06-.19.13ZM141.13,63.35c.32-.13,0-.26,0,0-.26.13.06.2,0,0ZM141.13,77.21c.39,0,.65-.13.78-.39.78.2,0-.52,0,0-.46-.06-.72.07-.78.39ZM142.3,61.26c-.32,0-.52.13-.59.39.33,0,.46-.13.59-.39.13.07.13-.06.2-.19.26-.07-.07-.2,0,0-.2,0-.2.06-.2.19ZM141.71,77.41h.39c-.07.13-.2.2-.39.2v-.2ZM142.1,74.41c-.78-.2-.07.52,0,0,.26,0,.52,0,.52-.2,1.04.2.26-.59,0,0-.26,0-.52-.07-.52.2ZM142.1,62.43c.26-.13-.07-.26,0,0-.26.06,0,.19,0,0ZM142.1,73.44c.13,0,.32,0,.39-.13-.2,0-.39,0-.39.13ZM142.49,78.51c-.07.13-.07.26-.2.2,0-.13,0-.2.2-.2ZM142.49,57.88c.13.06.13.19.33.19.19-.65-.26-.65-.33-.19-.33.13,0,.26,0,0ZM143.6,77.99c-.2.39-.85.26-1.11.52-.07-.59.65-.46,1.11-.52ZM142.62,76.3c.2,0,.2.2.2.33.52.19.84-.59.39-.72.19.85-.46-.26-.59.39-.26.06.06.2,0,0ZM143.4,74.41c-.32,0-.65.13-.78.39.46,0,.72-.07.78-.39ZM145.29,57.55c-.2.06-.33.13-.39.33-.13,0-.2.13-.2.19-.13,0-.2.07-.2.2-.13,0-.19.06-.19.19-.13,0-.13.07-.2.2-.13-.07-.13.07-.13.2-.19-.07-.19.06-.19.19-.33-.06-.39.13-.39.33-.45-.2-.85.65-.39.78-.13-.52.39-.39.39-.78.13-.07.33-.13.39-.33.13,0,.13-.06.19-.19.13,0,.13-.07.13-.2.2,0,.2-.07.2-.2.19.07.19-.06.19-.19.2.06.2-.07.2-.2.2.07.2-.06.2-.19.32.06.32-.13.39-.33.13,0,.13-.07.19-.2.98-.26,1.24-1.3,2.02-1.69.13.32-.52.78,0,.91.13-.46.72-.39.59-1.11.58-.13,1.17-.33,1.11-1.11.19,0,.19-.07.19-.2.2-.06.33-.19.39-.39.13.07.2-.06.2-.19.13.06.13-.07.2-.2.26-.07-.07-.2,0,0-.2,0-.2.06-.2.2-.2,0-.2.06-.2.19h-.39c.33-.46.65-.85,1.11-1.11v.39c.33.07.39-.19.39-.39.26-.13,0-.26,0,0h-.39c.13-.59,1.43-.98.98-1.5-1.56,1.76-4.17,4.1-5.99,6.18-.19-.06-.19.07-.19.2ZM142.82,73.3c.26-.06.52,0,.58-.19-.19,0-.52-.07-.58.19ZM143.21,58.07c.26-.06,0-.19,0,0-.26.13,0,.26,0,0ZM143.6,43.1c.13-.07.33,0,.39-.2-.19.07-.39,0-.39.2ZM143.8,73.11c.13-.07.32,0,.32-.2-.13,0-.32,0-.32.2ZM145.62,53.78h-.13c-.32.85-2.28,1.56-1.5,2.28,0-.2.2-.2.33-.2v.2c-.13.06-.33.13-.33.32-.33.13,0,.26,0,0,.26.07.33-.13.33-.32.26-.07.13-.2,0-.2v-.19c.26-.07.13-.2,0-.2.32-.72,1.17-.85,1.3-1.69.2.07.2-.06.2-.19.33-.13,0-.2,0,0-.13,0-.13.06-.2.19ZM143.99,76.3c.13-.07.33,0,.33-.2-.13,0-.33,0-.33.2ZM144.71,58.86c-.33-.07-.33.19-.59.19v.33h.59v-.52c.2,0,.2-.07.2-.2.78.2.06-.59,0,0-.13-.07-.2.07-.2.2ZM144.32,55.67c-.07,0-.2-.13,0-.2v.2ZM144.32,73.3c.19-.06.39-.06.39-.19-.13,0-.39,0-.39.19ZM144.71,73.63c1.24.26.39-.52,0,0-.78-.13,0,.59,0,0ZM145.1,76.5c0,.13-.26.13-.39.13,0-.13.26-.13.39-.13ZM145.49,55.27c0-.19-.06-.32-.19-.39-.07.26-.33.33-.39.59.32.06.32-.2.58-.2.07.26.2,0,0,0ZM145.1,72.72c.13-.07.39,0,.39-.2-.19.07-.39,0-.39.2ZM146.2,45.51c-.46.06-.78.19-.91.58.32-.19.98,0,.91-.58ZM145.29,76.1c.13-.32.58-.45,1.11-.39-.26.26-.65.33-1.11.39ZM146.4,73.63c-.46,0-.91,0-.91.39.46.07.78-.06.91-.39ZM147.18,73.11c-.72-.07-1.24,0-1.56.33.65,0,1.17-.07,1.56-.33.26-.13.91.19.91-.2.26-.13,0-.26,0,0-.26.07-.98-.26-.91.2ZM146.79,76.1c-.07.26-.46.13-.78.2.06-.33.45-.2.78-.2ZM146.79,57.36v-.39h-.39v.39h.39ZM146.99,75.32c.58.26-.2.52-.59.39,0-.32.52-.13.59-.39ZM146.59,58.27c.39-.39.59-.98,1.3-1.11-.26.52-.72.91-1.3,1.11ZM146.59,72.33c.13,0,.39,0,.39-.2-.2.06-.39,0-.39.2ZM147.18,53.58v.19c-.19,0-.19.07-.19.2h-.2c-.13-.26-.26,0,0,0,0,.19.2.13.2,0,.13,0,.13-.07.19-.2.2,0,.07-.19,0-.19v-.2c.26-.07-.06-.2,0,0-.26.06-.13.2,0,.2ZM147.51,75.91c0,.26-.46.19-.72.19,0-.26.46-.19.72-.19ZM147.9,73.3c-.46-.06-.78.07-.91.33.32-.06,1.11.26.91-.33ZM147.31,45.19c.52-.13.91-.26,1.17-.59.26-.13-.07-.26,0,0-.65-.13-.98.13-1.17.59ZM148.48,50.78c-.2.52-.78.65-.98,1.11.52-.07,1.37-.72.98-1.11ZM148.29,75.71c-.06.26-.46.2-.78.2.06-.26.46-.2.78-.2ZM147.9,72.52c.98.2.2-.59,0,0-.78-.19-.07.59,0,0ZM148.09,55.47h-.2c0,.13-.13.2-.2,0,.26-.33.39-.72.98-.78-.06.39-.52.39-.58.78ZM148.68,75.13c-.06.26-.39.2-.58.2,0-.2.32-.13.58-.2ZM148.81,56.38c-.13,0-.19-.13-.13-.32.07-.07.2-.07.13-.2.33,0,.13.39,0,.52ZM148.81,52.87c0,.19-.32.39,0,.52.07-.2.39-.39,0-.52ZM149.39,54.17c-.13-.06-.19.07-.19.2-.26.06-.26.33-.52.33,0-.52.39-.65.72-.91v.39ZM149.98,73.3c-.2.33-.72.39-1.3.33v-.19c.59.13.65-.33,1.3-.13ZM148.81,71.03c.2-.07.39,0,.39-.2-.13.07-.33,0-.39.2ZM149.39,71.03c.2,0,.52.06.59-.2-.26.07-.52,0-.59.2ZM150.18,72.33c-.07.26-.39.19-.59.19,0-.19.32-.13.59-.19ZM150.5,73.11v.33h-.32v-.33h.32ZM150.89,70.83c-.06.26-.26.39-.58.39v-.2c.26,0,.26-.26.58-.2ZM150.7,75.13c0,.2-.2.2-.39.2.06-.2.26-.13.39-.2ZM151.48,73.11c0,.13-.26.13-.39.19,0-.19.26-.19.39-.19ZM151.67,53.39c-.13,0-.26-.13,0-.2v.2ZM152,50.78c-.58-.59-.26.65,0,0,.33-.13,0-.26,0,0ZM152.78,50c.26-.06,0-.19,0,0-.26.13,0,.26,0,0ZM153.5,51.69c-.2,0-.2-.26-.13-.52.39.06.39.26.13.52ZM154.08,50.98c0,.07-.13.2-.19,0h.19Z"/>
      <path class="cls-2" d="M186.43,41.22c-.58-.13-.58.32-1.17.19v.78c-.33-.52-.91.65-1.11-.2.2,0,.2-.07.2-.2h.58c-.06-.26-.58-.26-.58,0-.13-.06-.2.07-.2.2h-.2c0-.26-.32-.2-.39,0-.39-.13-.46.13-.72.2,0,.13.26.13.39.13,0,.26-.32.19-.39.39.07.26.46.19.72.19-.06.39.33.39.59.39.06-.39-.26-.39-.59-.39.72-.26,1.37-.52,2.28-.58-.85.52.78.52.78,0,.2.06.39.06.33.39-1.04.39-1.04.46-2.41.78.2.52.78-.06,1.11,0-.13.59-1.24.26-.72,1.11-.65-.13-.58.33-.98,0,0-.26.33-.19.39-.39.26-.13,0-.2,0,0-.52,0-1.11-.07-1.11.39-.19-.06-.19-.19-.39-.19,0-.2-.26-.13-.39-.2-.13-.26-.2.07,0,0,0,.2.26.13.39.2v.39c-.45-.07-.78-.39-1.11,0,0,.19.26.19.52.19.07.39-.52.2-.52.52h-.59c.07.26.59.26.59,0,1.11.19,2.6-.85,4.1-.91.06.2.19.46.39.59-.52.07-.72.39-1.69.33-.19.58.98.78.39,1.17-.45-.13-.58-.39-.58-1.3-.26,0-.46,0-.39.32-.45-.45-.26.52-.72,0-.06.26,0,1.17.2.59.13.07.2.13.13.39-.52-.19-.46.26-.91.2.06.13.19.19.39.13-.07.33-.46.19-.78.19-.19-.71.52-.45.78-.71-.07-.26-.33-.33-.39-.59.19.06.19-.07.19-.2-.13,0-.19.07-.19.2-.26,0-.72-.07-.72.19-.26.07-.65.85-.2.91v.19h-.39c.07.26.39.2.39,0h.52c-.13.91.52-.26.59.39-.26.13,0,.26,0,0h.59c-.46.58-1.5.52-1.89.78,0,.2.26.2.52.13-.33.85-1.04.39-1.63,0,.13-.78,1.11-.52,1.5-.72-.07-.39-.85-.06-.98-.39-.33.07.33.52-.52.39v-.19c.26-.13-.07-.2,0,0-.59-.13-.72.19-1.17.19.07.2.33.13.59.2-.07.19-.33.13-.59.19.46.78.85-.39,1.17.33-.33.33-.85.46-1.56.39,0-.19-.2-.13-.33-.19,0,.19.2.19.33.19-.26.39.06.26,0,.78.26-.07.39-.26.78-.2-.45.91-1.5.07-1.89,1.11-.91-.33-1.3.85-2.21.39-3.19,1.89-7.55,2.6-11.07,4.1-1.82,1.82-3.45,3.84-4.49,6.38,2.41.06,6.18-2.54,9.18-2.02.65-.91,2.21-.91,3.71-.98.72-.45,1.5-.32,2.47-.39,2.86-.19,5.27-.39,6.9,1.37,1.82,1.82,3.65,3.45,5.27,5.01-.85,4.75-6.25,5.99-9.18,8.07-4.88,3.45-10.61,5.99-15.75,9.18-2.54,1.56-5.53,2.73-8.27,4.49,0-.46-.26-.72-.72-.72,0-.2.13-.26.19-.39.26-.13-.06-.2,0,0h-.58v-.2c.13.07.19-.06.19-.2h.2c-.07-.19-.2-.06-.2,0-.19,0-.19.07-.19.2-.39.07-.39-.2-.78-.2-.72-1.24-2.08-1.76-3.32-3.71.72-.85,2.15-1.89,3.71-2.47.07.26.39.2.39,0h.39c-.07.2.06.2.19.2.07.26.2,0,0,0,0-.13-.13-.2-.19-.2,0-.2.19-.13.32-.2.13.33.26,0,0,0,.07-.13.2-.13.2-.32.26,0,.33-.07.39-.2.2,0,.33-.06.39-.19h.39c.13.45.13.52,0,.91.52.33.52-1.24,0-.91-.07-.46.52-.2.52-.59h.39c.13.26.2,0,0,0,.2-.26.2-.65.59-.72.06.26.19-.07,0,0,0-.2.13-.26.32-.2.13.26.26,0,0,0,.33-.26.46-.58.98-.58-.19.65.46.19.52,0,.32-.13,0-.2,0,0h-.33c.07-.52.52-.72,1.11-.72.13.26.2-.07,0,0,6.51-4.3,13.86-7.49,20.24-12.24-.06-.26-.45-.13-.78-.13-.46-.39,1.24-.13,1.69-.2-.13-.46-1.04-.06-1.5-.19-.32-.39.13-.39.2-.78-.91.07-1.89-.06-2.6.59-.26-.33-.72-.39-1.3-.39-.52,0,.46.52-.39.39-.13-.52-1.89,0-1.3.2v.19h-1.3c-.07-.26-.52-.19-.78-.19.07.26.46.13.78.19v.2h-.59c.07.19.59.19.59,0h1.3c-.91.39-.13.13,0,.91-.91-.06-1.37.26-2.08.39-.06.46.85-.13.59.52-.65-.39-1.17.52-2.08,0,0-.13-.19-.13-.39-.13,0,.13.26.13.39.13-1.43,1.17-3.97,1.04-5.79,1.89-.07-.2-.2-.06-.2,0-.45.26-.72.46-1.3.2-.13-.26-.26,0,0,0,.13.52-1.82.78-1.89.39-4.04,1.11-7.16-3.06-10.28-4.69.26-2.54,1.82-3.78,2.99-5.47,0,.26.19.13.19,0,.13.06.13-.07.13-.2.2,0,.26-.13.2-.32.2,0,.2-.07.2-.2.26-.13,0-.26,0,0h-.2c.2-.91,1.17-.98,1.5-1.69.33-.13,0-.26,0,0,.78-1.24,2.54-3.12,3.58-4.69-.26-.06-.52-.13-.39-.98,2.21-.39,3.58-1.63,4.69-3.12,0,.45.13.19.39.13.06.26.19.13.19,0,.13.06.2-.07.2-.13.19-.07.06-.2,0-.2v-.39c.13,0,.19-.07.19-.2.2-.06.39-.26.33-.59.33-.06,0-.19,0,0-.13.07-.13.2-.33.2,1.56-2.6,4.62.65,7.68.2,2.08-.33,3.32-1.17,5.4-1.89,2.93-.39,5.34-1.24,7.88-2.02.32,0,.13.52.39.52s.45-.07.39-.33c.19,0,.19.26.19.52ZM151.35,79.68c.26-.13,0-.26,0,0-.26.06,0,.19,0,0ZM152.33,79.1c.26-.13-.06-.26,0,0-.33.13,0,.19,0,0ZM153.24,78.32v.2h-.39c.07-.13.2-.2.39-.2ZM153.43,78.19c0,.07-.06.2-.19.13,0-.06,0-.19.19-.13ZM153.82,77.99c-.06.13-.26.13-.39.19,0-.19.13-.26.39-.19ZM153.82,56.38v.2h-.19c0-.07,0-.2.19-.2ZM153.95,56.38h-.13c0-.06.13-.19.13,0ZM154.15,77.8v.2h-.33c0-.2.13-.26.33-.2ZM153.95,79.68c.78.13.07-.59,0,0-.26.06.07.19,0,0ZM154.15,56.06c-.07,0-.2-.2,0-.2v.2ZM154.93,77.6c-.19-.07-.32,0-.39.19h-.39c.13-.39.52-.52.98-.59,0,.2-.2.26-.2.39ZM154.54,78.9c.26-.13,0-.19,0,0-.26.13,0,.2,0,0ZM154.54,84.5c.26-.07,0-.2,0,0-.26.13,0,.26,0,0ZM154.93,79.1c.78.19,0-.59,0,0-.26.13,0,.19,0,0ZM155.45,80.01c.19,0,.39,0,.39-.19-.13.06-.33,0-.39.19ZM155.84,77.02c-.07,0-.2-.13,0-.2v.2ZM156.04,76.63c0,.13,0,.26-.19.19,0-.06.06-.19.19-.19ZM157.14,77.41c-.32-.07-.58.06-.52.39h-.19v-.39h-.39c-.06.33.13.33.39.39,0,.2.19.07.19,0,.33,0,.46-.13.52-.39.72.2.33-.65,0-.59-.06-.26-.19.07,0,0-.19.26-.06.33,0,.59ZM157.01,53.06c-.13.59-.71.65-.78,1.3.46-.13,1.11-.98.78-1.3ZM158.12,51.56h-.19c.06.26-.2.26-.2.52-.13,0-.19.07-.19.2h-.2c.07.19-.07.19-.2.19v.39c.46.06.39-.26.39-.59.19.06.19-.07.19-.2.39.13.39-.26.39-.52.2.2.39.13.39-.2.32-.32.85-.52.91-1.17-.65.06-.78.65-.91,1.17-.26-.06-.39,0-.39.2ZM163.72,45.19c0,.07,0,.2-.19.2,0-.13.06-.26.19-.2ZM163.91,44.99c0,.07,0,.2-.2.2,0-.13.07-.26.2-.2ZM164.5,44.6c-.19-.06-.19.07-.19.2-.13,0-.2.19-.39.19-.13-.52.39-.39.39-.78h.19v.39ZM164.11,45.38v.13h-.19c0-.07.06-.2.19-.13ZM164.3,45.19v.2h-.2c0-.13,0-.26.2-.2ZM164.3,66.14c0,.13-.13.2-.2,0h.2ZM167.1,59.77c.13,0,.39,0,.39-.2-.13.07-.39,0-.39.2ZM168.8,61.46c.13,0,.39,0,.39-.2-.13.07-.39,0-.39.2ZM168.99,62.76c.13,0,.39,0,.39-.19-.19.06-.39.06-.39.19ZM169.19,71.22c.32,0,.45-.13.52-.39.78.2.06-.52,0,0-.33,0-.46.13-.52.39ZM169.51,63.54c.2-.07.39,0,.39-.2-.13.07-.33,0-.39.2ZM169.9,61.26c.78.2.06-.52,0,0-.98.26.65.72,0,0ZM170.49,62.76c1.37.26.59-.52,0,0-1.24-.19-.39.59,0,0ZM170.1,60.94c.13-.07.39-.07.39-.2-.13,0-.39,0-.39.2ZM171.79,61.26c.13,0,.39,0,.39-.19-.13.06-.39,0-.39.19ZM172.57,64.13c.26-.85,1.82-.39,2.6-.78-.85.85-1.5.26-2.6.78ZM172.7,72.91c.2-.06.39,0,.39-.19-.13.06-.33,0-.39.19ZM173.09,71.22c.78.19.06-.59,0,0-.78-.2,0,.58,0,0ZM173.87,60.94c.98.19.2-.59,0,0-.78-.2-.07.52,0,0ZM173.68,62.24h1.3c-.07.39-.91.07-1.3.2v-.2ZM173.87,62.96c.46-.26,1.11-.33,1.89-.39-.52.33-1.11.72-1.89.39ZM174.07,72.33c.13,0,.32,0,.32-.2-.13.06-.32,0-.32.2ZM174.2,74.02c.19-.06.39,0,.39-.19-.13.06-.33,0-.39.19ZM174.98,62.04c-.2-.07-.52,0-.59-.2h.59v.2ZM174.59,49.48c-.13-.26-.2,0,0,0,.06.72.85-.06,0,0ZM175.17,50.39c.78.19,0-.52,0,0-.78-.13-.07.58,0,0ZM174.98,62.04c.13,0,.2.13,0,.19v-.19ZM175.37,73.11c.39.13.85-.52.39-.59.13-.78-.58,0,0,0-.13.2-.45.2-.39.59ZM175.57,49.48c.13-.06.32,0,.32-.2-.13.07-.32,0-.32.2ZM175.89,71.22c.33-.13,0-.26,0,0-.26.13.07.19,0,0ZM177.26,62.57c-.65-.07-.72.39-1.37.19.33-.91,4.36,0,1.37-.19ZM176.09,47.2c-.26.13.07.26,0,0,.26.07.52.07.59-.19.78.19.06-.52,0,0-.26,0-.52,0-.59.19ZM176.28,46.49c-.13-.26-.2,0,0,0,.13.26.26-.07,0,0ZM177.39,63.15c-.2.52-.52.32-.91.19.07-.19.39-.13.39-.39.13.13.26.2.52.2ZM176.67,49.29c.39.2.85-.45.39-.58-.13-.26-.26.06,0,0-.13.19-.46.19-.39.58ZM176.87,71.94c-.26.13,0,.26,0,0,.59.2.33-.45.91-.32-.2.78.59,0,0,0v-.2c-.39-.06-.46.13-.72.2-.13-.26-.26,0,0,0-.07.13-.2.19-.2.32ZM177.06,48.18c.33-.19.91-.06,1.11-.39.26-.13,0-.26,0,0-.52,0-1.11-.13-1.11.39ZM177.39,61.85c0,.2-.2.13-.33.2,0-.2.2-.13.33-.2ZM177.78,46.1c-.33,0-.46.13-.52.39.32,0,.45-.13.52-.39ZM177.26,72.33c.13,0,.32,0,.32-.2-.13.06-.32,0-.32.2ZM177.39,50.07c.26-.13.32-.39.58-.39-.19.78.59,0,0,0v-.2c-.45.07-.91.2-.58.59-.26.06.06.19,0,0ZM177.39,70.31c.19-.06.39-.06.39-.2-.13,0-.33,0-.39.2ZM177.78,48.5c-.59.59.65.33,0,0v-.13c.78.13.06-.59,0,0-.46-.07-.33.2,0,.13ZM177.97,61.65c.07.2.33.13.59.2-.06.26-.46.13-.78.2v-.59c.19,0,.19.06.19.19ZM177.78,71.22c.13-.07.39,0,.39-.2-.13.06-.39,0-.39.2ZM178.17,70.83c.39.39.78,0,.91-.39.78.2.07-.52,0,0-.45,0-.91,0-.91.39ZM178.56,46.49c-.78-.2-.06.52,0,0,.46,0,.78-.13.91-.39-.13-.06-.2-.19-.39-.19,0-.52-.78.19,0,0,.07.46-.52.19-.52.59ZM178.56,48.37c.13-.78-.59-.07,0,0,.2.52.98-.26,0,0ZM178.75,44.21v-.39h-.39v.39h.39ZM178.75,70.31c0-.2.13-.26.13-.39-.2-.07-.39-.33-.52,0,.19,0,.13.19,0,.39h.39ZM178.75,42.91c.13-.06.32,0,.32-.19-.13.06-.32,0-.32.19ZM178.88,44.21c.52.13.39-.39.78-.39,0,.19.26.19.39.19.13.33.2,0,0,0-.06-.45.85.13.52-.52-.46-.06-.59.26-.91.33,0-.26,0-.52-.19-.52-.07-.46-.72,0-.72.19.32.33.32-.13.72-.19.19.71-.72.26-.59.91ZM179.47,47.4c.13,0,.39,0,.39-.2-.13.07-.39,0-.39.2ZM179.67,70.83c-.26.13,0,.26,0,0,.33,0,.46-.13.59-.39.78.2,0-.52,0,0-.33,0-.52.2-.59.39ZM179.67,61.65c.13-.06.39,0,.39-.19-.13.06-.39,0-.39.19ZM180.25,69.92c-.33,0-.52.13-.59.39.33,0,.46-.2.59-.39ZM181.55,44.6h-.39c0-.19-.19-.13-.19,0-.52-.06-.91.07-1.11.39.46-.06.91-.13,1.11-.39h.19c.07.13.2.2.2.39-.39-.19-.85.46-.39.52,0-.46.78-.2.59-.91.13.07.19-.06.19-.19.78.19,0-.59,0,0-.19,0-.19.06-.19.19ZM181.36,46.88h-.78c0-.2,0-.39-.13-.39.32.58-.91.58-.2.91.13-.39.91-.13,1.11-.52ZM180.06,47.79h.39c-.07.2-.39.26-.39,0ZM180.45,70.83c.26-.13-.07-.19,0,0-.33.13,0,.26,0,0ZM180.58,42.32c.19,0,.39,0,.39-.13-.13,0-.39,0-.39.13ZM180.58,42.91c.19-.06.39,0,.39-.19-.13.06-.39,0-.39.19ZM180.97,48.7c.13,0,.39,0,.39-.2-.13.07-.39.07-.39.2ZM181.16,70.11c-.13-.32-.19,0,0,0,.13.26.26-.06,0,0ZM181.94,42.91c-.33,0-.52.13-.59.39.33,0,.46-.13.59-.39ZM182.07,46.49c-.13-.07-.2-.2-.13-.39.26-.06.46.26.13.39ZM182.85,48.37v.33h-.39v-.33h.39ZM182.85,44.99v-.19c.13-.07.39,0,.39-.2.52.07,0,.59-.39.39ZM183.96,42v.52c-.26-.06-.32-.26-.72-.19,0-.2.33-.13.33-.33h.39ZM183.57,43.82c1.04.26.26-.52,0,0-.26.13.07.26,0,0ZM183.57,46.68c.13,0,.26.13,0,.2v-.2ZM185.46,47.2c-.52-.06-.72.65-1.11.2,0-.33.52-.06.58-.39.26-.39.59.39.52-.33.52.39.13.52.39,1.11-.2,0-.2-.13-.39-.19v-.39ZM184.74,47.79c0,.2-.26.13-.39.2,0-.2.26-.13.39-.2ZM184.74,48.18c0,.13-.26.13-.39.2,0-.2.26-.2.39-.2ZM184.94,47.79c0-.19.26-.19.52-.19-.07.39-.26.39-.52.19ZM185.26,44.4c-.07-.39.33-.33.59-.39-.07.26-.26.39-.59.39ZM186.43,47.4c0,.2-.26.13-.39.2,0-.2.2-.13.39-.2ZM186.43,44.6v.39c-.19-.06-.26-.19-.19-.39h.19ZM186.63,43.82c-.06.19-.26.19-.39.19,0-.13.19-.13.39-.19ZM187.35,43.49c-.13-.06-.2.07-.2.2-.19-.07-.13-.26-.19-.39-.13.06-.33.13-.33.39-.59-.33.2-.78.72-.59v.39ZM187.54,44.21c.06.59-.65,1.37-1.11.78.78.13.33-.91,1.11-.78ZM186.96,45.38c.19-.07.26.13.39.13.13.72-.65.39-.39-.13ZM187.35,46.29c0,.2-.2.13-.39.2,0-.2.26-.13.39-.2ZM187.54,42.71c-.2-.07-.13-.39-.39-.39.07-.2.39-.13.39-.33.58.13-.2.39,0,.72ZM188.26,42.91c0,.2-.32.13-.52.2,0-.2.33-.13.52-.2ZM188.45,42.32c0,.26-.33.19-.52.19,0-.19.32-.13.52-.19Z"/>
    </g>
  </g>
</svg>